<?xml version="1.0" encoding="UTF-8"?>
<!DOCTYPE svg PUBLIC "-//W3C//DTD SVG 1.1//EN" "http://www.w3.org/Graphics/SVG/1.1/DTD/svg11.dtd">
<!-- Creator: CorelDRAW -->
<svg xmlns="http://www.w3.org/2000/svg" xml:space="preserve" width="2048px" height="2048px" style="shape-rendering:geometricPrecision; text-rendering:geometricPrecision; image-rendering:optimizeQuality; fill-rule:evenodd; clip-rule:evenodd"
viewBox="0 0 2048 2048"
 xmlns:xlink="http://www.w3.org/1999/xlink">
 <defs>
  <style type="text/css">
   <![CDATA[
    .fil2 {fill:none}
    .fil0 {fill:#424242}
    .fil1 {fill:#424242;fill-rule:nonzero}
   ]]>
  </style>
 </defs>
 <g id="Layer_x0020_1">
  <metadata id="CorelCorpID_0Corel-Layer"/>
  <g id="_486733528">
   <path id="_486733816" class="fil0" d="M1792 608.002l0 1152c0,17.6728 -14.328,32.0008 -32.0008,32.0008l-1472 0c-17.6728,0 -32.0008,-14.328 -32.0008,-32.0008l0 -1152 1536 0zm-1312.84 831.996l196.691 -511.995 72.9556 0 209.567 511.995 -77.2465 0 -59.7237 -155.088 -214.096 0 -56.1461 155.088 -72.0012 0zm147.697 -210.281l173.686 0 -53.5241 -141.738c-16.213,-43.0335 -28.3713,-78.4382 -36.2398,-106.213 -6.5563,32.9008 -15.7347,65.4438 -27.6555,97.8686l-56.2666 150.083zm385.636 210.281l0 -511.995 193.116 0c33.9733,0 59.9611,1.6689 77.8418,4.88741 25.1528,4.17166 46.2532,12.1583 63.3,23.9599 16.9264,11.6823 30.6355,28.2532 41.0067,49.3524 10.3713,21.2185 15.4973,44.4638 15.4973,69.8552 0,43.5107 -13.8284,80.465 -41.4839,110.624 -27.776,30.0402 -77.843,45.1796 -150.202,45.1796l-131.366 0 0 208.136 -67.7103 0zm67.7103 -268.575l132.439 0c43.7481,0 74.8619,-8.10591 93.2198,-24.437 18.3579,-16.3311 27.5362,-39.2197 27.5362,-68.7827 0,-21.4571 -5.36339,-39.815 -16.2118,-55.0737 -10.8473,-15.2587 -25.0335,-25.2721 -42.7949,-30.1595 -11.4437,-2.97992 -32.4248,-4.52953 -63.1808,-4.52953l-131.008 0 0 182.982zm420.92 268.575l0 -511.995 67.7103 0 0 511.995 -67.7103 0z"/>
   <path id="_486733744" class="fil1" d="M1311.67 350.366l0 127.999 127.999 0 0 -127.999 -127.999 0zm-223.827 127.999l127.999 0 0 -127.999 -127.999 0 0 127.999zm448.305 -127.999l0 127.999 127.999 0 0 -127.999 -127.999 0zm-1248.15 -94.3666l1472 0c17.6728,0 32.0008,14.328 32.0008,32.0008l0 288 -1536 0 0 -288c0,-17.6728 14.328,-32.0008 32.0008,-32.0008z"/>
  </g>
 </g>
 <rect class="fil2" width="2048" height="2048"/>
</svg>
