<?xml version="1.0" encoding="UTF-8"?>
<!DOCTYPE svg PUBLIC "-//W3C//DTD SVG 1.1//EN" "http://www.w3.org/Graphics/SVG/1.1/DTD/svg11.dtd">
<!-- Creator: CorelDRAW -->
<svg xmlns="http://www.w3.org/2000/svg" xml:space="preserve" width="2048px" height="2048px" style="shape-rendering:geometricPrecision; text-rendering:geometricPrecision; image-rendering:optimizeQuality; fill-rule:evenodd; clip-rule:evenodd"
viewBox="0 0 2048 2048"
 xmlns:xlink="http://www.w3.org/1999/xlink">
 <defs>
  <style type="text/css">
   <![CDATA[
    .fil2 {fill:none}
    .fil1 {fill:#424242}
    .fil0 {fill:#424242;fill-rule:nonzero}
   ]]>
  </style>
 </defs>
 <g id="Layer_x0020_1">
  <metadata id="CorelCorpID_0Corel-Layer"/>
  <g id="_486734512">
   <path id="_486733888" class="fil0" d="M606.724 412.733c0,-34.6134 28.0795,-62.6941 62.6941,-62.6941 181.813,0 392.124,0.415748 573.734,0.415748l-0.468898 -0.461811 0.62126 -60.7666c0,-21.3307 -14.3658,-33.2268 -52.741,-33.2268l-754.502 0c-17.3126,0 -31.3477,14.0351 -31.3477,31.3477l0 1347.92c0,17.3114 14.0351,31.3477 31.3477,31.3477l171.106 0c0,-417.24 -0.444095,-836.043 -0.444095,-1253.88z"/>
   <path id="_486733840" class="fil1" d="M669.419 381.385l611.908 0 0 361.871 361.871 0 0 1017.4c0,17.3126 -14.0362,31.3477 -31.3477,31.3477l-942.432 0c-17.3126,0 -31.3477,-14.0351 -31.3477,-31.3477l0 -1347.92c0,-17.3114 14.0351,-31.3477 31.3477,-31.3477zm127.309 532.898l687.812 0 0 62.6953 -687.812 0 0 -62.6953zm0 626.937l687.812 0 0 62.6953 -687.812 0 0 -62.6953zm0 -156.735l687.812 0 0 62.6953 -687.812 0 0 -62.6953zm0 -156.734l687.812 0 0 62.6953 -687.812 0 0 -62.6953zm0 -156.734l687.812 0 0 62.6953 -687.812 0 0 -62.6953zm0 -313.468l394.831 0 0 62.6953 -394.831 0 0 -62.6953z"/>
   <polygon id="_486734416" class="fil1" points="1312.67,381.297 1643.29,711.91 1312.67,711.91 "/>
  </g>
 </g>
 <rect class="fil2" width="2048" height="2048"/>
</svg>
