<?xml version="1.0" encoding="UTF-8"?>
<!DOCTYPE svg PUBLIC "-//W3C//DTD SVG 1.1//EN" "http://www.w3.org/Graphics/SVG/1.1/DTD/svg11.dtd">
<!-- Creator: CorelDRAW -->
<svg xmlns="http://www.w3.org/2000/svg" xml:space="preserve" width="2048px" height="2048px" style="shape-rendering:geometricPrecision; text-rendering:geometricPrecision; image-rendering:optimizeQuality; fill-rule:evenodd; clip-rule:evenodd"
viewBox="0 0 2048 2048"
 xmlns:xlink="http://www.w3.org/1999/xlink">
 <defs>
  <style type="text/css">
   <![CDATA[
    .fil2 {fill:none}
    .fil0 {fill:#424242}
    .fil1 {fill:#424242;fill-rule:nonzero}
   ]]>
  </style>
 </defs>
 <g id="Layer_x0020_1">
  <metadata id="CorelCorpID_0Corel-Layer"/>
  <g id="_486734944">
   <path id="_486735184" class="fil0" d="M830.887 818.42c6.85867,13.7599 13.8225,29.7981 20.7461,45.7477 15.6165,35.9717 31.0051,71.4142 42.854,76.4256 12.1004,5.11772 49.1611,-9.78898 86.1225,-24.6555 21.7536,-8.75079 56.9953,-30.3225 77.7981,-9.81851 14.1036,11.413 26.9988,22.9642 38.6303,34.5957 12.3484,12.3484 24.6083,26.1225 36.7122,41.2524l0.124016 -0.0992127c7.39016,9.23859 8.82875,21.3177 4.83189,31.6051 -4.63229,13.2921 -10.7457,28.4906 -16.8626,43.6985 -14.8665,36.9614 -29.7733,74.0221 -24.6555,86.1225 5.01142,11.8488 40.4551,27.2386 76.4268,42.8552 21.0992,9.15946 63.3863,20.0244 65.4036,48.0402 2.96929,25.8981 16.3949,126.773 -19.6559,141.776 -13.7599,6.85867 -29.7981,13.8225 -45.7477,20.7461 -35.9717,15.6177 -71.4142,31.0063 -76.4256,42.854 -5.11772,12.1004 9.78898,49.1599 24.6555,86.1201 6.30237,15.6685 12.6,31.3264 17.2784,44.8996l0.0188977 -0.00708662c4.09252,11.8831 0.783071,24.5244 -7.47875,32.9067 -20.0776,24.8103 -75.1973,92.8158 -107.374,80.2926 -13.2874,-4.63111 -28.4788,-10.7421 -43.6807,-16.8555 -36.9603,-14.8654 -74.0209,-29.7721 -86.1213,-24.6543 -11.8488,5.01142 -27.2374,40.454 -42.854,76.4256 -9.15946,21.0992 -20.0244,63.3863 -48.0402,65.4036 -34.7681,3.9874 -127.615,14.3776 -141.775,-19.6547 -6.85867,-13.7599 -13.8225,-29.7969 -20.7484,-45.75 -15.6154,-35.9705 -31.004,-71.413 -42.8528,-76.4245 -12.1004,-5.11772 -49.1599,9.78898 -86.1201,24.6555 -15.6685,6.30237 -31.3264,12.6 -44.8996,17.2784l0.00708662 0.0188977c-11.8831,4.09252 -24.5244,0.783071 -32.9067,-7.47875 -14.1036,-11.413 -27,-22.9654 -38.6327,-34.5969 -16.2543,-16.2543 -52.0229,-46.1233 -41.6646,-72.7654 4.63229,-13.2945 10.7457,-28.4906 16.8626,-43.6985 14.8654,-36.9579 29.7697,-74.015 24.6532,-86.1142 -5.01142,-11.8488 -40.4551,-27.2386 -76.4268,-42.8552 -21.0992,-9.15946 -63.3863,-20.0244 -65.4036,-48.0402 -1.01102,-8.81575 -1.81536,-18.1158 -2.39528,-27.913 -0.618898,-10.4776 -0.938977,-20.2725 -0.938977,-29.328 0,-9.05316 0.320079,-18.8445 0.938977,-29.3197 0.612993,-10.35 1.4752,-20.1449 2.56772,-29.4047l-0.0295276 -0.00354331c1.40551,-11.9055 9.17953,-21.5067 19.5118,-25.8059 13.7599,-6.85867 29.7969,-13.8225 45.75,-20.7484 35.9705,-15.6154 71.4142,-31.0051 76.4245,-42.8528 5.11772,-12.1016 -9.78898,-49.1599 -24.6555,-86.1201 -6.30237,-15.6685 -12.6012,-31.3276 -17.2784,-44.8996l-0.0188977 0.00708662c-4.09252,-11.8831 -0.783071,-24.5244 7.47875,-32.9067 11.413,-14.1036 22.9654,-27 34.5969,-38.6327 16.2543,-16.2543 46.1233,-52.0229 72.7654,-41.6646 13.2945,4.63229 28.4906,10.7457 43.6985,16.8626 36.9579,14.8654 74.015,29.7697 86.1142,24.6532 11.8488,-5.01142 27.2386,-40.4551 42.8552,-76.4268 17.9079,-41.2559 17.85,-58.5756 52.1658,-65.1296 31.1079,-5.93741 124.313,-12.665 137.65,19.3819zm-84.5351 223.875c68.7922,0 131.076,27.887 176.163,72.9733 45.0863,45.0863 72.9733,107.371 72.9733,176.163 0,68.7922 -27.887,131.076 -72.9733,176.163 -45.0863,45.0863 -107.371,72.9733 -176.163,72.9733 -68.7922,0 -131.076,-27.887 -176.163,-72.9733 -45.0863,-45.0863 -72.9733,-107.371 -72.9733,-176.163 0,-68.7922 27.887,-131.076 72.9733,-176.163 45.0863,-45.0863 107.371,-72.9733 176.163,-72.9733zm130.912 118.224c-33.5008,-33.5008 -79.7859,-54.2221 -130.912,-54.2221 -51.1264,0 -97.4115,20.7213 -130.912,54.2221 -33.5008,33.5008 -54.2221,79.7859 -54.2221,130.912 0,51.1264 20.7213,97.4115 54.2221,130.912 33.5008,33.5008 79.7859,54.2221 130.912,54.2221 51.1264,0 97.4115,-20.7213 130.912,-54.2221 33.5008,-33.5008 54.2221,-79.7859 54.2221,-130.912 0,-51.1264 -20.7213,-97.4115 -54.2221,-130.912zm-130.912 10.526c33.2374,0 63.3367,13.4764 85.1233,35.263 21.7866,21.7866 35.263,51.8859 35.263,85.1233 0,33.2398 -13.4764,63.3367 -35.263,85.1233 -21.7866,21.7866 -51.8859,35.263 -85.1233,35.263 -33.2398,0 -63.3367,-13.4764 -85.1233,-35.263 -21.7866,-21.7866 -35.263,-51.8835 -35.263,-85.1233 0,-33.2374 13.4764,-63.3367 35.263,-85.1233 21.7866,-21.7866 51.8835,-35.263 85.1233,-35.263zm39.8729 80.5134c-10.2012,-10.2012 -24.3012,-16.5118 -39.8729,-16.5118 -15.574,0 -29.6717,6.31063 -39.8729,16.5118 -10.2012,10.2012 -16.5118,24.3012 -16.5118,39.8729 0,15.574 6.31063,29.6717 16.5118,39.8729 10.2012,10.2012 24.2988,16.5118 39.8729,16.5118 15.5717,0 29.6717,-6.31063 39.8729,-16.5118 10.2012,-10.2012 16.5118,-24.2988 16.5118,-39.8729 0,-15.5717 -6.31063,-29.6717 -16.5118,-39.8729z"/>
   <path id="_486735040" class="fil0" d="M1792 571.335l0 845.187c0,12.9662 -12.835,23.478 -28.6677,23.478l-608.881 0c12.7264,-5.84292 25.7209,-11.25 31.9063,-13.9358 15.5492,-6.75001 30.8811,-13.95 46.2981,-20.9906 55.8237,-25.4941 42.8752,-123.997 38.224,-173.857 -2.82402,-30.2729 -25.8662,-48.8115 -51.5989,-60.9012 -10.8756,-5.10945 -22.0099,-8.7815 -32.9233,-13.5189 -10.8272,-4.70079 -42.5209,-17.7414 -57.1146,-26.8607 3.9815,-17.0646 17.7933,-49.6477 22.2886,-60.8233 5.94213,-14.7721 11.6976,-29.6362 17.2016,-44.5784 7.79056,-21.1465 4.28859,-44.954 -9.87048,-62.6552l-19.9902 -24.9898 -0.809056 0.647245c-5.95985,-6.64607 -12.0886,-13.1398 -18.398,-19.4492 -12.6579,-12.6567 -26.6008,-23.9138 -39.9366,-35.8288 -23.5902,-21.0815 -53.3115,-18.8858 -81.1134,-8.65749 -10.278,3.78071 -19.865,8.59253 -29.9481,12.6484 -11.1756,4.49528 -43.7575,18.3071 -60.8221,22.2886 -9.1193,-14.5937 -22.1587,-46.2863 -26.8595,-57.1134 -6.75001,-15.5492 -13.95,-30.8811 -20.9906,-46.2981 -16.487,-36.1028 -66.0461,-42.0839 -100.962,-42.8398 -22.963,-0.496063 -49.1788,1.00039 -71.7981,5.31969 -52.1918,9.96497 -57.2162,41.6599 -75.5174,83.8194 -4.70079,10.8272 -17.7414,42.5197 -26.8595,57.1134 -17.0634,-3.9815 -49.6406,-17.791 -60.8162,-22.2862 -14.7721,-5.94095 -29.6351,-11.6953 -44.5748,-17.2004 -22.7575,-8.38583 -44.5382,-1.76102 -63.4678,10.5024l0 -308.22 1376 0z"/>
   <path id="_486734824" class="fil1" d="M1361.7 340.536l0 114.666 114.666 0 0 -114.666 -114.666 0zm-200.511 114.666l114.665 0 0 -114.666 -114.665 0 0 114.666zm401.607 -114.666l0 114.666 114.665 0 0 -114.666 -114.665 0zm-1118.13 -84.5363l1318.67 0c15.8327,0 28.6677,12.835 28.6677,28.6677l0 258 -1376 0 0 -258c0,-15.8327 12.835,-28.6677 28.6677,-28.6677z"/>
  </g>
 </g>
 <rect class="fil2" width="2048" height="2048"/>
</svg>
