<?xml version="1.0" encoding="UTF-8"?>
<!DOCTYPE svg PUBLIC "-//W3C//DTD SVG 1.1//EN" "http://www.w3.org/Graphics/SVG/1.1/DTD/svg11.dtd">
<!-- Creator: CorelDRAW -->
<svg xmlns="http://www.w3.org/2000/svg" xml:space="preserve" width="2048px" height="2048px" style="shape-rendering:geometricPrecision; text-rendering:geometricPrecision; image-rendering:optimizeQuality; fill-rule:evenodd; clip-rule:evenodd"
viewBox="0 0 2048 2048"
 xmlns:xlink="http://www.w3.org/1999/xlink">
 <defs>
  <style type="text/css">
   <![CDATA[
    .fil2 {fill:none}
    .fil0 {fill:#424242}
    .fil1 {fill:#424242;fill-rule:nonzero}
   ]]>
  </style>
 </defs>
 <g id="Layer_x0020_1">
  <metadata id="CorelCorpID_0Corel-Layer"/>
  <path class="fil0" d="M1792 608.002l0 1152c0,17.6728 -14.328,32.0008 -32.0008,32.0008l-1472 0c-17.6728,0 -32.0008,-14.328 -32.0008,-32.0008l0 -1152 1536 0zm-856.915 196.158c-22.3406,22.3406 -36.1618,53.2063 -36.1618,87.293 0,34.0866 13.8213,64.9524 36.1618,87.293 1.66063,1.66063 3.36969,3.27284 5.12244,4.8378 -3.02717,2.17323 -6.03544,4.44331 -9.01654,6.80906 -13.9843,11.0929 -27.5752,24.3662 -40.3559,39.0874l-141.744 -98.3894c-13.1823,-10.3347 -29.4331,-4.51063 -35.165,-0.929528l-72.0804 54.5433c-9.20434,4.60276 -12.9354,15.7973 -8.33386,25.0028 4.60276,9.20434 15.7973,12.9366 25.0028,8.33386l69.7182 -23.7662 124.819 86.641c-4.35709,7.00985 -8.5004,14.1343 -12.3969,21.3189 -23.9433,44.1485 -39.2032,91.7032 -39.2032,131.229 0,16.8992 2.7189,32.6622 8.57835,46.6571l-98.9268 74.6422 -47.0055 -6.013c-8.44253,-4.59804 -19.0134,-1.4811 -23.6114,6.96142 -4.59804,8.44253 -1.48228,19.0134 6.96024,23.6114l48.802 39.965c10.9984,7.30749 25.8508,7.28977 36.9886,-1.11378l-0.0248032 -0.0448819 112.778 -85.0926c21.6898,31.2248 39.9319,63.1347 55.5827,93.0308l-101.858 76.8532 -58.8756 -14.2512c-9.15591,-4.98662 -20.6209,-1.6063 -25.6075,7.54961 -4.98662,9.15591 -1.6063,20.6209 7.54961,25.6075l62.0882 45.6237c10.9973,7.3004 25.8437,7.28268 36.978,-1.1185l-0.0236221 -0.0448819 108.756 -82.0571 2.02087 4.18229c67.1186,138.886 115.681,138.886 182.799,0l2.02087 -4.18229 108.756 82.0571 -0.0236221 0.0448819c11.1343,8.40119 25.9807,8.4189 36.978,1.1185l62.0882 -45.6237c9.15591,-4.98662 12.5362,-16.4516 7.54961,-25.6075 -4.98662,-9.15591 -16.4516,-12.5362 -25.6075,-7.54961l-58.8756 14.2512 -101.858 -76.8532c15.6508,-29.8961 33.8929,-61.806 55.5827,-93.0308l112.778 85.0926 -0.0248032 0.0448819c11.1378,8.40355 25.9902,8.42127 36.9886,1.11378l48.802 -39.965c8.44253,-4.59804 11.5583,-15.1689 6.96024,-23.6114 -4.59804,-8.44253 -15.1689,-11.5595 -23.6114,-6.96142l-47.0055 6.013 -98.9268 -74.6422c5.85945,-13.9949 8.57835,-29.7579 8.57835,-46.6571 0,-39.5256 -15.2599,-87.0804 -39.2032,-131.229 -3.89646,-7.18465 -8.03977,-14.3091 -12.3969,-21.3189l124.819 -86.641 69.7182 23.7662c9.20552,4.60276 20.4,0.870473 25.0028,-8.33386 4.60158,-9.20552 0.870473,-20.4 -8.33386,-25.0028l-72.0804 -54.5433c-5.73189,-3.58111 -21.9827,-9.40513 -35.165,0.929528l-141.744 98.3894c-12.7807,-14.7213 -26.3717,-27.9945 -40.3559,-39.0874 -2.9811,-2.36575 -5.98937,-4.63583 -9.01654,-6.80906 1.75276,-1.56496 3.46181,-3.17717 5.12244,-4.8378 22.3406,-22.3406 36.1618,-53.2063 36.1618,-87.293 0,-34.0866 -13.8213,-64.9524 -36.1618,-87.293 -48.2989,-48.2989 -129.53,-48.2989 -177.829,0z"/>
  <path class="fil1" d="M1311.67 350.366l0 127.999 127.999 0 0 -127.999 -127.999 0zm-223.827 127.999l127.999 0 0 -127.999 -127.999 0 0 127.999zm448.305 -127.999l0 127.999 127.999 0 0 -127.999 -127.999 0zm-1248.15 -94.3666l1472 0c17.6728,0 32.0008,14.328 32.0008,32.0008l0 288 -1536 0 0 -288c0,-17.6728 14.328,-32.0008 32.0008,-32.0008z"/>
 </g>
 <rect class="fil2" width="2048" height="2048"/>
</svg>
