<?xml version="1.0" encoding="UTF-8"?>
<!DOCTYPE svg PUBLIC "-//W3C//DTD SVG 1.1//EN" "http://www.w3.org/Graphics/SVG/1.1/DTD/svg11.dtd">
<!-- Creator: CorelDRAW -->
<svg xmlns="http://www.w3.org/2000/svg" xml:space="preserve" width="2048px" height="2048px" style="shape-rendering:geometricPrecision; text-rendering:geometricPrecision; image-rendering:optimizeQuality; fill-rule:evenodd; clip-rule:evenodd"
viewBox="0 0 2048 2048"
 xmlns:xlink="http://www.w3.org/1999/xlink">
 <defs>
  <style type="text/css">
   <![CDATA[
    .fil2 {fill:none}
    .fil1 {fill:#424242}
    .fil0 {fill:#424242;fill-rule:nonzero}
   ]]>
  </style>
 </defs>
 <g id="Layer_x0020_1">
  <metadata id="CorelCorpID_0Corel-Layer"/>
  <path class="fil0" d="M655.708 441.285l-25.6087 0c-60.7028,0 -101.724,11.6185 -123.064,34.6181 -21.3414,23.0008 -32.0114,70.4245 -32.0114,142.508l0 168.591c0,77.7745 -9.95906,133.259 -30.1134,166.456 -20.1555,33.4335 -55.7233,57.3815 -106.703,72.3201 50.98,14.2276 86.5477,37.9394 106.703,71.3729 20.1543,33.1961 30.1134,88.682 30.1134,166.694l0 167.641c0,71.8477 10.4339,119.27 31.2992,142.271 20.8666,22.7634 60.228,34.3819 118.086,34.3819 3.3189,0 8.29843,-0.237402 15.4122,-0.711024 6.87638,-0.474804 12.0933,-0.711024 15.887,-0.711024l0 73.7434 -32.7225 0c-91.0536,0 -152.941,-16.8354 -184.951,-50.2689 -32.2477,-33.4335 -48.3721,-102.197 -48.3721,-205.582l0 -169.775c0,-71.3729 -13.2791,-121.642 -39.5988,-150.807 -20.224,-22.4114 -51.652,-36.2799 -94.0642,-41.5028l0 -75.6272c42.4122,-5.22284 73.8402,-19.0902 94.0642,-41.5016 26.3197,-29.4024 39.5988,-79.9087 39.5988,-151.282l0 -168.827c0,-103.147 16.1244,-172.148 48.6095,-206.293 32.4851,-34.3819 93.8977,-51.4548 184.714,-51.4548l32.7225 0 0 73.7445z"/>
  <path class="fil0" d="M1392.29 441.285l25.6087 0c60.7028,0 101.724,11.6185 123.064,34.6181 21.3414,23.0008 32.0114,70.4245 32.0114,142.508l0 168.591c0,77.7745 9.95906,133.259 30.1134,166.456 20.1555,33.4335 55.7233,57.3815 106.703,72.3201 -50.98,14.2276 -86.5477,37.9394 -106.703,71.3729 -20.1543,33.1961 -30.1134,88.682 -30.1134,166.694l0 167.641c0,71.8477 -10.4339,119.27 -31.2992,142.271 -20.8666,22.7634 -60.228,34.3819 -118.086,34.3819 -3.3189,0 -8.29843,-0.237402 -15.4122,-0.711024 -6.87638,-0.474804 -12.0933,-0.711024 -15.887,-0.711024l0 73.7434 32.7225 0c91.0536,0 152.941,-16.8354 184.951,-50.2689 32.2477,-33.4335 48.3721,-102.197 48.3721,-205.582l0 -169.775c0,-71.3729 13.2791,-121.642 39.5988,-150.807 20.224,-22.4114 51.652,-36.2799 94.0642,-41.5028l0 -75.6272c-42.4122,-5.22284 -73.8402,-19.0902 -94.0642,-41.5016 -26.3197,-29.4024 -39.5988,-79.9087 -39.5988,-151.282l0 -168.827c0,-103.147 -16.1244,-172.148 -48.6095,-206.293 -32.4851,-34.3819 -93.8977,-51.4548 -184.714,-51.4548l-32.7225 0 0 73.7445z"/>
  <path class="fil1" d="M931.596 633.146c-23.2169,23.2169 -37.5815,55.2945 -37.5815,90.7182 0,35.4248 14.3646,67.5012 37.5815,90.7182 1.72559,1.72559 3.50197,3.40158 5.32323,5.02796 -3.14528,2.25827 -6.27166,4.61811 -9.36969,7.07599 -14.5335,11.5287 -28.6583,25.3229 -41.9398,40.6217l-147.307 -102.25c-13.6984,-10.7398 -30.587,-4.6878 -36.5445,-0.966142l-74.9091 56.6835c-9.56457,4.78347 -13.4421,16.4173 -8.65985,25.9843 4.78229,9.56576 16.4162,13.4445 25.9831,8.66103l72.4536 -24.6992 129.717 90.0414c-4.52717,7.28504 -8.83347,14.6882 -12.8823,22.1551 -24.8835,45.8811 -40.7422,95.302 -40.7422,136.378 0,17.5618 2.8252,33.9437 8.91497,48.4878l-102.809 77.5713 -48.8493 -6.24922c-8.77442,-4.77874 -19.7599,-1.53898 -24.5386,7.23426 -4.77874,8.77442 -1.54016,19.7599 7.23308,24.5386l50.7178 41.5323c11.4295,7.59449 26.8654,7.57678 38.4402,-1.15748l-0.0259843 -0.046063 117.203 -88.4316c22.5402,32.4496 41.4992,65.6115 57.7642,96.6816l-105.856 79.8686 -61.1859 -14.811c-9.51497,-5.1815 -21.4299,-1.6689 -26.6114,7.84607 -5.18268,9.51497 -1.67008,21.4299 7.84489,26.6126l64.5249 47.4142c11.4295,7.58623 26.8583,7.56851 38.4296,-1.16221l-0.0248032 -0.0472441 113.023 -85.2768 2.1 4.34646c69.7524,144.336 120.221,144.336 189.973,0l2.1 -4.34646 113.023 85.2768 -0.0248032 0.0472441c11.5713,8.73072 27,8.74843 38.4296,1.16221l64.5249 -47.4142c9.51497,-5.18268 13.0276,-17.0977 7.84489,-26.6126 -5.1815,-9.51497 -17.0965,-13.0276 -26.6114,-7.84607l-61.1859 14.811 -105.856 -79.8686c16.265,-31.0701 35.224,-64.2319 57.7642,-96.6816l117.203 88.4316 -0.0259843 0.046063c11.5748,8.73426 27.0107,8.75198 38.4402,1.15748l50.7178 -41.5323c8.77324,-4.77874 12.0118,-15.7642 7.23308,-24.5386 -4.77874,-8.77324 -15.7642,-12.013 -24.5386,-7.23426l-48.8493 6.24922 -102.809 -77.5713c6.08977,-14.5441 8.91497,-30.926 8.91497,-48.4878 0,-41.0764 -15.8587,-90.4973 -40.7422,-136.378 -4.04882,-7.46693 -8.35512,-14.8701 -12.8823,-22.1551l129.717 -90.0414 72.4536 24.6992c9.56694,4.78347 21.2008,0.904725 25.9831,-8.66103 4.78229,-9.56694 0.904725,-21.2008 -8.65985,-25.9843l-74.9091 -56.6835c-5.95748,-3.72166 -22.8461,-9.77363 -36.5445,0.966142l-147.307 102.25c-13.2815,-15.2988 -27.4063,-29.0929 -41.9398,-40.6217 -3.09803,-2.45788 -6.22441,-4.81772 -9.36969,-7.07599 1.82126,-1.62638 3.59764,-3.30236 5.32323,-5.02796 23.2169,-23.2169 37.5815,-55.2933 37.5815,-90.7182 0,-35.4236 -14.3646,-67.5012 -37.5815,-90.7182 -50.1945,-50.1945 -134.613,-50.1945 -184.807,0z"/>
 </g>
 <rect class="fil2" width="2048" height="2048"/>
</svg>
