<?xml version="1.0" encoding="UTF-8"?>
<!DOCTYPE svg PUBLIC "-//W3C//DTD SVG 1.1//EN" "http://www.w3.org/Graphics/SVG/1.1/DTD/svg11.dtd">
<!-- Creator: CorelDRAW -->
<svg xmlns="http://www.w3.org/2000/svg" xml:space="preserve" width="2048px" height="2048px" style="shape-rendering:geometricPrecision; text-rendering:geometricPrecision; image-rendering:optimizeQuality; fill-rule:evenodd; clip-rule:evenodd"
viewBox="0 0 2048 2048"
 xmlns:xlink="http://www.w3.org/1999/xlink">
 <defs>
  <style type="text/css">
   <![CDATA[
    .fil2 {fill:none}
    .fil1 {fill:#212121;fill-rule:nonzero}
    .fil0 {fill:#424242;fill-rule:nonzero}
   ]]>
  </style>
 </defs>
 <g id="Layer_x0020_1">
  <metadata id="CorelCorpID_0Corel-Layer"/>
  <g id="_487427408">
   <path id="_487427216" class="fil0" d="M1504 381.325l0 316.94c0,16.4811 -13.3618,29.8429 -29.8441,29.8429l-80.7662 0 3.91536 133.212 -192.07 -133.212 -342.261 0c-16.4811,0 -29.8429,-13.3618 -29.8429,-29.8429l0 -316.94c0,-16.4823 13.3618,-29.8441 29.8429,-29.8441l611.182 0c16.4823,0 29.8441,13.3618 29.8441,29.8441zm-582.798 127.047l494.728 0 0 -29.8429 -494.728 0 0 29.8429zm0 77.2571l289.628 0 0 -29.8429 -289.628 0 0 29.8429z"/>
   <path id="_487427504" class="fil0" d="M469.198 282.31l0 316.94c0,16.4811 13.3618,29.8429 29.8441,29.8429l50.9244 0 -3.91536 133.212 192.07 -133.212 65.1686 0 0 -247.767c0,-32.954 26.7331,-59.6859 59.6859,-59.6859l277.092 0 0 -39.3296c0,-16.4823 -13.3618,-29.8441 -29.8429,-29.8441l-611.182 0c-16.4823,0 -29.8441,13.3618 -29.8441,29.8441z"/>
  </g>
  <path class="fil0" d="M1649.77 1062.65l0 4.14803c-67.8721,5.06575 -144.627,3.48662 -202.021,-30.2729 -54.4867,-32.0492 -58.1717,-74.2914 -43.7835,-130.45 11.7992,-1.17638 23.7851,-1.67126 35.7839,-1.49291 28.9429,0.42874 57.8977,4.8 84.4111,12.9473 71.5772,21.9957 126.895,71.0611 125.493,145.121l0.115748 0zm0 36.0827l0 66.0225c0,99.8257 -54.9095,163.95 -125.195,192.199 -26.8772,10.8024 -55.8284,16.2047 -84.5942,16.2047 -28.7658,0 -57.7158,-5.40237 -84.5942,-16.2047 -70.076,-28.1646 -124.862,-91.9961 -125.186,-191.315 21.9071,-3.80906 44.504,-9.79607 65.517,-15.9803 15.9378,-4.69016 31.8756,-9.87757 47.3693,-15.8811 10.5059,-4.07008 22.963,-9.14292 32.413,-15.3106 17.413,-11.3669 33.417,-25.8945 44.452,-43.6607l7.85079 -12.6413 13.1764 6.91654c62.2512,32.6752 138.279,34.7965 208.791,29.6516zm-419.576 34.4646l0 -70.5473c0,-78.9686 54.567,-127.081 125.125,-147.39 5.11418,-1.47165 10.324,-2.78858 15.6118,-3.95551 -3.65906,27.9331 -8.24646,63.1819 0.56693,89.7532 4.35118,13.1185 11.6799,24.0012 21.3331,33.8162l8.18268 8.31969 -5.42245 10.3335c-8.31379,15.8398 -22.5414,28.5685 -37.35,38.2347 -9.32835,6.08859 -21.5823,10.8626 -32.0292,14.7024 -14.0055,5.14843 -28.3689,9.60946 -42.7229,13.6819 -17.1213,4.85906 -35.3988,9.66497 -53.2949,13.0512z"/>
  <path class="fil1" d="M1683.91 1524.23c-25.9583,-41.1721 -62.0493,-75.4099 -104.707,-99.1548 -42.3059,23.2725 -90.815,34.9122 -139.212,34.9146 -48.3969,0.00236221 -96.9072,-11.6339 -139.217,-34.9028 -42.652,23.7449 -78.7382,57.9827 -104.693,99.1536 -27.9036,44.263 -44.0823,96.6709 -44.0823,152.777l0 50.9835 576 0 0 -50.9835c0,-56.1107 -16.1811,-108.521 -44.0894,-152.788z"/>
  <path class="fil0" d="M1594.2 1360.88c58.989,28.9701 108.829,74.0209 143.712,129.349 34.239,54.3083 54.091,118.396 54.091,186.787l0 82.9843c0,17.6728 -14.328,32.0008 -32.0008,32.0008l-640.002 0c-17.6728,0 -32.0008,-14.328 -32.0008,-32.0008l0 -82.9843c0,-68.3847 19.8496,-132.469 54.0839,-186.776 35.3067,-56.0044 85.9383,-101.482 145.873,-130.41l-0.0330709 -0.068504c1.22717,-0.591733 2.47323,-1.09843 3.73229,-1.52244 15.4772,11.2016 32.7662,20.7555 51.802,28.4067 30.587,12.2929 63.5752,18.5126 96.5268,18.5126 32.9516,0 65.941,-6.21969 96.528,-18.5126 10.8177,-4.34764 21.0662,-9.31418 30.7429,-14.8417l10.8898 16.7646 -10.8803 -16.7693c7.35827,-4.20237 14.3882,-8.72363 21.0732,-13.5626 2.02914,0.680315 3.99331,1.56378 5.86182,2.64449z"/>
  <path class="fil0" d="M817.773 1062.65l0 4.14803c-67.8721,5.06575 -144.627,3.48662 -202.021,-30.2729 -54.4867,-32.0492 -58.1717,-74.2914 -43.7835,-130.45 11.7992,-1.17638 23.7851,-1.67126 35.7839,-1.49291 28.9429,0.42874 57.8977,4.8 84.4111,12.9473 71.5772,21.9957 126.895,71.0611 125.493,145.121l0.115748 0zm0 36.0827l0 66.0225c0,99.8257 -54.9095,163.95 -125.195,192.199 -26.8772,10.8024 -55.8284,16.2047 -84.5942,16.2047 -28.7658,0 -57.7158,-5.40237 -84.5942,-16.2047 -70.076,-28.1646 -124.862,-91.9961 -125.186,-191.315 21.9071,-3.80906 44.504,-9.79607 65.517,-15.9803 15.9378,-4.69016 31.8756,-9.87757 47.3693,-15.8811 10.5059,-4.07008 22.963,-9.14292 32.413,-15.3106 17.413,-11.3669 33.417,-25.8945 44.452,-43.6607l7.85079 -12.6413 13.1764 6.91654c62.2512,32.6752 138.279,34.7965 208.791,29.6516zm-419.576 34.4646l0 -70.5473c0,-78.9686 54.567,-127.081 125.125,-147.39 5.11418,-1.47165 10.324,-2.78858 15.6118,-3.95551 -3.65906,27.9331 -8.24646,63.1819 0.56693,89.7532 4.35118,13.1185 11.6799,24.0012 21.3331,33.8162l8.18268 8.31969 -5.42245 10.3335c-8.31379,15.8398 -22.5414,28.5685 -37.35,38.2347 -9.32835,6.08859 -21.5823,10.8626 -32.0292,14.7024 -14.0055,5.14843 -28.3689,9.60946 -42.7229,13.6819 -17.1213,4.85906 -35.3988,9.66497 -53.2949,13.0512z"/>
  <path class="fil1" d="M851.912 1524.23c-25.9583,-41.1721 -62.0493,-75.4099 -104.707,-99.1548 -42.3059,23.2725 -90.815,34.9122 -139.212,34.9146 -48.3969,0.00236221 -96.9072,-11.6339 -139.217,-34.9028 -42.652,23.7449 -78.7382,57.9827 -104.693,99.1536 -27.9036,44.263 -44.0823,96.6709 -44.0823,152.777l0 50.9835 576 0 0 -50.9835c0,-56.1107 -16.1811,-108.521 -44.0894,-152.788z"/>
  <path class="fil0" d="M762.2 1360.88c58.989,28.9701 108.829,74.0209 143.712,129.349 34.239,54.3083 54.091,118.396 54.091,186.787l0 82.9843c0,17.6728 -14.328,32.0008 -32.0008,32.0008l-640.002 0c-17.6728,0 -32.0008,-14.328 -32.0008,-32.0008l0 -82.9843c0,-68.3847 19.8496,-132.469 54.0839,-186.776 35.3067,-56.0044 85.9383,-101.482 145.873,-130.41l-0.0330709 -0.068504c1.22717,-0.591733 2.47323,-1.09843 3.73229,-1.52244 15.4772,11.2016 32.7662,20.7555 51.802,28.4067 30.587,12.2929 63.5752,18.5126 96.5268,18.5126 32.9516,0 65.941,-6.21969 96.528,-18.5126 10.8177,-4.34764 21.0662,-9.31418 30.7429,-14.8417l10.8898 16.7646 -10.8803 -16.7693c7.35827,-4.20237 14.3882,-8.72363 21.0732,-13.5626 2.02914,0.680315 3.99331,1.56378 5.86182,2.64449z"/>
 </g>
 <rect class="fil2" width="2048" height="2048"/>
</svg>
