<?xml version="1.0" encoding="UTF-8"?>
<!DOCTYPE svg PUBLIC "-//W3C//DTD SVG 1.1//EN" "http://www.w3.org/Graphics/SVG/1.1/DTD/svg11.dtd">
<!-- Creator: CorelDRAW -->
<svg xmlns="http://www.w3.org/2000/svg" xml:space="preserve" width="2048px" height="2048px" style="shape-rendering:geometricPrecision; text-rendering:geometricPrecision; image-rendering:optimizeQuality; fill-rule:evenodd; clip-rule:evenodd"
viewBox="0 0 2048 2048"
 xmlns:xlink="http://www.w3.org/1999/xlink">
 <defs>
  <style type="text/css">
   <![CDATA[
    .fil2 {fill:none}
    .fil1 {fill:#424242}
    .fil0 {fill:#424242;fill-rule:nonzero}
   ]]>
  </style>
 </defs>
 <g id="Layer_x0020_1">
  <metadata id="CorelCorpID_0Corel-Layer"/>
  <path class="fil0" d="M1249.65 390.935c16.1847,0 31.9819,1.4126 47.3091,4.09961 67.2556,11.7945 123.515,48.2705 162.962,98.0906 39.1689,49.4693 61.6382,112.076 61.6382,176.581 0,15.8575 -1.37008,31.9229 -4.1941,48.0272 -6.45709,36.8209 -16.2591,62.3941 -38.6422,80.7721 -21.5351,17.6811 -50.9197,24.9248 -96.1796,24.9248l-744.382 0c-55.226,0 -87.8446,-21.4961 -102.863,-52.4811 -10.7315,-22.141 -11.2158,-47.9882 -3.72874,-73.4965 6.68741,-22.7882 19.9264,-45.6615 37.7563,-64.9536 29.1319,-31.5213 70.8473,-54.4004 117.149,-53.5654 -0.068504,-2.24292 -0.102756,-4.48583 -0.102756,-6.72638 0,-61.128 24.2729,-116.556 63.515,-156.754 39.4843,-40.4457 94.0005,-65.4638 154.182,-65.4638 44.7366,0 86.3658,13.8402 121.036,37.5756 23.4284,16.0382 43.6394,36.6237 59.4367,60.5221 17.6433,-13.813 36.9874,-25.4622 57.6556,-34.5579 33.0402,-14.5406 69.3721,-22.5945 107.453,-22.5945z"/>
  <path class="fil0" d="M646.897 1567.91c0,-17.6728 -14.328,-32.0008 -32.0008,-32.0008 -17.6728,0 -32.0008,14.328 -32.0008,32.0008l0 80.2383 -118.791 18.0768c-3.51851,0 -6.37087,2.35158 -6.37087,5.25119 0,2.89961 2.85236,5.25119 6.37087,5.25119 186.496,28.3795 115.087,28.3795 301.582,0 3.51851,0 6.37087,-2.35158 6.37087,-5.25119 0,-2.89961 -2.85236,-5.25119 -6.37087,-5.25119l-118.789 -18.0768 0 -80.2383z"/>
  <path class="fil1" d="M287.999 1115.61l653.794 0c17.6728,0 32.0008,14.328 32.0008,32.0008l0 420.296c0,17.6728 -14.328,32.0008 -32.0008,32.0008l-653.794 0c-17.6728,0 -32.0008,-14.328 -32.0008,-32.0008l0 -420.296c0,-17.6728 14.328,-32.0008 32.0008,-32.0008zm14.4626 395.109l624.869 0 0 -350.798 -624.869 0 0 350.798z"/>
  <path class="fil0" d="M1465.1 1567.91c0,-17.6728 -14.328,-32.0008 -32.0008,-32.0008 -17.6728,0 -32.0008,14.328 -32.0008,32.0008l0 80.2383 -118.791 18.0768c-3.51851,0 -6.37087,2.35158 -6.37087,5.25119 0,2.89961 2.85236,5.25119 6.37087,5.25119 186.496,28.3795 115.087,28.3795 301.582,0 3.51851,0 6.37087,-2.35158 6.37087,-5.25119 0,-2.89961 -2.85236,-5.25119 -6.37087,-5.25119l-118.789 -18.0768 0 -80.2383z"/>
  <path class="fil1" d="M1106.21 1115.61l653.794 0c17.6728,0 32.0008,14.328 32.0008,32.0008l0 420.296c0,17.6728 -14.328,32.0008 -32.0008,32.0008l-653.794 0c-17.6728,0 -32.0008,-14.328 -32.0008,-32.0008l0 -420.296c0,-17.6728 14.328,-32.0008 32.0008,-32.0008zm14.4626 395.109l624.869 0 0 -350.798 -624.869 0 0 350.798z"/>
  <path class="fil0" d="M1456 1079.43c0,8.83583 7.16457,16.0004 16.0004,16.0004 8.83583,0 16.0004,-7.16457 16.0004,-16.0004l0 -105.208c0,-8.83583 -7.16457,-16.0004 -16.0004,-16.0004l-896.001 0c-8.83583,0 -16.0004,7.16457 -16.0004,16.0004l0 105.208c0,8.83583 7.16457,16.0004 16.0004,16.0004 8.83583,0 16.0004,-7.16457 16.0004,-16.0004l0 -89.2075 864.001 0 0 89.2075z"/>
  <path class="fil0" d="M1040 791.429c0,-8.83583 -7.16457,-16.0004 -16.0004,-16.0004 -8.83583,0 -16.0004,7.16457 -16.0004,16.0004l0 182.792c0,8.83583 7.16457,16.0004 16.0004,16.0004 8.83583,0 16.0004,-7.16457 16.0004,-16.0004l0 -182.792z"/>
 </g>
 <rect class="fil2" width="2048" height="2048"/>
</svg>
