<?xml version="1.0" encoding="UTF-8"?>
<!DOCTYPE svg PUBLIC "-//W3C//DTD SVG 1.1//EN" "http://www.w3.org/Graphics/SVG/1.1/DTD/svg11.dtd">
<!-- Creator: CorelDRAW -->
<svg xmlns="http://www.w3.org/2000/svg" xml:space="preserve" width="2048px" height="2048px" style="shape-rendering:geometricPrecision; text-rendering:geometricPrecision; image-rendering:optimizeQuality; fill-rule:evenodd; clip-rule:evenodd"
viewBox="0 0 2048 2048"
 xmlns:xlink="http://www.w3.org/1999/xlink">
 <defs>
  <style type="text/css">
   <![CDATA[
    .fil2 {fill:none}
    .fil1 {fill:#424242}
    .fil0 {fill:#424242;fill-rule:nonzero}
   ]]>
  </style>
 </defs>
 <g id="Layer_x0020_1">
  <metadata id="CorelCorpID_0Corel-Layer"/>
  <path class="fil0" d="M1311.67 350.366l0 127.999 127.999 0 0 -127.999 -127.999 0zm-223.827 127.999l127.999 0 0 -127.999 -127.999 0 0 127.999zm448.305 -127.999l0 127.999 127.999 0 0 -127.999 -127.999 0zm-1248.15 -94.3666l1472 0c17.6728,0 32.0008,14.328 32.0008,32.0008l0 288 -1536 0 0 -288c0,-17.6728 14.328,-32.0008 32.0008,-32.0008z"/>
  <path class="fil1" d="M1792 608.002l0 1152c0,17.6728 -14.328,32.0008 -32.0008,32.0008l-1472 0c-17.6728,0 -32.0008,-14.328 -32.0008,-32.0008l0 -1152 1536 0zm-1149.87 207.861l-16.539 0c-39.2044,0 -65.6965,7.50355 -79.4788,22.3571 -13.7823,14.8547 -20.674,45.4831 -20.674,92.0375l0 108.881c0,50.2288 -6.43229,86.0635 -19.448,107.503 -13.0169,21.5929 -35.9882,37.0595 -68.9127,46.7067 32.9244,9.18898 55.8957,24.5032 68.9127,46.0949 13.0158,21.4394 19.448,57.2741 19.448,107.656l0 108.269c0,46.4008 6.73819,77.028 20.2146,91.8827 13.4764,14.7012 38.8973,22.2047 76.2627,22.2047 2.1437,0 5.35985,-0.153543 9.95434,-0.458268 4.44095,-0.307087 7.81064,-0.459449 10.2602,-0.459449l0 47.6256 -21.1335 0c-58.8048,0 -98.7745,-10.8732 -119.447,-32.465 -20.8264,-21.5929 -31.2402,-66.0024 -31.2402,-132.773l0 -109.647c0,-46.0949 -8.57599,-78.5599 -25.5744,-97.3961 -13.0618,-14.4732 -33.3591,-23.4307 -60.75,-26.804l0 -48.8422c27.391,-3.37323 47.6882,-12.3295 60.75,-26.8028 16.9984,-18.9898 25.5744,-51.6083 25.5744,-97.7032l0 -109.034c0,-66.6166 10.4138,-111.18 31.3937,-133.231 20.9799,-22.2059 60.6414,-33.2315 119.294,-33.2315l21.1335 0 0 47.6268zm29.8713 184.336l736.001 0 0 64.0016 -736.001 0 0 -64.0016zm0 160.001l736.001 0 0 64.0016 -736.001 0 0 -64.0016zm733.87 -344.336l16.539 0c39.2044,0 65.6965,7.50355 79.4788,22.3571 13.7823,14.8547 20.674,45.4831 20.674,92.0375l0 108.881c0,50.2288 6.43229,86.0635 19.448,107.503 13.0169,21.5929 35.9882,37.0595 68.9127,46.7067 -32.9244,9.18898 -55.8957,24.5032 -68.9127,46.0949 -13.0158,21.4394 -19.448,57.2741 -19.448,107.656l0 108.269c0,46.4008 -6.73819,77.028 -20.2146,91.8827 -13.4764,14.7012 -38.8973,22.2047 -76.2627,22.2047 -2.1437,0 -5.35985,-0.153543 -9.95434,-0.458268 -4.44095,-0.307087 -7.81064,-0.459449 -10.2602,-0.459449l0 47.6256 21.1335 0c58.8048,0 98.7745,-10.8732 119.447,-32.465 20.8264,-21.5929 31.2402,-66.0024 31.2402,-132.773l0 -109.647c0,-46.0949 8.57599,-78.5599 25.5744,-97.3961 13.0618,-14.4732 33.3591,-23.4307 60.75,-26.804l0 -48.8422c-27.391,-3.37323 -47.6882,-12.3295 -60.75,-26.8028 -16.9984,-18.9898 -25.5744,-51.6083 -25.5744,-97.7032l0 -109.034c0,-66.6166 -10.4138,-111.18 -31.3937,-133.231 -20.9799,-22.2059 -60.6414,-33.2315 -119.294,-33.2315l-21.1335 0 0 47.6268zm-733.87 504.338l512 0 0 64.0016 -512 0 0 -64.0016z"/>
 </g>
 <rect class="fil2" width="2048" height="2048"/>
</svg>
