<?xml version="1.0" encoding="UTF-8"?>
<!DOCTYPE svg PUBLIC "-//W3C//DTD SVG 1.1//EN" "http://www.w3.org/Graphics/SVG/1.1/DTD/svg11.dtd">
<!-- Creator: CorelDRAW -->
<svg xmlns="http://www.w3.org/2000/svg" xml:space="preserve" width="2048px" height="2048px" style="shape-rendering:geometricPrecision; text-rendering:geometricPrecision; image-rendering:optimizeQuality; fill-rule:evenodd; clip-rule:evenodd"
viewBox="0 0 2048 2048"
 xmlns:xlink="http://www.w3.org/1999/xlink">
 <defs>
  <style type="text/css">
   <![CDATA[
    .fil2 {fill:none}
    .fil0 {fill:#424242}
    .fil1 {fill:#424242;fill-rule:nonzero}
   ]]>
  </style>
 </defs>
 <g id="Layer_x0020_1">
  <metadata id="CorelCorpID_0Corel-Layer"/>
  <g id="_487431128">
   <path id="_487431848" class="fil0" d="M282.429 558.272l261.572 0 0 64.0016 -229.571 0 0 651.808 1419.14 0 0 -651.808 -229.648 0 0 -64.0016 261.649 0c17.6728,0 32.0008,14.328 32.0008,32.0008l0 920.326c0,17.6728 -14.328,32.0008 -32.0008,32.0008l-1483.14 0c-17.6728,0 -32.0008,-14.328 -32.0008,-32.0008l0 -920.326c0,-17.6728 14.328,-32.0008 32.0008,-32.0008zm1216.15 815.48l62.8914 0 0 64.0016 -62.8914 0 0 -64.0016zm102.735 0l62.8914 0 0 64.0016 -62.8914 0 0 -64.0016z"/>
   <path id="_487431080" class="fil1" d="M1106.25 1510.6c0,-17.6728 -36.8256,-32.0008 -82.2485,-32.0008 -45.4229,0 -82.2485,14.328 -82.2485,32.0008l0 216.9c0,17.6728 36.8256,32.0008 82.2485,32.0008 45.4229,0 82.2485,-14.328 82.2485,-32.0008l0 -216.9z"/>
   <path id="_487431392" class="fil1" d="M705.35 1740.77c0,68.3091 637.301,68.3091 637.301,0 0,-68.3091 -637.301,-68.3091 -637.301,0z"/>
  </g>
  <g id="_487431584">
   <path id="_487431536" class="fil0" d="M603.942 256.077l545.425 0 0 322.555 322.555 0 0 292.407c-60.1689,46.4835 -120.338,92.9658 -180.507,139.449l-573.996 0 0 55.8827 501.659 0 -89.8087 69.3815c-2.15315,1.66299 -4.15985,3.36733 -6.02363,5.36693l-3.70276 3.97205 -2.24173 5.1 -399.883 0 0 55.8851 375.316 0 -13.9288 31.6866c-0.455906,1.03937 -0.754725,1.3689 -1.83189,4.87796l-1.64528 5.35867 -499.328 0 0 -963.981c0,-15.4311 12.5102,-27.9414 27.9414,-27.9414zm641.424 991.922c75.5186,-58.3406 151.037,-116.682 226.556,-175.023l0 175.023 -226.556 0zm-527.947 -516.923l613.082 0 0 55.8839 -613.082 0 0 -55.8839zm0 139.706l613.082 0 0 55.8839 -613.082 0 0 -55.8839zm0 -279.41l351.933 0 0 55.8827 -351.933 0 0 -55.8827z"/>
   <polygon id="_487431296" class="fil0" points="1177.31,255.998 1472,550.691 1177.31,550.691 "/>
  </g>
  <path class="fil0" d="M1146.65 1162.94l-38.5512 87.7016c-0.152362,0.344882 -0.38504,0.897638 -0.536221,1.39016l95.7154 -13.2933c0.592914,-0.0826772 1.57323,-0.22441 2.29606,-0.434646l287.76 -222.306 -58.1162 -76.1682 -286.388 221.247c-0.588189,0.455906 -1.57914,1.2189 -2.18032,1.86378zm370.134 -165.058l66.4985 -51.3721c0.641339,-0.496063 1.28858,-0.957875 1.94646,-1.41732l-57.1371 -73.9571c-0.498426,-0.644882 -0.962599,-1.29567 -1.42323,-1.95591l-68.0008 52.5343 58.1162 76.1682z"/>
 </g>
 <rect class="fil2" width="2048" height="2048"/>
</svg>
