<?xml version="1.0" encoding="UTF-8"?>
<!DOCTYPE svg PUBLIC "-//W3C//DTD SVG 1.1//EN" "http://www.w3.org/Graphics/SVG/1.1/DTD/svg11.dtd">
<!-- Creator: CorelDRAW -->
<svg xmlns="http://www.w3.org/2000/svg" xml:space="preserve" width="2048px" height="2048px" style="shape-rendering:geometricPrecision; text-rendering:geometricPrecision; image-rendering:optimizeQuality; fill-rule:evenodd; clip-rule:evenodd"
viewBox="0 0 2048 2048"
 xmlns:xlink="http://www.w3.org/1999/xlink">
 <defs>
  <style type="text/css">
   <![CDATA[
    .fil2 {fill:none}
    .fil0 {fill:#424242}
    .fil1 {fill:#424242;fill-rule:nonzero}
   ]]>
  </style>
 </defs>
 <g id="Layer_x0020_1">
  <metadata id="CorelCorpID_0Corel-Layer"/>
  <g id="_487434176">
   <path id="_487435136" class="fil0" d="M282.429 407.136l1483.14 0c17.6728,0 32.0008,14.328 32.0008,32.0008l0 920.326c0,17.6728 -14.328,32.0008 -32.0008,32.0008l-1483.14 0c-17.6728,0 -32.0008,-14.328 -32.0008,-32.0008l0 -920.326c0,-17.6728 14.328,-32.0008 32.0008,-32.0008zm1216.15 815.48l62.8914 0 0 64.0016 -62.8914 0 0 -64.0016zm102.735 0l62.8914 0 0 64.0016 -62.8914 0 0 -64.0016zm132.26 -751.478l-1419.14 0 0 651.808 1419.14 0 0 -651.808z"/>
   <path id="_487435616" class="fil1" d="M1106.25 1359.46c0,-17.6728 -36.8256,-32.0008 -82.2485,-32.0008 -45.4229,0 -82.2485,14.328 -82.2485,32.0008l0 216.9c0,17.6728 36.8256,32.0008 82.2485,32.0008 45.4229,0 82.2485,-14.328 82.2485,-32.0008l0 -216.9z"/>
   <path id="_487434344" class="fil1" d="M705.35 1589.63c0,68.3091 637.301,68.3091 637.301,0 0,-68.3091 -637.301,-68.3091 -637.301,0z"/>
  </g>
  <g id="_487434872">
   <polygon id="_487434152" class="fil1" points="684.158,828.592 565.167,892.797 565.167,865.077 659.398,815.761 565.167,766.868 565.167,739.201 684.158,802.614 "/>
   <polygon id="_487434728" class="fil1" points="380.339,828.592 380.339,802.614 499.329,739.201 499.329,766.868 404.973,815.761 499.329,865.077 499.329,892.797 "/>
  </g>
  <g id="_487434296">
   <path id="_487434560" class="fil1" d="M784 608.444c0,-8.83583 -7.16457,-16.0004 -16.0004,-16.0004 -8.83583,0 -16.0004,7.16457 -16.0004,16.0004l0 415.109c0,8.83583 7.16457,16.0004 16.0004,16.0004 8.83583,0 16.0004,-7.16457 16.0004,-16.0004l0 -415.109z"/>
   <path id="_487434320" class="fil1" d="M1296 608.444c0,-8.83583 -7.16457,-16.0004 -16.0004,-16.0004 -8.83583,0 -16.0004,7.16457 -16.0004,16.0004l0 415.109c0,8.83583 7.16457,16.0004 16.0004,16.0004 8.83583,0 16.0004,-7.16457 16.0004,-16.0004l0 -415.109z"/>
  </g>
  <g id="_487434080">
   <g>
    <path id="_487434824" class="fil1" d="M915.418 709.019l-4.70315 0c-11.1473,0 -18.6803,2.13425 -22.5992,6.35788 -3.9189,4.22363 -5.87835,12.9319 -5.87835,26.1697l0 30.9591c0,14.2831 -1.82835,24.4725 -5.52993,30.5681 -3.70158,6.13937 -10.2331,10.5378 -19.5945,13.2803 9.36142,2.61378 15.8929,6.96733 19.5945,13.1079 3.70158,6.09567 5.52993,16.2851 5.52993,30.6107l0 30.7855c0,13.1941 1.91575,21.9024 5.74843,26.126 3.8315,4.18111 11.0599,6.31418 21.6839,6.31418 0.61063,0 1.5248,-0.0437008 2.8311,-0.129921 1.2626,-0.0874016 2.22047,-0.131102 2.91733,-0.131102l0 13.5425 -6.00945 0c-16.7209,0 -28.0855,-3.09213 -33.9638,-9.2315 -5.92205,-6.13937 -8.88308,-18.7677 -8.88308,-37.7528l0 -31.1776c0,-13.1067 -2.43898,-22.3382 -7.27205,-27.6933 -3.71339,-4.11614 -9.48544,-6.6626 -17.2736,-7.62166l0 -13.8886c7.78819,-0.959056 13.5602,-3.50551 17.2736,-7.62048 4.83307,-5.4 7.27205,-14.6752 7.27205,-27.7819l0 -31.0028c0,-18.9414 2.96103,-31.6134 8.92678,-37.8827 5.96575,-6.31418 17.2429,-9.45001 33.9201,-9.45001l6.00945 0 0 13.5425z"/>
    <path id="_487433912" class="fil1" d="M1132.58 709.019l4.70197 0c11.1473,0 18.6803,2.13425 22.5992,6.35788 3.92008,4.22363 5.87953,12.9319 5.87953,26.1697l0 30.9591c0,14.2831 1.82835,24.4725 5.52993,30.5681 3.7004,6.13937 10.2319,10.5378 19.5945,13.2803 -9.36261,2.61378 -15.8941,6.96733 -19.5945,13.1079 -3.70158,6.09567 -5.52993,16.2851 -5.52993,30.6107l0 30.7855c0,13.1941 -1.91693,21.9024 -5.74843,26.126 -3.8315,4.18111 -11.0599,6.31418 -21.6851,6.31418 -0.609449,0 -1.52362,-0.0437008 -2.82992,-0.129921 -1.2626,-0.0874016 -2.22047,-0.131102 -2.91733,-0.131102l0 13.5425 6.00827 0c16.7209,0 28.0866,-3.09213 33.965,-9.2315 5.92205,-6.13937 8.88308,-18.7677 8.88308,-37.7528l0 -31.1776c0,-13.1067 2.4378,-22.3382 7.27087,-27.6933 3.71457,-4.11614 9.48544,-6.6626 17.2748,-7.62166l0 -13.8886c-7.78938,-0.959056 -13.5602,-3.50551 -17.2748,-7.62048 -4.83307,-5.4 -7.27087,-14.6752 -7.27087,-27.7819l0 -31.0028c0,-18.9414 -2.96103,-31.6134 -8.92678,-37.8827 -5.96575,-6.31418 -17.2429,-9.45001 -33.9213,-9.45001l-6.00827 0 0 13.5425z"/>
   </g>
   <g>
    <polygon id="_487433480" class="fil1" points="916.849,761.923 1126.13,761.923 1126.13,779.142 916.849,779.142 "/>
    <polygon id="_487433648" class="fil1" points="916.849,807.419 1126.13,807.419 1126.13,824.637 916.849,824.637 "/>
    <polygon id="_487433864" class="fil1" points="916.849,852.914 1062.43,852.914 1062.43,870.133 916.849,870.133 "/>
   </g>
  </g>
  <path class="fil0" d="M1484.95 776.501c1.37953,2.76614 2.78032,5.99174 4.17166,9.19843 3.14055,7.23308 6.23386,14.3587 8.61733,15.3662 2.43307,1.02992 9.88465,-1.96772 17.3162,-4.95709 4.37363,-1.75984 11.4602,-6.09686 15.6425,-1.97362 2.83583,2.29488 5.42835,4.61693 7.76694,6.95552 2.48268,2.48268 4.94764,5.25237 7.3819,8.29489l0.0248032 -0.0200788c1.48583,1.85788 1.7752,4.28622 0.972048,6.35434 -0.93189,2.67284 -2.16142,5.72835 -3.39095,8.78623 -2.98937,7.43268 -5.98583,14.8843 -4.95709,17.3173 1.00748,2.38229 8.13426,5.47678 15.3662,8.61615 4.24252,1.84134 12.7453,4.02638 13.1516,9.65906 0.596457,5.20748 3.29646,25.4906 -3.95315,28.5071 -2.76614,1.37835 -5.99056,2.77914 -9.19843,4.17166 -7.2319,3.13937 -14.3587,6.23386 -15.3662,8.61615 -1.02874,2.43307 1.96772,9.88465 4.95709,17.3162 1.26732,3.15 2.53347,6.29882 3.47481,9.02717l0.00354331 -0.0011811c0.823229,2.38937 0.157087,4.93111 -1.50354,6.61654 -4.03701,4.98898 -15.1205,18.6626 -21.5894,16.1445 -2.67166,-0.93189 -5.72599,-2.16024 -8.78268,-3.38977 -7.4315,-2.98819 -14.8831,-5.98583 -17.3162,-4.95709 -2.38347,1.00748 -5.47678,8.13426 -8.61733,15.3673 -1.84134,4.24252 -4.02638,12.7441 -9.65906,13.1504 -6.99095,0.801969 -25.6595,2.89016 -28.5059,-3.95197 -1.37953,-2.76732 -2.77914,-5.99174 -4.17166,-9.19843 -3.14055,-7.23308 -6.23386,-14.3599 -8.61733,-15.3673 -2.43307,-1.02874 -9.88347,1.9689 -17.315,4.95827 -3.15118,1.26614 -6.29882,2.53347 -9.02835,3.47362l0.0011811 0.00354331c-2.38937,0.823229 -4.93111,0.157087 -6.61654,-1.50354 -2.83583,-2.29488 -5.42835,-4.61811 -7.76694,-6.9567 -3.26929,-3.26811 -10.461,-9.27402 -8.37757,-14.6303 0.930709,-2.67284 2.16024,-5.72835 3.38977,-8.78623 2.98937,-7.4315 5.98583,-14.8819 4.95709,-17.315 -1.00748,-2.38229 -8.13426,-5.47678 -15.3662,-8.61615 -4.24252,-1.84252 -12.7453,-4.02638 -13.1516,-9.66024 -0.20315,-1.77165 -0.364961,-3.64252 -0.480709,-5.61142 -0.125197,-2.10709 -0.188977,-4.07717 -0.188977,-5.89725 0,-1.82008 0.0637796,-3.78898 0.188977,-5.89489 0.122835,-2.0811 0.296457,-4.05118 0.516142,-5.9126l-0.00590552 -0.0011811c0.282284,-2.3941 1.84488,-4.32402 3.92244,-5.18859 2.76732,-1.37953 5.99174,-2.77914 9.19961,-4.17166 7.2319,-3.13937 14.3587,-6.23386 15.3662,-8.61615 1.02874,-2.43307 -1.96772,-9.88465 -4.95709,-17.3162 -1.26732,-3.15 -2.53347,-6.29882 -3.47481,-9.02835l-0.00354331 0.00236221c-0.823229,-2.38937 -0.157087,-4.93111 1.50354,-6.61654 2.29488,-2.83583 4.61811,-5.42953 6.9567,-7.76812 3.26811,-3.26811 9.27402,-10.4599 14.6303,-8.37757 2.67402,0.93189 5.72835,2.16024 8.78623,3.39095 7.4315,2.98819 14.8819,5.98583 17.315,4.95709 2.38229,-1.00866 5.47678,-8.13426 8.61733,-15.3673 3.6,-8.29489 3.58819,-11.778 10.4882,-13.0961 6.25512,-1.19291 24.9957,-2.54646 27.6768,3.89764zm-16.9973 45.0142c13.8319,0 26.3563,5.6067 35.4213,14.6717 9.06497,9.06615 14.6728,21.5894 14.6728,35.4213 0,13.8319 -5.60788,26.3551 -14.6728,35.4201 -9.06497,9.06615 -21.5894,14.6728 -35.4213,14.6728 -13.8307,0 -26.3551,-5.6067 -35.4201,-14.6728 -9.06497,-9.06497 -14.6728,-21.5882 -14.6728,-35.4201 0,-13.8319 5.60788,-26.3551 14.6728,-35.4213 9.06497,-9.06497 21.5894,-14.6717 35.4201,-14.6717zm26.3232 23.7709c-6.73583,-6.73583 -16.0429,-10.9028 -26.3232,-10.9028 -10.2791,0 -19.5862,4.16693 -26.3221,10.9028 -6.73583,6.73583 -10.9016,16.0417 -10.9016,26.3221 0,10.2791 4.16575,19.5862 10.9016,26.3221 6.73583,6.73583 16.0429,10.9028 26.3221,10.9028 10.2803,0 19.5874,-4.16693 26.3232,-10.9028 6.73583,-6.73583 10.9016,-16.0429 10.9016,-26.3221 0,-10.2803 -4.16575,-19.5862 -10.9016,-26.3221zm-26.3232 2.11654c6.68386,0 12.7358,2.70945 17.1165,7.09016 4.38071,4.38071 7.09016,10.4327 7.09016,17.1154 0,6.68268 -2.70945,12.7347 -7.09016,17.1154 -4.38071,4.38071 -10.4327,7.09016 -17.1165,7.09016 -6.68268,0 -12.7347,-2.70945 -17.1154,-7.09016 -4.38071,-4.38071 -7.09016,-10.4327 -7.09016,-17.1154 0,-6.68268 2.70945,-12.7347 7.09016,-17.1154 4.38071,-4.38071 10.4327,-7.09016 17.1154,-7.09016zm8.01733 16.1882c-2.0504,-2.05158 -4.88622,-3.32008 -8.01733,-3.32008 -3.1311,0 -5.96575,1.2685 -8.01615,3.32008 -2.05158,2.05158 -3.32008,4.88622 -3.32008,8.01733 0,3.1311 1.2685,5.96575 3.32008,8.01733 2.0504,2.0504 4.88504,3.32008 8.01615,3.32008 3.1311,0 5.96693,-1.26969 8.01733,-3.32008 2.05158,-2.05158 3.32008,-4.88622 3.32008,-8.01733 0,-3.1311 -1.2685,-5.96575 -3.32008,-8.01733z"/>
  <path class="fil0" d="M1537.45 676.58c-5.5004,5.5004 -8.90079,13.0961 -8.90079,21.4866 0,8.39292 3.4004,15.9898 8.90079,21.489 0.408662,0.411024 0.830316,0.805512 1.26024,1.19055 -0.745276,0.53504 -1.48465,1.0937 -2.21811,1.67599 -3.44292,2.73189 -6.7878,5.99882 -9.93426,9.62245l-34.891 -24.2197c-3.24449,-2.54292 -7.24607,-1.11024 -8.65631,-0.229134l-17.7425 13.4268c-2.26654,1.13268 -3.18544,3.88937 -2.05158,6.15355 1.13268,2.26654 3.88937,3.18544 6.15473,2.05158l17.1602 -5.84882 30.7252 21.326c-1.07244,1.72559 -2.09291,3.48071 -3.04961,5.24764 -5.67166,10.4551 -9.36379,21.6862 -9.63544,31.1859l0.715749 1.70079c1.42087,-0.582284 2.75551,-1.15158 3.80315,-1.57323 2.1189,-0.852757 4.12087,-1.84843 6.29056,-2.64685 8.99883,-3.31063 18.5043,-3.09803 25.9855,3.58701 2.01024,1.79646 4.06772,3.51496 6.05552,5.32559l0.89882 -0.72756 10.0524 12.5693c4.93229,6.16654 6.21378,14.4839 3.49016,21.8764 -1.13858,3.09213 -2.33032,6.1689 -3.55985,9.2256 -0.421654,1.04882 -0.990946,2.38465 -1.57441,3.8067 1.30512,0.552756 2.53937,1.06063 3.51024,1.4811 2.28307,0.990946 4.59213,1.76102 6.87875,2.83465 5.24056,2.46142 9.7819,5.92205 12.6602,10.5343 0.677953,-1.31457 1.36299,-2.68465 2.0563,-4.11969l0.498426 -1.02992 26.7697 20.2004 -0.00472441 0.00944883c2.74016,2.06811 6.39449,2.07284 9.10158,0.276378l15.2835 -11.2299c2.25473,-1.22953 3.08504,-4.05118 1.85906,-6.30473 -1.22717,-2.25355 -4.05,-3.0874 -6.30355,-1.85906l-14.4921 3.50788 -25.0736 -18.9189c3.85158,-7.35709 8.34331,-15.2114 13.6807,-22.898l27.7618 20.9445 -0.00708662 0.0129921c2.74252,2.06811 6.4004,2.07402 9.10631,0.274016l12.0118 -9.83741c2.07874,-1.1315 2.84646,-3.73465 1.71378,-5.81221 -1.1315,-2.07756 -3.73347,-2.84528 -5.80985,-1.71378l-11.5724 1.47992 -24.3508 -18.3732c1.44213,-3.44528 2.11063,-7.3252 2.11063,-11.485 0,-9.72875 -3.75591,-21.4347 -9.65198,-32.3032 -0.955513,-1.76693 -1.97717,-3.52205 -3.04961,-5.24764l30.7264 -21.326 17.1602 5.84882c2.26536,1.13386 5.02087,0.214961 6.15473,-2.05158 1.13268,-2.26417 0.21378,-5.02087 -2.05276,-6.15355l-17.7425 -13.4268c-1.41024,-0.881103 -5.41182,-2.31378 -8.65512,0.229134l-34.8922 24.2197c-3.14528,-3.62362 -6.49016,-6.89056 -9.93308,-9.62245 -0.733465,-0.582284 -1.47284,-1.14095 -2.21929,-1.67599 0.429922,-0.38504 0.851575,-0.779528 1.26142,-1.19055 5.49922,-5.49922 8.90079,-13.0961 8.90079,-21.489 0,-8.39056 -3.40158,-15.9862 -8.90079,-21.4866 -11.8913,-11.8878 -31.8839,-11.8878 -43.774,0z"/>
 </g>
 <rect class="fil2" width="2048" height="2048"/>
</svg>
