<?xml version="1.0" encoding="UTF-8"?>
<!DOCTYPE svg PUBLIC "-//W3C//DTD SVG 1.1//EN" "http://www.w3.org/Graphics/SVG/1.1/DTD/svg11.dtd">
<!-- Creator: CorelDRAW -->
<svg xmlns="http://www.w3.org/2000/svg" xml:space="preserve" width="2048px" height="2048px" style="shape-rendering:geometricPrecision; text-rendering:geometricPrecision; image-rendering:optimizeQuality; fill-rule:evenodd; clip-rule:evenodd"
viewBox="0 0 2048 2048"
 xmlns:xlink="http://www.w3.org/1999/xlink">
 <defs>
  <style type="text/css">
   <![CDATA[
    .fil2 {fill:none}
    .fil1 {fill:#424242}
    .fil0 {fill:#424242;fill-rule:nonzero}
   ]]>
  </style>
 </defs>
 <g id="Layer_x0020_1">
  <metadata id="CorelCorpID_0Corel-Layer"/>
  <g id="_487435280">
   <path id="_487435664" class="fil0" d="M784.365 700.589l920.413 0c24.7016,0 47.1355,10.0831 63.3804,26.3256 16.2425,16.2425 26.3256,38.6788 26.3256,63.3804l0 199.528c0,24.7016 -10.0831,47.1378 -26.3256,63.3804 -16.2437,16.2437 -38.6788,26.3268 -63.3804,26.3268l-920.413 0c-24.7016,0 -47.1367,-10.0831 -63.3804,-26.3268 -16.2425,-16.2425 -26.3256,-38.6788 -26.3256,-63.3804l0 -199.528c0,-24.7016 10.0831,-47.1378 26.3256,-63.3804 16.2449,-16.2425 38.6788,-26.3256 63.3804,-26.3256zm753.426 157.469c-17.6728,0 -32.0008,14.328 -32.0008,32.0008 0,17.6728 14.328,32.0008 32.0008,32.0008l84.2599 0c17.6728,0 32.0008,-14.328 32.0008,-32.0008 0,-17.6728 -14.328,-32.0008 -32.0008,-32.0008l-84.2599 0z"/>
   <path id="_487436288" class="fil0" d="M858.109 1112.01l846.668 0c24.7016,0 47.1355,10.0831 63.3804,26.3256 16.2425,16.2425 26.3256,38.6788 26.3256,63.3804l0 199.528c0,24.7016 -10.0831,47.1378 -26.3256,63.3804 -16.2437,16.2437 -38.6788,26.3268 -63.3804,26.3268l-742.012 0c39.4713,-23.6362 31.0996,-91.5355 27.4689,-130.459 -2.33622,-25.0347 -20.5819,-40.8048 -42.0284,-50.8796 -7.84961,-3.6874 -15.8516,-6.33426 -23.7189,-9.75001 -7.14095,-3.1004 -22.9465,-9.48662 -33.6544,-15.1476 3.69922,-11.8524 10.7185,-28.1232 13.6902,-35.5111 4.26969,-10.6158 8.40473,-21.2965 12.3602,-32.0327 6.6626,-18.0862 3.62008,-38.4532 -8.48268,-53.5831l-19.989 -24.991 -1.05 0.838583c-2.4874,-2.64685 -5.01496,-5.25709 -7.58386,-7.82599 -6.90119,-6.90237 -14.3091,-13.2177 -21.6685,-19.6004zm679.681 157.469c-17.6728,0 -32.0008,14.328 -32.0008,32.0008 0,17.6728 14.328,32.0008 32.0008,32.0008l84.2599 0c17.6728,0 32.0008,-14.328 32.0008,-32.0008 0,-17.6728 -14.328,-32.0008 -32.0008,-32.0008l-84.2599 0z"/>
   <path id="_487436168" class="fil0" d="M784.365 289.162l920.413 0c24.7016,0 47.1355,10.0831 63.3804,26.3256 16.2425,16.2449 26.3256,38.6788 26.3256,63.3804l0 199.53c0,24.7016 -10.0831,47.1367 -26.3256,63.3792 -16.2437,16.2437 -38.6788,26.3268 -63.3804,26.3268l-920.413 0c-24.7016,0 -47.1367,-10.0831 -63.3804,-26.3268 -16.2425,-16.2425 -26.3256,-38.6776 -26.3256,-63.3792l0 -199.53c0,-24.7016 10.0831,-47.1355 26.3256,-63.3804 16.2449,-16.2425 38.6788,-26.3256 63.3804,-26.3256zm753.426 157.469c-17.6728,0 -32.0008,14.328 -32.0008,32.0008 0,17.6728 14.328,32.0008 32.0008,32.0008l84.2599 0c17.6728,0 32.0008,-14.328 32.0008,-32.0008 0,-17.6728 -14.328,-32.0008 -32.0008,-32.0008l-84.2599 0z"/>
   <path id="_487435976" class="fil1" d="M667.401 1067.05c4.88977,9.81024 9.85394,21.2433 14.791,32.615 11.1331,25.6453 22.1043,50.9138 30.5516,54.4867 8.62678,3.64843 35.0492,-6.97914 61.3997,-17.5784 15.5091,-6.23859 40.6347,-21.6177 55.4658,-6.99922 10.0547,8.13662 19.2484,16.3713 27.541,24.6638 8.80276,8.80394 17.5441,18.6236 26.1732,29.4107l0.0885827 -0.0708662c5.2689,6.58701 6.2941,15.1984 3.4441,22.5331 -3.30236,9.47599 -7.66064,20.3114 -12.0213,31.154 -10.5992,26.3504 -21.2268,52.7729 -17.5784,61.3997 3.57284,8.44725 28.8425,19.4185 54.4878,30.5528 15.0425,6.53032 45.1902,14.276 46.6288,34.2496 2.11654,18.463 11.6882,90.3804 -14.0138,101.076 -9.81024,4.88977 -21.2445,9.85513 -32.615,14.791 -25.6453,11.1343 -50.9138,22.1055 -54.4867,30.5528 -3.64843,8.62678 6.97914,35.0469 17.5772,61.3973 4.4941,11.1709 8.98347,22.3335 12.3189,32.0114l0.0129921 -0.00590552c2.91851,8.47205 0.558662,17.4851 -5.3315,23.4603 -14.3138,17.6882 -53.6103,66.1725 -76.5508,57.2434 -9.47245,-3.30118 -20.3032,-7.65827 -31.141,-12.0165 -26.3504,-10.598 -52.7729,-21.2256 -61.3997,-17.5772 -8.44725,3.57284 -19.4185,28.8414 -30.5516,54.4867 -6.53032,15.0425 -14.276,45.1902 -34.2496,46.6288 -24.7878,2.84292 -90.9816,10.2508 -101.076,-14.0126 -4.88977,-9.81024 -9.85513,-21.2433 -14.7921,-32.6173 -11.1331,-25.6441 -22.1043,-50.9126 -30.5516,-54.4855 -8.62678,-3.64843 -35.0481,6.97914 -61.3985,17.5784 -11.1709,4.49292 -22.3335,8.98229 -32.0103,12.3177l0.00472441 0.0141732c-8.47205,2.91733 -17.4839,0.557481 -23.4603,-5.33268 -10.0547,-8.13662 -19.2496,-16.3725 -27.5421,-24.665 -11.589,-11.5878 -37.089,-32.8831 -29.7047,-51.8764 3.30236,-9.47835 7.66182,-20.3126 12.0225,-31.1551 10.598,-26.3481 21.2232,-52.767 17.576,-61.3937 -3.57284,-8.44725 -28.8425,-19.4185 -54.4878,-30.5528 -15.0425,-6.53032 -45.1902,-14.276 -46.6276,-34.2496 -0.721654,-6.28465 -1.29449,-12.9154 -1.70788,-19.9004 -0.441733,-7.4693 -0.669686,-14.452 -0.669686,-20.9079 0,-6.45473 0.227953,-13.435 0.669686,-20.9032 0.437008,-7.37953 1.05118,-14.3622 1.83071,-20.9646l-0.0212599 -0.00236221c1.00158,-8.48741 6.54449,-15.3331 13.9099,-18.398 9.81024,-4.88977 21.2433,-9.85394 32.6173,-14.7921 25.6441,-11.1331 50.9138,-22.1043 54.4855,-30.5516 3.64843,-8.62678 -6.97914,-35.0469 -17.5772,-61.3973 -4.4941,-11.1709 -8.98465,-22.3347 -12.3189,-32.0103l-0.0129921 0.00472441c-2.91851,-8.47205 -0.558662,-17.4851 5.3315,-23.4603 8.13662,-10.0547 16.3725,-19.2496 24.665,-27.5433 11.589,-11.5878 32.8831,-37.089 51.8776,-29.7036 9.47835,3.30236 20.3114,7.66064 31.154,12.0213 26.3492,10.598 52.7682,21.2244 61.3937,17.5772 8.44725,-3.57284 19.4197,-28.8425 30.5528,-54.4878 12.7677,-29.413 12.7264,-41.7603 37.1918,-46.4327 22.1776,-4.23307 88.6276,-9.02953 98.1355,13.8177zm-60.2682 159.608c49.0441,0 93.4489,19.8815 125.593,52.0252 32.1437,32.1425 52.0252,76.5473 52.0252,125.593 0,49.0441 -19.8815,93.4489 -52.0252,125.593 -32.1437,32.1425 -76.5485,52.0252 -125.593,52.0252 -49.0441,0 -93.4489,-19.8827 -125.593,-52.0252 -32.1437,-32.1437 -52.0252,-76.5485 -52.0252,-125.593 0,-49.0453 19.8815,-93.4501 52.0252,-125.593 32.1437,-32.1437 76.5485,-52.0252 125.593,-52.0252zm93.332 84.2859c-23.8843,-23.8843 -56.8819,-38.6575 -93.332,-38.6575 -36.45,0 -69.4477,14.7732 -93.332,38.6575 -23.8843,23.8831 -38.6563,56.8819 -38.6563,93.332 0,36.4488 14.7721,69.4477 38.6563,93.332 23.8843,23.8831 56.8819,38.6563 93.332,38.6563 36.45,0 69.4477,-14.7732 93.332,-38.6563 23.8843,-23.8843 38.6575,-56.8831 38.6575,-93.332 0,-36.45 -14.7732,-69.4489 -38.6575,-93.332zm-93.332 7.50355c23.6965,0 45.1548,9.60828 60.6874,25.141 15.5327,15.5315 25.1398,36.991 25.1398,60.6874 0,23.6977 -9.60709,45.1548 -25.1398,60.6874 -15.5327,15.5315 -36.991,25.1398 -60.6874,25.1398 -23.6977,0 -45.1548,-9.60828 -60.6874,-25.1398 -15.5327,-15.5327 -25.1398,-36.9898 -25.1398,-60.6874 0,-23.6965 9.60709,-45.1559 25.1398,-60.6874 15.5327,-15.5327 36.9898,-25.141 60.6874,-25.141zm28.4268 57.4016c-7.27323,-7.27323 -17.3256,-11.7721 -28.4268,-11.7721 -11.1036,0 -21.1536,4.49882 -28.4268,11.7721 -7.27323,7.27205 -11.7721,17.3244 -11.7721,28.4268 0,11.1024 4.49882,21.1536 11.7721,28.4268 7.27323,7.27205 17.3232,11.7709 28.4268,11.7709 11.1012,0 21.1536,-4.49882 28.4268,-11.7709 7.27323,-7.27323 11.7721,-17.3244 11.7721,-28.4268 0,-11.1024 -4.49882,-21.1547 -11.7721,-28.4268z"/>
  </g>
 </g>
 <rect class="fil2" width="2048" height="2048"/>
</svg>
