<?xml version="1.0" encoding="UTF-8"?>
<!DOCTYPE svg PUBLIC "-//W3C//DTD SVG 1.1//EN" "http://www.w3.org/Graphics/SVG/1.1/DTD/svg11.dtd">
<!-- Creator: CorelDRAW -->
<svg xmlns="http://www.w3.org/2000/svg" xml:space="preserve" width="2048px" height="2048px" style="shape-rendering:geometricPrecision; text-rendering:geometricPrecision; image-rendering:optimizeQuality; fill-rule:evenodd; clip-rule:evenodd"
viewBox="0 0 2048 2048"
 xmlns:xlink="http://www.w3.org/1999/xlink">
 <defs>
  <style type="text/css">
   <![CDATA[
    .fil2 {fill:none}
    .fil0 {fill:#424242}
    .fil1 {fill:#424242;fill-rule:nonzero}
   ]]>
  </style>
 </defs>
 <g id="Layer_x0020_1">
  <metadata id="CorelCorpID_0Corel-Layer"/>
  <g id="_487436432">
   <path id="_487437368" class="fil0" d="M1118.61 776.436l466.213 0c18.7937,0 35.8559,7.663 48.1996,20.0103 12.3473,12.3437 20.0103,29.4047 20.0103,48.2008l0 68.8453 -35.5866 0 0 -57.4087 -531.462 0 0 444.26 381.802 0 0 90.8292c0,18.3437 5.88189,36.0083 16.6016,50.5819l-365.778 0c-18.7937,0 -35.8536,-7.66654 -48.202,-20.0103 -12.3425,-12.3473 -20.0091,-29.4083 -20.0091,-48.202l0 -528.896c0,-18.7914 7.66418,-35.8559 20.0091,-48.2008 12.3484,-12.3437 29.4083,-20.0103 48.202,-20.0103zm233.104 555.963c15.9248,0 28.8378,12.9118 28.8378,28.8378 0,15.926 -12.913,28.8343 -28.8378,28.8343 -15.9248,0 -28.8343,-12.9083 -28.8343,-28.8343 0,-15.926 12.9095,-28.8378 28.8343,-28.8378zm-42.3366 -523.635c-6.06024,0 -10.9736,4.91457 -10.9736,10.976 0,6.05906 4.91339,10.9736 10.9736,10.9736l84.6768 0c6.06024,0 10.9748,-4.91457 10.9748,-10.9736 0,-6.06142 -4.91457,-10.976 -10.9748,-10.976l-84.6768 0z"/>
   <path id="_487437896" class="fil0" d="M1553.28 948.401l188.137 0c13.937,0 26.5878,5.68229 35.7414,14.8382 9.15591,9.15355 14.8382,21.8043 14.8382,35.7425l0 392.191c0,13.9358 -5.68229,26.5878 -14.8382,35.7437 -9.15473,9.15473 -21.8043,14.8382 -35.7414,14.8382l-188.137 0c-13.9358,0 -26.5878,-5.68465 -35.7437,-14.8382 -9.15237,-9.15591 -14.837,-21.8079 -14.837,-35.7437l0 -392.191c0,-13.9347 5.68347,-26.589 14.837,-35.7425 9.15591,-9.15355 21.8079,-14.8382 35.7437,-14.8382zm69.4111 27.4654c-3.53032,0 -6.39213,2.86181 -6.39213,6.39095 0,3.53032 2.86181,6.39213 6.39213,6.39213l49.3134 0c3.52914,0 6.39095,-2.86181 6.39095,-6.39213 0,-3.52914 -2.86181,-6.39095 -6.39095,-6.39095l-49.3134 0zm24.6555 384.799c11.8075,0 21.3839,9.57402 21.3839,21.3827 0,11.8099 -9.57639,21.3827 -21.3839,21.3827 -11.8075,0 -21.3815,-9.57284 -21.3815,-21.3827 0,-11.8087 9.57402,-21.3827 21.3815,-21.3827zm118.26 -353.204l-236.521 0 0 329.432 236.521 0 0 -329.432z"/>
   <g>
    <path id="_487436624" class="fil0" d="M278.026 599.31l1021.11 0c12.1677,0 22.0311,9.86457 22.0311,22.0323l0 120.186 -44.0622 0 0 -98.1544 -977.042 0 0 448.755 715.436 0 0 184.865 -737.468 0c-12.1665,0 -22.0311,-9.86457 -22.0311,-22.0299l0 -633.622c0,-12.1677 9.86457,-22.0323 22.0311,-22.0323z"/>
    <path id="_487436696" class="fil1" d="M845.206 1254.96c0,-12.1689 -25.3536,-22.0323 -56.6268,-22.0323 -31.2733,0 -56.6268,9.86339 -56.6268,22.0323l0 149.329c0,12.1677 25.3536,22.0311 56.6268,22.0311 31.2733,0 56.6268,-9.86339 56.6268,-22.0311l0 -149.329z"/>
    <path id="_487436816" class="fil1" d="M569.197 1413.43c0,47.0292 438.765,47.0292 438.765,0 0,-47.0292 -438.765,-47.0292 -438.765,0z"/>
   </g>
  </g>
 </g>
 <rect class="fil2" width="2048" height="2048"/>
</svg>
