<?xml version="1.0" encoding="UTF-8"?>
<!DOCTYPE svg PUBLIC "-//W3C//DTD SVG 1.1//EN" "http://www.w3.org/Graphics/SVG/1.1/DTD/svg11.dtd">
<!-- Creator: CorelDRAW -->
<svg xmlns="http://www.w3.org/2000/svg" xml:space="preserve" width="2048px" height="2048px" style="shape-rendering:geometricPrecision; text-rendering:geometricPrecision; image-rendering:optimizeQuality; fill-rule:evenodd; clip-rule:evenodd"
viewBox="0 0 2048 2048"
 xmlns:xlink="http://www.w3.org/1999/xlink">
 <defs>
  <style type="text/css">
   <![CDATA[
    .fil1 {fill:none}
    .fil0 {fill:#424242}
   ]]>
  </style>
 </defs>
 <g id="Layer_x0020_1">
  <metadata id="CorelCorpID_0Corel-Layer"/>
  <g id="_487438712">
   <path id="_487438112" class="fil0" d="M1331.48 1250.69l0 455.484c0,23.6315 -9.64961,45.0992 -25.1894,60.6378 -15.5386,15.5398 -37.004,25.1894 -60.6378,25.1894l-753.585 0c-23.6339,0 -45.0981,-9.64725 -60.6402,-25.187 -15.5398,-15.5421 -25.187,-37.0063 -25.187,-60.6402l0 -1364.35c0,-23.6339 9.64725,-45.0981 25.187,-60.6402 15.5421,-15.5398 37.0063,-25.187 60.6402,-25.187l753.585 0c23.6339,0 45.0992,9.64725 60.639,25.187 15.541,15.541 25.1882,37.0075 25.1882,60.6402l0 200.406c0,0.592914 -0.0165354,1.18228 -0.0484252,1.76693l-63.9048 0c-0.0318898,-0.584646 -0.0484252,-1.17402 -0.0484252,-1.76693l0 -49.6571c0,-5.96693 -2.46614,-11.4189 -6.43701,-15.3898 -3.96969,-3.96969 -9.42048,-6.43583 -15.3886,-6.43583l-753.585 0c-5.96811,0 -11.4189,2.46496 -15.3898,6.43583 -3.97087,3.97087 -6.43583,9.42166 -6.43583,15.3898l0 997.974c0,5.96811 2.46496,11.4189 6.43583,15.3898 3.97087,3.97087 9.42166,6.43583 15.3898,6.43583l753.585 0c5.96575,0 11.4165,-2.46614 15.3874,-6.43819 3.97205,-3.97087 6.43819,-9.42166 6.43819,-15.3874l0 -239.858 64.0016 0zm-462.619 325.282c29.2996,0 53.054,23.7532 53.054,53.0528 0,29.2996 -23.7543,53.0552 -53.054,53.0552 -29.2996,0 -53.054,-23.7555 -53.054,-53.0552 0,-29.2996 23.7543,-53.0528 53.054,-53.0528zm-76.9961 -1207.97c-13.2543,0 -24,10.7457 -24,24 0,13.2543 10.7457,24 24,24l153.992 0c13.2543,0 24,-10.7457 24,-24 0,-13.2543 -10.7457,-24 -24,-24l-153.992 0z"/>
   <path id="_487438520" class="fil0" d="M868.883 881.287c3.72402,7.4693 7.50355,16.1752 11.2618,24.8327 8.47678,19.526 16.8295,38.765 23.2618,41.4851 6.56812,2.77795 26.6847,-5.31378 46.7481,-13.3831 11.8087,-4.7504 30.9378,-16.4599 42.2303,-5.32914 7.65591,6.19489 14.6551,12.4654 20.9693,18.7784 6.70276,6.70276 13.3571,14.1803 19.9276,22.3925l0.0673229 -0.0543308c4.01221,5.01496 4.79292,11.5724 2.62323,17.1567 -2.51457,7.21418 -5.83347,15.4642 -9.15355,23.7201 -8.0693,20.0634 -16.161,40.18 -13.3831,46.7481 2.72008,6.43229 21.9591,14.7862 41.4851,23.263 11.4532,4.97126 34.4079,10.8697 35.5028,26.0764 1.61102,14.0575 8.89843,68.8146 -10.6701,76.9583 -7.4693,3.72284 -16.1752,7.50355 -24.8327,11.2618 -19.526,8.47678 -38.7638,16.8307 -41.4851,23.2606 -2.77795,6.5693 5.31378,26.6858 13.3843,46.7481 3.42048,8.50512 6.83859,17.0043 9.37796,24.3721l0.0106299 -0.00354331c2.22166,6.45 0.425197,13.3122 -4.05945,17.8618 -10.898,13.4669 -40.8177,50.3823 -58.2839,43.5839 -7.213,-2.51339 -15.4595,-5.83111 -23.7106,-9.14883 -20.0634,-8.0693 -40.18,-16.161 -46.7481,-13.3831 -6.43229,2.72008 -14.7851,21.9591 -23.2618,41.4851 -4.97244,11.4532 -10.8697,34.4067 -26.0764,35.5016 -18.8728,2.16496 -69.2717,7.80473 -76.9583,-10.6689 -3.72284,-7.4693 -7.50237,-16.174 -11.2618,-24.8339 -8.47678,-19.5248 -16.8295,-38.7638 -23.2618,-41.4839 -6.56812,-2.77795 -26.6847,5.31378 -46.7469,13.3831 -8.50512,3.42166 -17.0043,6.83977 -24.3721,9.37914l0.00354331 0.0106299c-6.45,2.22166 -13.3122,0.425197 -17.8618,-4.05945 -7.65591,-6.19607 -14.6563,-12.4665 -20.9705,-18.7807 -8.82402,-8.82284 -28.239,-25.0358 -22.6169,-39.4973 2.51457,-7.21654 5.83347,-15.4654 9.15355,-23.7201 8.0693,-20.0622 16.1599,-40.1764 13.3819,-46.7445 -2.72008,-6.43111 -21.9591,-14.7851 -41.4851,-23.2618 -11.4532,-4.97244 -34.4079,-10.8697 -35.5028,-26.0776 -0.548032,-4.78465 -0.98504,-9.83387 -1.29921,-15.1512 -0.336614,-5.68819 -0.510237,-11.0043 -0.510237,-15.9201 0,-4.91457 0.173622,-10.2295 0.510237,-15.9154 0.33189,-5.61733 0.800788,-10.9347 1.3937,-15.9614l-0.0165354 -0.0011811c0.762993,-6.463 4.98307,-11.674 10.591,-14.0079 7.4693,-3.72284 16.174,-7.50355 24.8339,-11.263 19.526,-8.4756 38.765,-16.8295 41.4851,-23.2606 2.77795,-6.5693 -5.31378,-26.6847 -13.3843,-46.7481 -3.42048,-8.50512 -6.83977,-17.0043 -9.37796,-24.3721l-0.0106299 0.00354331c-2.22166,-6.45 -0.425197,-13.3122 4.05945,-17.8618 6.19489,-7.65591 12.4654,-14.6563 18.7795,-20.9705 8.82284,-8.82284 25.037,-28.239 39.4985,-22.6158 7.21654,2.51457 15.4654,5.83229 23.7201,9.15355 20.061,8.06812 40.1764,16.1587 46.7445,13.3819 6.43111,-2.72008 14.7851,-21.9603 23.2618,-41.4863 9.72048,-22.3937 9.68977,-31.7953 28.317,-35.3528 16.8851,-3.22323 67.4788,-6.8752 74.7178,10.5201zm-45.8859 121.523c37.3406,0 71.1497,15.1382 95.6233,39.6118 24.4736,24.4736 39.6107,58.2815 39.6107,95.6233 0,37.3418 -15.137,71.1508 -39.6107,95.6233 -24.4736,24.4736 -58.2827,39.6118 -95.6233,39.6118 -37.3418,0 -71.1508,-15.1382 -95.6245,-39.6118 -24.4736,-24.4725 -39.6107,-58.2815 -39.6107,-95.6233 0,-37.3418 15.137,-71.1497 39.6107,-95.6233 24.4736,-24.4736 58.2827,-39.6118 95.6245,-39.6118zm71.0611 64.1741c-18.1854,-18.1843 -43.3099,-29.4331 -71.0611,-29.4331 -27.7524,0 -52.8768,11.2488 -71.0623,29.4331 -18.1843,18.1843 -29.4319,43.3087 -29.4319,71.0611 0,27.7524 11.2476,52.8768 29.4319,71.0611 18.1854,18.1854 43.3099,29.4331 71.0623,29.4331 27.7512,0 52.8756,-11.2476 71.0611,-29.4331 18.1843,-18.1843 29.4319,-43.3087 29.4319,-71.0611 0,-27.7524 -11.2476,-52.8768 -29.4319,-71.0611zm-71.0611 5.71418c18.0414,0 34.3796,7.31457 46.2059,19.141 11.8252,11.8264 19.141,28.1646 19.141,46.2059 0,18.0437 -7.31575,34.3807 -19.141,46.2059 -11.8264,11.8264 -28.1646,19.1421 -46.2059,19.1421 -18.0437,0 -34.3807,-7.31575 -46.2071,-19.1421 -11.8252,-11.8252 -19.141,-28.1622 -19.141,-46.2059 0,-18.0414 7.31575,-34.3796 19.141,-46.2059 11.8264,-11.8264 28.1634,-19.141 46.2071,-19.141zm21.6425 43.7032c-5.53701,-5.53701 -13.1906,-8.96221 -21.6425,-8.96221 -8.45434,0 -16.1067,3.4252 -21.6437,8.96221 -5.53819,5.53701 -8.96339,13.1917 -8.96339,21.6437 0,8.45434 3.4252,16.1067 8.96339,21.6437 5.53701,5.53701 13.1894,8.96339 21.6437,8.96339 8.45198,0 16.1055,-3.42638 21.6425,-8.96339 5.53819,-5.53701 8.96339,-13.1894 8.96339,-21.6437 0,-8.45198 -3.4252,-16.1067 -8.96339,-21.6437z"/>
   <path id="_487438400" class="fil0" d="M1641.76 747.167l0 458.779c0,7.03819 -6.96733,12.7441 -15.561,12.7441l-581.68 0c6.90827,-3.17126 13.9618,-6.1063 17.3197,-7.56379 8.44016,-3.66496 16.7622,-7.57323 25.1315,-11.3941 30.3012,-13.839 23.2725,-67.3075 20.7484,-94.3725 -1.53307,-16.4327 -14.041,-26.4957 -28.0087,-33.0579 -5.90434,-2.77441 -11.948,-4.76693 -17.8713,-7.33819 -5.87717,-2.55236 -23.0811,-9.63072 -31.0028,-14.5807 2.16142,-9.26339 9.65788,-26.9492 12.098,-33.0154 3.22559,-8.01851 6.34961,-16.0878 9.3378,-24.1984 4.22835,-11.478 2.32795,-24.4016 -5.35748,-34.0099l-10.852 -13.565 -0.438189 0.350788c-3.23504,-3.60709 -6.56221,-7.1315 -9.98741,-10.5567 -6.87048,-6.87048 -14.439,-12.9803 -21.678,-19.448 -12.8055,-11.4437 -28.9382,-10.252 -44.0292,-4.69961 -5.57953,2.05158 -10.7835,4.66418 -16.2567,6.86575 -6.06615,2.44016 -23.752,9.93662 -33.0154,12.098 -4.95,-7.92166 -12.0284,-25.1244 -14.5795,-31.0016 -3.66378,-8.44016 -7.57205,-16.7634 -11.3941,-25.1315 -8.94922,-19.5969 -35.8512,-22.8437 -54.8032,-23.2536 -12.4654,-0.269292 -26.6953,0.542126 -38.9729,2.88662 -28.3311,5.40945 -31.0583,22.6146 -40.9926,45.4985 -2.55118,5.87717 -9.63072,23.0811 -14.5795,31.0028 -9.26221,-2.16142 -26.9457,-9.65788 -33.0118,-12.098 -8.01851,-3.22441 -16.0866,-6.34843 -24.1961,-9.33662 -12.3532,-4.55197 -24.176,-0.955513 -34.4516,5.70119l0 -167.306 998.084 0zm-233.571 -125.282l0 62.243 62.243 0 0 -62.243 -62.243 0zm-108.841 62.243l62.243 0 0 -62.243 -62.243 0 0 62.243zm217.999 -62.243l0 62.243 62.2418 0 0 -62.243 -62.2418 0zm-858.109 -45.887l966.962 0c8.59371,0 15.561,6.96733 15.561,15.561l0 140.046 -998.084 0 0 -140.046c0,-8.59371 6.96733,-15.561 15.561,-15.561z"/>
  </g>
 </g>
 <rect class="fil1" width="2048" height="2048"/>
</svg>
