<?xml version="1.0" encoding="UTF-8"?>
<!DOCTYPE svg PUBLIC "-//W3C//DTD SVG 1.1//EN" "http://www.w3.org/Graphics/SVG/1.1/DTD/svg11.dtd">
<!-- Creator: CorelDRAW -->
<svg xmlns="http://www.w3.org/2000/svg" xml:space="preserve" width="2048px" height="2048px" style="shape-rendering:geometricPrecision; text-rendering:geometricPrecision; image-rendering:optimizeQuality; fill-rule:evenodd; clip-rule:evenodd"
viewBox="0 0 2048 2048"
 xmlns:xlink="http://www.w3.org/1999/xlink">
 <defs>
  <style type="text/css">
   <![CDATA[
    .fil1 {fill:none}
    .fil0 {fill:#424242}
   ]]>
  </style>
 </defs>
 <g id="Layer_x0020_1">
  <metadata id="CorelCorpID_0Corel-Layer"/>
  <g id="_487439120">
   <g>
    <path id="_487439864" class="fil0" d="M396.229 255.427l599.924 0 0 354.785 354.785 0 0 466.637c-1.02992,-0.0354331 -2.05158,-0.0637796 -3.0626,-0.0850394 -16.4386,-0.355512 -35.1,0.726379 -51.2906,3.81851 -39.926,7.62284 -44.7792,30.9236 -58.7327,63.0674 -2.96693,6.83504 -8.97875,21.7288 -14.3681,32.0008 -11.3445,-3.57992 -26.6764,-10.1976 -33.7465,-13.0429 -10.2343,-4.11851 -20.5323,-8.10355 -30.8835,-11.9185 -23.3138,-8.59016 -45.3567,1.40079 -63.1536,16.5402 -7.18347,6.10867 -13.252,12.7217 -19.8697,19.3394 -8.82993,8.83229 -16.6665,18.5185 -24.978,27.8185 -6.34843,7.10434 -10.7421,15.5457 -12.8457,24.4961l-516.962 0 0 61.467 530.803 0 0.0401575 0.100394c2.8441,7.07127 9.46418,22.4043 13.0453,33.75 -10.2732,5.38819 -25.1658,11.4012 -32.0008,14.3681 -10.7362,4.66063 -21.3225,9.63308 -31.9677,14.4945 -13.011,5.93977 -23.1331,16.4977 -28.2402,29.4851l-451.68 0 0 61.467 445.815 0c0.0814961,5.89134 0.32126,11.7815 0.669686,17.6622 0.400394,6.7689 1.09606,13.4917 1.72559,20.2394 2.27126,24.326 19.9618,39.6721 40.8071,49.4658 7.57087,3.5563 15.287,6.10985 22.8721,9.40276 6.83504,2.96575 21.7264,8.97875 31.9984,14.3669 -3.57992,11.3469 -10.2,26.6788 -13.0441,33.75 -4.11614,10.2331 -8.10237,20.5299 -11.9173,30.8788 -1.0689,2.90079 -1.84725,5.78032 -2.36811,8.63623l-641.373 0c-16.9736,0 -30.7335,-13.761 -30.7335,-30.7335l0 -1321.52c0,-16.9725 13.7599,-30.7335 30.7335,-30.7335zm124.815 522.462l674.341 0 0 61.4682 -674.341 0 0 -61.4682zm0 307.33l674.341 0 0 61.467 -674.341 0 0 -61.467zm0 -153.665l674.341 0 0 61.4682 -674.341 0 0 -61.4682zm0 -307.329l387.098 0 0 61.467 -387.098 0 0 -61.467z"/>
    <polygon id="_487440104" class="fil0" points="1026.89,255.34 1351.03,579.479 1026.89,579.479 "/>
   </g>
   <path id="_487439480" class="fil0" d="M1397.04 1124.71c4.71142,9.45355 9.49607,20.4721 14.2524,31.4292 10.7291,24.7122 21.3012,49.0618 29.4414,52.5048 8.3126,3.51614 33.7736,-6.7252 59.1662,-16.9382 14.9457,-6.01182 39.1571,-20.8323 53.4485,-6.74528 9.68977,7.84016 18.548,15.776 26.5394,23.7673 8.48386,8.48386 16.9063,17.9469 25.2213,28.3406l0.0850394 -0.068504c5.07756,6.34725 6.06615,14.6457 3.32008,21.7134 -3.18189,9.13229 -7.3819,19.5732 -11.5843,30.0213 -10.2142,25.3925 -20.4555,50.8536 -16.9394,59.1674 3.44292,8.14016 27.7937,18.7134 52.5059,29.4414 14.4957,6.29292 43.5473,13.7575 44.9327,33.0047 2.04095,17.7921 11.2642,87.0934 -13.5036,97.4009 -9.45237,4.7126 -20.4709,9.49607 -31.4292,14.2524 -24.7122,10.7303 -49.0618,21.3024 -52.5048,29.4414 -3.51614,8.31379 6.7252,33.7736 16.9382,59.165 4.32992,10.7646 8.65631,21.5221 11.8713,30.8469l0.0129921 -0.00472441c2.81103,8.16379 0.537402,16.8484 -5.13898,22.6075 -13.7929,17.0445 -51.6603,63.7654 -73.767,55.1611 -9.12757,-3.18071 -19.565,-7.37953 -30.0083,-11.5795 -25.3925,-10.213 -50.8536,-20.4532 -59.1662,-16.9382 -8.14016,3.44292 -18.7122,27.7925 -29.4414,52.5059 -6.29292,14.4945 -13.7563,43.5461 -33.0036,44.9327 -23.8866,2.73898 -87.6733,9.87757 -97.4009,-13.5036 -4.7126,-9.45237 -9.49607,-20.4709 -14.2547,-31.4303 -10.728,-24.7122 -21.3,-49.0618 -29.4402,-52.5048 -8.3126,-3.51496 -33.7736,6.7252 -59.165,16.9394 -10.7646,4.32992 -21.5221,8.65631 -30.8469,11.8701l0.00472441 0.0129921c-8.16379,2.81103 -16.8484,0.537402 -22.6063,-5.1378 -9.68977,-7.84134 -18.5492,-15.7772 -26.5418,-23.7685 -11.1662,-11.1673 -35.7402,-31.6866 -28.624,-49.9902 3.18307,-9.13347 7.38308,-19.5732 11.5854,-30.0213 10.2118,-25.3914 20.452,-50.8489 16.937,-59.1615 -3.44292,-8.14016 -27.7937,-18.7134 -52.5059,-29.4425 -14.4957,-6.29174 -43.5473,-13.7563 -44.9327,-33.0036 -0.694489,-6.0567 -1.24725,-12.4453 -1.64646,-19.1764 -0.425197,-7.19882 -0.644882,-13.9276 -0.644882,-20.1484 0,-6.21969 0.219685,-12.9461 0.644882,-20.1437 0.421654,-7.11024 1.01339,-13.839 1.76457,-20.2004l-0.0200788 -0.00236221c0.964961,-8.17914 6.30591,-14.7756 13.4043,-17.7295 9.45355,-4.71142 20.4709,-9.49607 31.4303,-14.2547 24.7122,-10.7268 49.063,-21.3 52.5048,-29.4402 3.51614,-8.31379 -6.7252,-33.7725 -16.9382,-59.165 -4.32992,-10.7646 -8.65749,-21.5221 -11.8713,-30.8469l-0.0129921 0.00590552c-2.81103,-8.16379 -0.537402,-16.8484 5.13898,-22.6075 7.84016,-9.68977 15.7772,-18.5492 23.7673,-26.5418 11.1673,-11.1662 31.6878,-35.7402 49.9914,-28.6229 9.13347,3.18189 19.5732,7.3819 30.0213,11.5843 25.3902,10.213 50.8489,20.452 59.1603,16.937 8.14134,-3.44292 18.7134,-27.7937 29.4425,-52.5059 12.3024,-28.3429 12.2634,-40.2426 35.8382,-44.7449 21.3709,-4.07835 85.4044,-8.70119 94.5674,13.3158zm-58.0772 153.803c47.2618,0 90.0509,19.1587 121.026,50.1343 30.9744,30.9744 50.1331,73.7646 50.1331,121.025 0,47.2607 -19.1587,90.0509 -50.1331,121.025 -30.9756,30.9744 -73.7646,50.1331 -121.026,50.1331 -47.2607,0 -90.0497,-19.1587 -121.025,-50.1331 -30.9744,-30.9744 -50.1331,-73.7646 -50.1331,-121.025 0,-47.2607 19.1587,-90.0509 50.1331,-121.025 30.9756,-30.9756 73.7646,-50.1343 121.025,-50.1343zm89.9387 81.2209c-23.015,-23.015 -54.8138,-37.2508 -89.9387,-37.2508 -35.1236,0 -66.9225,14.2358 -89.9375,37.2508 -23.015,23.0162 -37.2508,54.8138 -37.2508,89.9387 0,35.1236 14.2358,66.9225 37.2508,89.9375 23.015,23.0162 54.8138,37.2508 89.9375,37.2508 35.1248,0 66.9237,-14.2347 89.9387,-37.2508 23.015,-23.015 37.2508,-54.8138 37.2508,-89.9375 0,-35.1248 -14.2358,-66.9225 -37.2508,-89.9387zm-89.9387 7.2319c22.8355,0 43.513,9.25867 58.4811,24.2256 14.9669,14.9681 24.2256,35.6469 24.2256,58.4811 0,22.8355 -9.25867,43.513 -24.2256,58.48 -14.9681,14.9681 -35.6457,24.2268 -58.4811,24.2268 -22.8355,0 -43.5118,-9.25867 -58.48,-24.2268 -14.9669,-14.9669 -24.2256,-35.6445 -24.2256,-58.48 0,-22.8343 9.25867,-43.513 24.2256,-58.4811 14.9681,-14.9669 35.6445,-24.2256 58.48,-24.2256zm27.3933 55.3134c-7.00749,-7.00867 -16.6949,-11.3433 -27.3933,-11.3433 -10.6984,0 -20.3847,4.33465 -27.3921,11.3433 -7.00867,7.00867 -11.3445,16.6949 -11.3445,27.3933 0,10.6996 4.33583,20.3847 11.3445,27.3933 7.00749,7.00749 16.6937,11.3433 27.3921,11.3433 10.6984,0 20.3858,-4.33583 27.3933,-11.3433 7.00867,-7.00867 11.3445,-16.6937 11.3445,-27.3933 0,-10.6984 -4.33583,-20.3847 -11.3445,-27.3933z"/>
  </g>
 </g>
 <rect class="fil1" width="2048" height="2048"/>
</svg>
