<?xml version="1.0" encoding="UTF-8"?>
<!DOCTYPE svg PUBLIC "-//W3C//DTD SVG 1.1//EN" "http://www.w3.org/Graphics/SVG/1.1/DTD/svg11.dtd">
<!-- Creator: CorelDRAW -->
<svg xmlns="http://www.w3.org/2000/svg" xml:space="preserve" width="2048px" height="2048px" style="shape-rendering:geometricPrecision; text-rendering:geometricPrecision; image-rendering:optimizeQuality; fill-rule:evenodd; clip-rule:evenodd"
viewBox="0 0 2048 2048"
 xmlns:xlink="http://www.w3.org/1999/xlink">
 <defs>
  <style type="text/css">
   <![CDATA[
    .fil2 {fill:none}
    .fil0 {fill:#424242}
    .fil1 {fill:#424242;fill-rule:nonzero}
   ]]>
  </style>
 </defs>
 <g id="Layer_x0020_1">
  <metadata id="CorelCorpID_0Corel-Layer"/>
  <g id="_487440584">
   <path id="_487440920" class="fil0" d="M735.027 569.191l908.255 0c17.6728,0 32.0008,14.328 32.0008,32.0008l0 1158.81c0,17.6728 -14.328,32.0008 -32.0008,32.0008l-908.255 0c-17.6728,0 -32.0008,-14.328 -32.0008,-32.0008l0 -1158.81c0,-17.6728 14.328,-32.0008 32.0008,-32.0008zm110.526 375.831l687.202 0 0 64.0016 -687.202 0 0 -64.0016zm0 -156.595l394.481 0 0 64.0016 -394.481 0 0 -64.0016zm0 313.19l687.202 0 0 64.0016 -687.202 0 0 -64.0016zm0 156.595l687.202 0 0 64.0016 -687.202 0 0 -64.0016zm0 156.595l687.202 0 0 64.0016 -687.202 0 0 -64.0016zm0 156.594l687.202 0 0 64.0016 -687.202 0 0 -64.0016z"/>
   <path id="_487440680" class="fil1" d="M671.026 1571.4l0 -970.211c0,-35.3351 28.6654,-64.0004 64.0004,-64.0004l719.66 0 64.0016 0 0 -92.595c0,-17.6728 -14.328,-32.0008 -32.0008,-32.0008l-908.257 0c-17.6728,0 -32.0008,14.328 -32.0008,32.0008l0 1158.81c0,17.6728 14.328,32.0008 32.0008,32.0008l92.595 0 0 -64.0016z"/>
   <path id="_487440296" class="fil1" d="M497.312 1414.81l0 -970.211c0,-35.3351 28.6654,-64.0004 64.0004,-64.0004l719.66 0 64.0016 0 0 -92.595c0,-17.6728 -14.328,-32.0008 -32.0008,-32.0008l-908.257 0c-17.6728,0 -32.0008,14.328 -32.0008,32.0008l0 1158.81c0,17.6728 14.328,32.0008 32.0008,32.0008l92.595 0 0 -64.0016z"/>
  </g>
 </g>
 <rect class="fil2" width="2048" height="2048"/>
</svg>
