<?xml version="1.0" encoding="UTF-8"?>
<!DOCTYPE svg PUBLIC "-//W3C//DTD SVG 1.1//EN" "http://www.w3.org/Graphics/SVG/1.1/DTD/svg11.dtd">
<!-- Creator: CorelDRAW -->
<svg xmlns="http://www.w3.org/2000/svg" xml:space="preserve" width="2048px" height="2048px" style="shape-rendering:geometricPrecision; text-rendering:geometricPrecision; image-rendering:optimizeQuality; fill-rule:evenodd; clip-rule:evenodd"
viewBox="0 0 2048 2048"
 xmlns:xlink="http://www.w3.org/1999/xlink">
 <defs>
  <style type="text/css">
   <![CDATA[
    .fil1 {fill:none}
    .fil0 {fill:#424242}
   ]]>
  </style>
 </defs>
 <g id="Layer_x0020_1">
  <metadata id="CorelCorpID_0Corel-Layer"/>
  <path class="fil0" d="M1185.32 405.929l587.895 1020.46 0.120473 -0.0696851c1.08662,1.88268 1.95827,3.82914 2.62677,5.81221 5.22993,12.7323 9.14764,25.7504 11.7614,38.8252 2.84528,14.2311 4.26378,28.7292 4.26378,43.1989 0,47.8796 -15.6083,93.8824 -42.5599,131.199 -26.8347,37.1563 -64.9288,65.7083 -110.14,79.0371l0.022441 0.0779528c-3.99685,1.17756 -8.04213,1.5378 -11.9528,1.17992 -400.203,0.00472441 -800.103,0.132284 -1200.3,0.132284 -2.4437,0 -4.82244,-0.275197 -7.10906,-0.793701 -16.5189,-3.08504 -32.1638,-8.20867 -46.8284,-15.0532 -43.9087,-20.498 -76.6052,-56.0528 -96.13,-98.1509 -19.2036,-41.4036 -25.689,-89.2737 -17.5051,-135.234 3.25394,-18.2788 8.9315,-36.4878 17.1591,-54.1146l-0.113386 -0.0531496c0.833859,-1.78583 1.81299,-3.45709 2.91378,-5.01024 221.557,-384.084 352.246,-610.661 583.29,-1010.84 -0.337796,-0.19252 3.36496,-4.89567 3.78071,-5.36221 77.3682,-104.901 236.879,-105.197 315.18,-1.22599 0.494882,-0.00944883 3.29528,5.25945 3.62953,5.99056zm-161.322 906.072c24.1181,0 45.9567,9.77599 61.7634,25.5839 15.8067,15.8091 25.5862,37.6488 25.5862,61.7634 0,24.1158 -9.77954,45.9544 -25.5862,61.7634 -15.8079,15.8067 -37.6465,25.5851 -61.7634,25.5851 -24.1146,0 -45.9532,-9.77835 -61.7611,-25.5851 -15.8067,-15.8091 -25.5862,-37.6477 -25.5862,-61.7634 0,-24.1146 9.77954,-45.9544 25.5862,-61.7634 15.8067,-15.8079 37.6441,-25.5839 61.7611,-25.5839zm104.793 -498.022l-33.8126 374.953 0.00236221 0c0,33.7229 -18.8977,55.526 -43.0866,65.2477 -8.97993,3.61063 -18.5232,5.41654 -27.8941,5.41654 -9.37087,0 -18.9165,-1.80591 -27.8965,-5.41654 -24.1855,-9.7193 -43.0855,-31.5225 -43.0855,-65.2477l0 -0.022441 -34.0607 -377.684 -0.121654 0.011811c-0.080315,-0.903544 -0.120473,-1.8 -0.120473,-2.69292l-0.0011811 0 0.0011811 -0.164173 0.00236221 -0.351969c0.19252,-49.7634 27.9083,-81.8493 63.3544,-96.0993 13.4067,-5.38701 27.7536,-8.08111 41.9256,-8.08111 14.1744,0 28.5213,2.6941 41.928,8.08111 35.5677,14.2984 63.3579,46.5555 63.3579,96.6154 0,1.85669 -0.170079,3.67205 -0.49252,5.43426z"/>
 </g>
 <rect class="fil1" width="2048" height="2048"/>
</svg>
