<?xml version="1.0" encoding="UTF-8"?>
<!DOCTYPE svg PUBLIC "-//W3C//DTD SVG 1.1//EN" "http://www.w3.org/Graphics/SVG/1.1/DTD/svg11.dtd">
<!-- Creator: CorelDRAW -->
<svg xmlns="http://www.w3.org/2000/svg" xml:space="preserve" width="2048px" height="2048px" style="shape-rendering:geometricPrecision; text-rendering:geometricPrecision; image-rendering:optimizeQuality; fill-rule:evenodd; clip-rule:evenodd"
viewBox="0 0 2048 2048"
 xmlns:xlink="http://www.w3.org/1999/xlink">
 <defs>
  <style type="text/css">
   <![CDATA[
    .fil2 {fill:none}
    .fil0 {fill:#424242}
    .fil1 {fill:#424242;fill-rule:nonzero}
   ]]>
  </style>
 </defs>
 <g id="Layer_x0020_1">
  <metadata id="CorelCorpID_0Corel-Layer"/>
  <g id="_487437272">
   <path id="_487869360" class="fil0" d="M730.773 540.668c-16.461,16.461 -26.6445,39.2032 -26.6445,64.3193 0,25.1162 10.1835,47.8583 26.6445,64.3193 1.22362,1.22362 2.48268,2.41181 3.77481,3.56457 -2.2311,1.60158 -4.44685,3.27402 -6.64371,5.01733 -10.3039,8.17323 -20.3185,17.954 -29.7355,28.8l-104.44 -72.4949c-9.71339,-7.61575 -21.6874,-3.32362 -25.911,-0.68504l-53.1107 40.1882c-6.78189,3.39213 -9.53032,11.6398 -6.14056,18.4228 3.39213,6.78189 11.6398,9.53268 18.4228,6.14056l51.3697 -17.511 91.9701 63.8386c-3.21024,5.16496 -6.26339,10.415 -9.13465,15.7087 -17.6421,32.5299 -28.8851,67.5686 -28.8851,96.6922 0,12.4524 2.00315,24.0662 6.32008,34.3784l-72.8918 54.9981 -34.6347 -4.43032c-6.22087,-3.38859 -14.0091,-1.09134 -17.3977,5.12953 -3.3874,6.21969 -1.09134,14.0091 5.12835,17.3965l35.9587 29.4473c8.10355,5.38465 19.0477,5.37166 27.254,-0.819686l-0.0177165 -0.0330709 83.0977 -62.6989c15.9815,23.0067 29.4225,46.5189 40.9536,68.5477l-75.0508 56.6268 -43.3807 -10.5c-6.74646,-3.67441 -15.1949,-1.18347 -18.8693,5.56182 -3.67323,6.74646 -1.18347,15.1949 5.563,18.8681l45.7489 33.6166c8.10237,5.37993 19.0417,5.36693 27.2457,-0.823229l-0.0177165 -0.0330709 80.1343 -60.4619 1.48937 3.0815c49.454,102.334 85.2367,102.334 134.691,0l1.48937 -3.0815 80.1343 60.4619 -0.0177165 0.0330709c8.20394,6.19016 19.1433,6.20315 27.2457,0.823229l45.7489 -33.6166c6.74646,-3.67323 9.23623,-12.1217 5.563,-18.8681 -3.67441,-6.74528 -12.1228,-9.23623 -18.8693,-5.56182l-43.3807 10.5 -75.0508 -56.6268c11.5311,-22.0288 24.9721,-45.541 40.9536,-68.5477l83.0977 62.6989 -0.0177165 0.0330709c8.20631,6.19134 19.1504,6.20434 27.254,0.819686l35.9587 -29.4473c6.21969,-3.3874 8.51575,-11.1768 5.12835,-17.3965 -3.38859,-6.22087 -11.1768,-8.51812 -17.3977,-5.12953l-34.6347 4.43032 -72.8918 -54.9981c4.31693,-10.3122 6.32008,-21.926 6.32008,-34.3784 0,-29.1236 -11.2429,-64.1623 -28.8851,-96.6922 -2.87126,-5.2937 -5.92441,-10.5437 -9.13465,-15.7087l91.9701 -63.8386 51.3697 17.511c6.78308,3.39213 15.0307,0.641339 18.4228,-6.14056 3.38977,-6.78308 0.641339,-15.0307 -6.14056,-18.4228l-53.1107 -40.1882c-4.22363,-2.63858 -16.1977,-6.93071 -25.911,0.68504l-104.44 72.4949c-9.41694,-10.8461 -19.4315,-20.6268 -29.7355,-28.8 -2.19685,-1.74331 -4.4126,-3.41575 -6.64371,-5.01733 1.29213,-1.15276 2.55118,-2.34095 3.77481,-3.56457 16.461,-16.461 26.6445,-39.2032 26.6445,-64.3193 0,-25.1162 -10.1835,-47.8583 -26.6445,-64.3193 -35.5878,-35.5878 -95.4414,-35.5878 -131.029,0z"/>
   <path id="_487869624" class="fil1" d="M1400.45 1275.29l356.436 278.489c1.56378,1.01693 3.06024,2.18622 4.46929,3.5067l-21.887 23.3445 21.8752 -23.25c42.3225,39.6792 47.6091,88.6442 31.552,129.918 -6.06733,15.5941 -15.228,29.928 -26.5866,42.0437 -11.3587,12.1134 -25.0512,22.1681 -40.1859,29.2087 -39.5185,18.3851 -87.8505,16.5626 -129.812,-21.4713 -1.39725,-1.11614 -2.72126,-2.36339 -3.95079,-3.7441l23.8949 -21.2847 -23.8748 21.2504 -303.408 -340.622c-26.6906,-26.0587 -29.8158,-58.03 -19.2744,-85.1292 3.99803,-10.278 10.0051,-19.6914 17.4354,-27.6154 7.42678,-7.92284 16.415,-14.5134 26.3752,-19.1469 26.5559,-12.3543 58.9855,-11.1319 86.941,14.5028z"/>
   <path id="_487440440" class="fil0" d="M1148.19 405.512l0.745276 -0.794883 23.3646 22.004c0.912993,0.859843 0.51378,0.458268 1.57087,1.53189l0.947245 0.966142 0.298819 0.323622 0.227953 0.243307c98.0387,104.252 165.562,235.419 170.228,380.197 4.34055,134.689 -41.2843,266.508 -127.125,369.566l0.794883 0.745276 -22.004 23.3646c-0.859843,0.912993 -0.458268,0.51378 -1.53189,1.57087l-0.966142 0.947245 -0.323622 0.298819 -0.243307 0.227953c-104.252,98.0387 -235.42,165.562 -380.197,170.228 -145.408,4.68544 -287.472,-48.8634 -393.613,-148.376 -106.673,-100.01 -168.628,-237.11 -173.336,-383.221 -4.68426,-145.407 48.8634,-287.471 148.376,-393.612 100.011,-106.671 237.111,-168.627 383.221,-173.335 134.688,-4.33937 266.509,41.2855 369.566,127.125zm-40.9217 709.979c75.5894,-81.6402 116.164,-190.271 112.578,-301.507 -3.56103,-110.474 -44.5996,-220.631 -130.957,-292.903l-0.519685 -0.433465 -1.26142 -1.10079 -0.863386 -0.793701c-1.15158,-1.06299 -0.788977,-0.718111 -1.80118,-1.74449l-0.311811 -0.317717c-81.6402,-75.5894 -190.271,-116.162 -301.507,-112.577 -112.739,3.63307 -218.333,51.4737 -295.486,133.766 -76.7434,81.8552 -117.999,191.32 -114.385,303.456 3.63307,112.737 51.4737,218.333 133.765,295.485 81.8564,76.7434 191.321,118 303.459,114.385 110.474,-3.56103 220.631,-44.5985 292.903,-130.957l0.433465 -0.519685 1.10079 -1.26142 0.793701 -0.863386c1.06299,-1.15158 0.718111,-0.788977 1.74449,-1.80118l0.316536 -0.311811z"/>
   <path id="_487441064" class="fil1" d="M1204.82 1159.08c-12.8398,-12.0803 -33.0449,-11.465 -45.1252,1.3748 -12.0803,12.8398 -11.465,33.0449 1.3748,45.1252l119.301 111.852c12.8398,12.0803 33.0449,11.465 45.1252,-1.3748 12.0803,-12.8398 11.465,-33.0449 -1.3748,-45.1252l-119.301 -111.852z"/>
  </g>
 </g>
 <rect class="fil2" width="2048" height="2048"/>
</svg>
