<?xml version="1.0" encoding="UTF-8"?>
<!DOCTYPE svg PUBLIC "-//W3C//DTD SVG 1.1//EN" "http://www.w3.org/Graphics/SVG/1.1/DTD/svg11.dtd">
<!-- Creator: CorelDRAW -->
<svg xmlns="http://www.w3.org/2000/svg" xml:space="preserve" width="2048px" height="2048px" style="shape-rendering:geometricPrecision; text-rendering:geometricPrecision; image-rendering:optimizeQuality; fill-rule:evenodd; clip-rule:evenodd"
viewBox="0 0 2048 2048"
 xmlns:xlink="http://www.w3.org/1999/xlink">
 <defs>
  <style type="text/css">
   <![CDATA[
    .fil2 {fill:none}
    .fil1 {fill:#424242}
    .fil0 {fill:#424242;fill-rule:nonzero}
   ]]>
  </style>
 </defs>
 <g id="Layer_x0020_1">
  <metadata id="CorelCorpID_0Corel-Layer"/>
  <path class="fil0" d="M853.804 258.562l333.39 0c17.6728,0 32.0008,14.328 32.0008,32.0008l0 448c0,17.6728 -14.328,32.0008 -32.0008,32.0008l-333.39 0c-17.6728,0 -32.0008,-14.328 -32.0008,-32.0008l0 -448c0,-17.6728 14.328,-32.0008 32.0008,-32.0008z"/>
  <path class="fil0" d="M284.499 1277.44l333.389 0c17.6728,0 32.0008,14.328 32.0008,32.0008l0 448c0,17.6728 -14.328,32.0008 -32.0008,32.0008l-333.389 0c-17.6728,0 -32.0008,-14.328 -32.0008,-32.0008l0 -448c0,-17.6728 14.328,-32.0008 32.0008,-32.0008z"/>
  <path class="fil0" d="M853.804 1277.44l333.39 0c17.6728,0 32.0008,14.328 32.0008,32.0008l0 448c0,17.6728 -14.328,32.0008 -32.0008,32.0008l-333.39 0c-17.6728,0 -32.0008,-14.328 -32.0008,-32.0008l0 -448c0,-17.6728 14.328,-32.0008 32.0008,-32.0008z"/>
  <path class="fil0" d="M1430.11 1277.44l333.389 0c17.6728,0 32.0008,14.328 32.0008,32.0008l0 448c0,17.6728 -14.328,32.0008 -32.0008,32.0008l-333.389 0c-17.6728,0 -32.0008,-14.328 -32.0008,-32.0008l0 -448c0,-17.6728 14.328,-32.0008 32.0008,-32.0008z"/>
  <path class="fil0" d="M1583.98 1150.32c0,8.83583 7.16457,16.0004 16.0004,16.0004 8.83583,0 16.0004,-7.16457 16.0004,-16.0004l0 -195.803c0,-8.83583 -7.16457,-16.0004 -16.0004,-16.0004l-1148.62 0c-8.83583,0 -16.0004,7.16457 -16.0004,16.0004l0 195.803c0,8.83583 7.16457,16.0004 16.0004,16.0004 8.83583,0 16.0004,-7.16457 16.0004,-16.0004l0 -179.803 1116.62 0 0 179.803z"/>
  <path class="fil0" d="M1036.5 744.283c0,-8.83583 -7.16457,-16.0004 -16.0004,-16.0004 -8.83583,0 -16.0004,7.16457 -16.0004,16.0004l0 406.04c0,8.83583 7.16457,16.0004 16.0004,16.0004 8.83583,0 16.0004,-7.16457 16.0004,-16.0004l0 -406.04z"/>
  <polygon class="fil1" points="371.354,1117.97 531.033,1117.97 451.194,1197.81 "/>
  <polygon class="fil1" points="940.659,1117.97 1100.34,1117.97 1020.5,1197.81 "/>
  <polygon class="fil1" points="1516.97,1117.97 1676.65,1117.97 1596.81,1197.81 "/>
  <g id="_487854288">
   <path id="_487854120" class="fil0" d="M671.856 1517.44l0 32.0008 81.528 0c8.83583,0 16.0004,-7.16457 16.0004,-16.0004 0,-8.83583 -7.16457,-16.0004 -16.0004,-16.0004l-81.528 0z"/>
   <polygon id="_487854168" class="fil1" points="721.033,1613.28 721.033,1453.6 800.873,1533.44 "/>
  </g>
  <g id="_487854264">
   <path id="_487853976" class="fil0" d="M1235.13 1517.44l0 32.0008 81.528 0c8.83583,0 16.0004,-7.16457 16.0004,-16.0004 0,-8.83583 -7.16457,-16.0004 -16.0004,-16.0004l-81.528 0z"/>
   <polygon id="_487854192" class="fil1" points="1284.3,1613.28 1284.3,1453.6 1364.14,1533.44 "/>
  </g>
 </g>
 <rect class="fil2" width="2048" height="2048"/>
</svg>
