<?xml version="1.0" encoding="UTF-8"?>
<!DOCTYPE svg PUBLIC "-//W3C//DTD SVG 1.1//EN" "http://www.w3.org/Graphics/SVG/1.1/DTD/svg11.dtd">
<!-- Creator: CorelDRAW -->
<svg xmlns="http://www.w3.org/2000/svg" xml:space="preserve" width="2048px" height="2048px" style="shape-rendering:geometricPrecision; text-rendering:geometricPrecision; image-rendering:optimizeQuality; fill-rule:evenodd; clip-rule:evenodd"
viewBox="0 0 2048 2048"
 xmlns:xlink="http://www.w3.org/1999/xlink">
 <defs>
  <style type="text/css">
   <![CDATA[
    .fil2 {fill:none}
    .fil0 {fill:#424242}
    .fil1 {fill:#424242;fill-rule:nonzero}
   ]]>
  </style>
 </defs>
 <g id="Layer_x0020_1">
  <metadata id="CorelCorpID_0Corel-Layer"/>
  <path class="fil0" d="M1496.44 945.135c4.82599,9.68032 9.7252,20.9646 14.5961,32.1862 10.9866,25.3075 21.8138,50.243 30.15,53.7685 8.51339,3.60118 34.5874,-6.88701 60.5918,-17.3457 15.3047,-6.15709 40.0996,-21.3343 54.7347,-6.90827 9.92363,8.03032 18.9957,16.1563 27.1784,24.3402 8.6882,8.68701 17.3138,18.378 25.8295,29.0233l0.0874016 -0.0696851c5.19922,6.49961 6.21142,14.9976 3.39922,22.2355 -3.25866,9.35198 -7.56024,20.0445 -11.8642,30.7441 -10.4587,26.0044 -20.9469,52.0784 -17.3457,60.5918 3.52559,8.33623 28.4622,19.1634 53.7697,30.1512 14.8453,6.4441 44.5961,14.0882 46.0158,33.7985 2.08819,18.2209 11.5347,89.191 -13.8295,99.7465 -9.68032,4.82599 -20.9646,9.7252 -32.1862,14.5961 -25.3075,10.9878 -50.243,21.815 -53.7685,30.15 -3.60118,8.51339 6.88701,34.5874 17.3457,60.5906 4.43386,11.0232 8.86536,22.0394 12.1559,31.5886l0.0141732 -0.00472441c2.87953,8.36103 0.550394,17.2547 -5.26182,23.152 -14.126,17.4555 -52.9052,65.3008 -75.5434,56.4898 -9.34843,-3.25866 -20.0362,-7.55788 -30.7323,-11.8583 -26.0032,-10.4587 -52.0772,-20.9469 -60.5906,-17.3457 -8.33623,3.52559 -19.1634,28.461 -30.15,53.7697 -6.4441,14.8441 -14.0882,44.5949 -33.7985,46.0146 -24.4618,2.80512 -89.7839,10.115 -99.7465,-13.8284 -4.82481,-9.68032 -9.7252,-20.9634 -14.5973,-32.1874 -10.9866,-25.3075 -21.8126,-50.243 -30.1488,-53.7685 -8.51339,-3.60118 -34.5874,6.88701 -60.5906,17.3457 -11.0232,4.43504 -22.0394,8.86536 -31.5898,12.1571l0.00590552 0.0129921c-8.36103,2.87953 -17.2547,0.550394 -23.152,-5.26182 -9.92245,-8.02914 -18.9957,-16.1575 -27.1795,-24.3402 -11.4366,-11.4366 -36.6012,-32.4508 -29.3138,-51.1949 3.25866,-9.35316 7.56024,-20.0445 11.8642,-30.7441 10.4587,-26.002 20.9445,-52.0737 17.3445,-60.5859 -3.52559,-8.33623 -28.4622,-19.1634 -53.7709,-30.1512 -14.8441,-6.4441 -44.5949,-14.0882 -46.0146,-33.7985 -0.711024,-6.20197 -1.27677,-12.7453 -1.68543,-19.6382 -0.434646,-7.37127 -0.660237,-14.263 -0.660237,-20.6339 0,-6.36969 0.225591,-13.2579 0.660237,-20.628 0.431103,-7.2815 1.03819,-14.1732 1.80709,-20.6882l-0.0212599 -0.00236221c0.988583,-8.3752 6.45827,-15.1311 13.728,-18.1559 9.68032,-4.82481 20.9634,-9.72402 32.1874,-14.5973 25.3075,-10.9866 50.2441,-21.8138 53.7685,-30.1488 3.60118,-8.51457 -6.88701,-34.5862 -17.3469,-60.5906 -4.43386,-11.0232 -8.86536,-22.0406 -12.1559,-31.5886l-0.0129921 0.00472441c-2.87953,-8.36103 -0.550394,-17.2547 5.26182,-23.152 8.02914,-9.92245 16.1575,-18.9957 24.3402,-27.1795 11.4366,-11.4366 32.4508,-36.6012 51.1949,-29.3138 9.35316,3.25985 20.0445,7.56024 30.7441,11.8642 26.002,10.4587 52.0737,20.9445 60.5859,17.3445 8.33623,-3.52559 19.1634,-28.4622 30.1512,-53.7697 12.5988,-29.0256 12.5575,-41.2111 36.7004,-45.8221 21.887,-4.17756 87.4619,-8.91142 96.8446,13.6358zm-59.4745 157.507c48.3992,0 92.2194,19.6205 123.939,51.3402 31.7209,31.7209 51.3414,75.541 51.3414,123.94 0,48.3992 -19.6205,92.2194 -51.3414,123.94 -31.7197,31.7197 -75.5398,51.3402 -123.939,51.3402 -48.3992,0 -92.2194,-19.6205 -123.94,-51.3402 -31.7197,-31.7209 -51.3402,-75.541 -51.3402,-123.94 0,-48.3992 19.6205,-92.2194 51.3402,-123.94 31.7209,-31.7197 75.541,-51.3402 123.94,-51.3402zm92.1036 83.1768c-23.5701,-23.5701 -56.1331,-38.1485 -92.1036,-38.1485 -35.9705,0 -68.5347,14.5784 -92.1036,38.1485 -23.5701,23.5701 -38.1485,56.1331 -38.1485,92.1036 0,35.9705 14.5784,68.5347 38.1485,92.1036 23.5689,23.5701 56.1331,38.1485 92.1036,38.1485 35.9705,0 68.5335,-14.5784 92.1036,-38.1485 23.5689,-23.5689 38.1485,-56.1331 38.1485,-92.1036 0,-35.9705 -14.5795,-68.5335 -38.1485,-92.1036zm-92.1036 7.40552c23.3847,0 44.5607,9.4819 59.889,24.8091 15.3272,15.3284 24.8091,36.5044 24.8091,59.889 0,23.3858 -9.4819,44.5607 -24.8091,59.889 -15.3284,15.3284 -36.5044,24.8091 -59.889,24.8091 -23.3858,0 -44.5607,-9.48072 -59.889,-24.8091 -15.3284,-15.3284 -24.8091,-36.5032 -24.8091,-59.889 0,-23.3847 9.48072,-44.5607 24.8091,-59.889 15.3284,-15.3272 36.5032,-24.8091 59.889,-24.8091zm28.0524 56.6457c-7.17756,-7.17756 -17.0977,-11.6173 -28.0524,-11.6173 -10.9571,0 -20.876,4.43977 -28.0524,11.6173 -7.17756,7.17638 -11.6173,17.0965 -11.6173,28.0524 0,10.9571 4.43977,20.876 11.6173,28.0524 7.17638,7.17756 17.0953,11.6173 28.0524,11.6173 10.9547,0 20.8748,-4.43977 28.0524,-11.6173 7.17756,-7.17638 11.6173,-17.0953 11.6173,-28.0524 0,-10.9559 -4.43977,-20.876 -11.6173,-28.0524z"/>
  <path class="fil1" d="M494.751 704.75l324.408 0 18.3532 -118.746c2.40827,-15.5799 9.28702,-30.1063 19.8461,-40.6654 11.0799,-11.0799 25.6937,-17.948 43.1433,-17.948l623.245 0c17.491,0 33.3733,7.13386 44.8642,18.6248 11.491,11.491 18.6248,27.3732 18.6248,44.8642l0 394.235c-7.97599,3.27874 -21.6827,9.06497 -32.0788,12.3378 -5.53465,-10.5319 -11.726,-25.8626 -14.7697,-32.8725 -5.98111,-13.7788 -10.7398,-28.6323 -19.4646,-40.5189 -6.87993,-9.37205 -15.0236,-15.1429 -25.4445,-19.3583 -29.8205,-12.0756 -75.7477,-9.62599 -101.886,-4.63465 -40.8343,7.79646 -45.7807,31.637 -60.052,64.5107 -3.0437,7.00985 -9.23505,22.3417 -14.7697,32.8736 -11.6374,-3.66378 -27.4193,-10.4764 -34.6725,-13.3937 -10.4787,-4.21418 -21.0225,-8.29607 -31.6205,-12.202 -48.3555,-17.8193 -138.92,71.3079 -122.118,120.091 4.31339,12.5244 22.2,55.2922 26.1319,67.7823 -20.1591,10.5921 -44.4697,19.9559 -65.6079,29.6103 -38.602,17.6244 -50.8536,110.239 -25.4882,153.422l0.022441 0.0377953c0.175984,0.3 0.356693,0.598819 0.539764,0.895276l0.0330709 0.0543308 0.505512 0.801969 0.0165354 0.0259843 0.0933072 0.144095 0.209055 0.32126 0.00354331 0c7.72678,11.7508 19.9087,20.348 33.3803,26.6764 7.7504,3.64134 15.652,6.25512 23.4189,9.62717 7.00985,3.0437 22.3429,9.23505 32.8748,14.7697 -1.25669,3.99213 -2.88425,8.47205 -4.59804,12.9284l-657.143 0c-21.3378,0 -40.7162,-8.70709 -54.7418,-22.7339 -14.0268,-14.0256 -22.7339,-33.404 -22.7339,-54.7418l0 -549.343c0,-21.3378 8.70709,-40.7162 22.7339,-54.7418 14.0256,-14.0268 33.404,-22.7339 54.7418,-22.7339z"/>
  <path class="fil1" d="M385.276 1060.99l-84.5942 -414.518 84.5942 414.518 0 -278.766c0,-29.0882 11.5488,-56.8111 32.1059,-77.3694 20.5583,-20.5571 48.2811,-32.1059 77.3694,-32.1059l296.974 0 14.1626 -91.6335c3.37441,-21.8327 13.1516,-42.7134 28.8425,-58.4056 17.6847,-17.6847 40.6654,-27.3201 65.7709,-27.3201l398.018 0 -9.25631 -21.2941 9.25631 21.2941 69.5835 0 -20.3398 -46.7941c-4.33701,-9.98032 -8.87127,-19.9748 -16.4634,-29.1992 -10.6571,-12.9543 -24.4441,-21.5398 -44.2748,-21.5398l-566.4 0c-17.4496,0 -32.0634,6.86812 -43.1433,17.948 -10.5591,10.5591 -17.4366,25.0843 -19.8449,40.6654l-18.3543 118.747 -324.407 0c-4.97953,0 -10.3016,0.595276 -15.828,1.72205 -15.763,3.21851 -30.7004,11.2099 -41.7284,22.2295 -12.5315,12.5244 -20.5536,28.924 -20.5536,47.3044 0,3.80433 0.448819,7.99961 1.38543,12.5953l137.293 672.745c2.15315,10.5567 7.01457,20.1721 13.7492,28.7587 -2.57717,-9.35788 -3.91654,-19.102 -3.91654,-29.0044l0 -270.577zm-84.5942 -414.518l0.0389764 0c-0.0519685,-0.131102 -0.122835,-0.416929 -0.0708662,-0.155906l0.0318898 0.155906z"/>
 </g>
 <rect class="fil2" width="2048" height="2048"/>
</svg>
