<?xml version="1.0" encoding="UTF-8"?>
<!DOCTYPE svg PUBLIC "-//W3C//DTD SVG 1.1//EN" "http://www.w3.org/Graphics/SVG/1.1/DTD/svg11.dtd">
<!-- Creator: CorelDRAW -->
<svg xmlns="http://www.w3.org/2000/svg" xml:space="preserve" width="2048px" height="2048px" style="shape-rendering:geometricPrecision; text-rendering:geometricPrecision; image-rendering:optimizeQuality; fill-rule:evenodd; clip-rule:evenodd"
viewBox="0 0 2048 2048"
 xmlns:xlink="http://www.w3.org/1999/xlink">
 <defs>
  <style type="text/css">
   <![CDATA[
    .fil2 {fill:none}
    .fil0 {fill:#424242}
    .fil1 {fill:#424242;fill-rule:nonzero}
   ]]>
  </style>
 </defs>
 <g id="Layer_x0020_1">
  <metadata id="CorelCorpID_0Corel-Layer"/>
  <g id="_487857864">
   <path id="_487858896" class="fil0" d="M1792 608.002l0 1152c0,17.6728 -14.328,32.0008 -32.0008,32.0008l-1472 0c-17.6728,0 -32.0008,-14.328 -32.0008,-32.0008l0 -1152 1536 0zm-1378.1 190.98l0 27.0425 -20.9232 0 0 -21.3425c0,-11.5772 1.14685,-19.9276 3.47481,-25.1421 3.03189,-6.8941 7.83662,-12.1075 14.4165,-15.6414l4.7315 9.05788c-3.95433,1.9878 -6.8752,4.94882 -8.76024,8.88072 -1.88504,3.88819 -2.92087,9.63308 -3.14173,17.1449l10.2024 0zm33.5646 0l0 27.0425 -20.9232 0 0 -21.3425c0,-11.5772 1.18347,-19.9276 3.47481,-25.1421 3.03189,-6.8941 7.83662,-12.1075 14.4165,-15.6414l4.7693 9.05788c-3.99213,1.9878 -6.913,4.94882 -8.79804,8.88072 -1.84843,3.88819 -2.92087,9.63308 -3.14173,17.1449l10.2024 0zm28.1303 157.924l0 -189.783 21.0331 0 0 77.9457 82.5072 0 0 -77.9457 21.0331 0 0 189.783 -21.0331 0 0 -89.4343 -82.5072 0 0 89.4343 -21.0331 0zm235.766 -44.2748l20.1461 2.95984c-3.17835,14.0965 -9.0567,25.0099 -17.6327,32.7874 -8.61261,7.73268 -19.591,11.6209 -32.9362,11.6209 -16.8189,0 -30.163,-6.18662 -39.9969,-18.5587 -9.8693,-12.3721 -14.7862,-29.7378 -14.7862,-52.0961 0,-23.1543 4.99134,-41.0953 14.9351,-53.8642 9.98032,-12.7701 22.8815,-19.1776 38.7768,-19.1776 15.3768,0 27.9461,6.2752 37.6677,18.7807 9.75828,12.5043 14.6386,30.1347 14.6386,52.8024 0,1.41496 -0.0377953,3.49134 -0.111024,6.23032l-85.7599 0c0.701575,15.1122 4.2874,26.6894 10.7197,34.6866 6.43229,8.04213 14.4165,12.0638 24.0272,12.0638 7.13504,0 13.2343,-2.25355 18.2977,-6.76182 5.06457,-4.46221 9.0567,-11.6209 12.0142,-21.4736zm-63.9875 -37.6925l64.2095 0c-0.850394,-11.5323 -3.32717,-20.237 -7.35591,-25.9819 -6.21024,-8.9693 -14.2689,-13.4764 -24.1382,-13.4764 -8.94568,0 -16.487,3.57992 -22.5862,10.7374 -6.09922,7.15867 -9.463,16.748 -10.1291,28.7209zm108.199 81.9674l0 -189.783 19.4811 0 0 189.783 -19.4811 0zm49.2756 0l0 -189.783 19.4811 0 0 189.783 -19.4811 0zm42.437 -68.7544c0,-25.4516 5.91497,-44.3197 17.7803,-56.5595 9.87048,-10.1634 21.9213,-15.2894 36.1524,-15.2894 15.8221,0 28.7599,6.18662 38.7768,18.6036 10.0547,12.3721 15.0449,29.4721 15.0449,51.3012 0,17.7177 -2.21693,31.637 -6.65315,41.7555 -4.43622,10.1646 -10.9051,18.0295 -19.3701,23.6398 -8.50158,5.6126 -17.7437,8.39646 -27.7984,8.39646 -16.0795,0 -29.0918,-6.14292 -39.0355,-18.515 -9.94371,-12.3284 -14.8973,-30.0898 -14.8973,-53.3327zm20.0351 0c0,17.6303 3.21614,30.7973 9.64843,39.5469 6.43229,8.79331 14.5276,13.1681 24.2492,13.1681 9.68505,0 17.7437,-4.41969 24.176,-13.213 6.39449,-8.79213 9.61064,-22.226 9.61064,-40.2532 0,-17.0126 -3.21614,-29.915 -9.68505,-38.6634 -6.4689,-8.74961 -14.4898,-13.1244 -24.1016,-13.1244 -9.72166,0 -17.8169,4.37481 -24.2492,13.0795 -6.43229,8.70473 -9.64843,21.8729 -9.64843,39.4595zm202.425 68.7544l-42.1406 -189.783 21.5504 0 24.176 124.387c2.5878,13.0347 4.80473,25.9819 6.69095,38.8394 4.06536,-20.2807 6.43111,-31.9465 7.17048,-35.0835l30.2008 -128.143 25.3583 0 22.7339 96.0627c5.69292,23.8169 9.79607,46.2189 12.3473,67.1634 1.99606,-11.9728 4.65709,-25.7599 7.90985,-41.2701l24.8788 -121.956 21.1441 0 -43.5461 189.783 -20.2571 0 -33.4536 -144.579c-2.80984,-12.1075 -4.47284,-19.5319 -4.99016,-22.2709 -1.66299,8.70473 -3.21614,16.128 -4.65827,22.2709l-33.6756 144.579 -21.4394 0zm167.861 -68.7544c0,-25.4516 5.91497,-44.3197 17.7803,-56.5595 9.87048,-10.1634 21.9213,-15.2894 36.1524,-15.2894 15.8221,0 28.7599,6.18662 38.7768,18.6036 10.0547,12.3721 15.0449,29.4721 15.0449,51.3012 0,17.7177 -2.21693,31.637 -6.65315,41.7555 -4.43622,10.1646 -10.9051,18.0295 -19.3701,23.6398 -8.50158,5.6126 -17.7437,8.39646 -27.7984,8.39646 -16.0795,0 -29.0918,-6.14292 -39.0355,-18.515 -9.94371,-12.3284 -14.8973,-30.0898 -14.8973,-53.3327zm20.0351 0c0,17.6303 3.21614,30.7973 9.64843,39.5469 6.43229,8.79331 14.5276,13.1681 24.2492,13.1681 9.68505,0 17.7437,-4.41969 24.176,-13.213 6.39449,-8.79213 9.61064,-22.226 9.61064,-40.2532 0,-17.0126 -3.21614,-29.915 -9.68505,-38.6634 -6.4689,-8.74961 -14.4898,-13.1244 -24.1016,-13.1244 -9.72166,0 -17.8169,4.37481 -24.2492,13.0795 -6.43229,8.70473 -9.64843,21.8729 -9.64843,39.4595zm110.38 68.7544l0 -137.466 17.5217 0 0 20.8134c4.47284,-9.72166 8.61261,-16.1728 12.4205,-19.2662 3.77008,-3.09331 7.94764,-4.68426 12.4949,-4.68426 6.57993,0 13.2331,2.51929 20.0351,7.513l-6.72756 21.6508c-4.7315,-3.40158 -9.50079,-5.08229 -14.2689,-5.08229 -4.28859,0 -8.09528,1.54725 -11.4969,4.59567 -3.4004,3.09331 -5.80276,7.33583 -7.24489,12.7701 -2.1815,8.263 -3.25276,17.3221 -3.25276,27.1748l0 71.9812 -19.4811 0zm73.6347 0l0 -189.783 19.4811 0 0 189.783 -19.4811 0zm124.316 0l0 -17.3658c-7.2815,13.6536 -18.0024,20.4591 -32.1603,20.4591 -9.16654,0 -17.5949,-3.00473 -25.2839,-9.05788 -7.68898,-6.01063 -13.6406,-14.4496 -17.8914,-25.3205 -4.21418,-10.826 -6.32126,-23.2418 -6.32126,-37.337 0,-13.6973 1.92166,-26.1591 5.72953,-37.337 3.84449,-11.1803 9.57402,-19.7516 17.2264,-25.6736 7.65119,-5.96457 16.2272,-8.97048 25.6902,-8.97048 6.913,0 13.0866,1.76811 18.4831,5.25945 5.43426,3.49016 9.83268,8.04095 13.2343,13.6536l0 -68.093 19.3701 0 0 189.783 -18.0768 0zm-61.6217 -68.6221c0,17.6303 3.10512,30.7973 9.31536,39.5032 6.21024,8.70473 13.5295,13.0795 21.9945,13.0795 8.50276,0 15.7476,-4.19764 21.6992,-12.5055 5.95158,-8.3067 8.94568,-21.0331 8.94568,-38.1331 0,-18.8244 -3.03189,-32.6091 -9.09331,-41.4036 -6.0626,-8.83701 -13.5295,-13.2118 -22.4386,-13.2118 -8.6504,0 -15.8953,4.24252 -21.6992,12.6827 -5.80276,8.44016 -8.72363,21.7831 -8.72363,39.9886zm105.168 -96.0627l0 -27.0425 20.8854 0 0 21.3862c0,11.5335 -1.10906,19.8851 -3.32717,24.9662 -3.10512,6.9815 -7.94764,12.2398 -14.5276,15.7736l-4.76811 -9.18898c3.88111,-1.9004 6.80197,-4.86142 8.72363,-8.97048 1.92284,-4.11024 2.95748,-9.72048 3.17953,-16.924l-10.1658 0zm33.5646 0l0 -27.0425 20.9221 0 0 21.3862c0,11.5335 -1.14567,19.8851 -3.36378,24.9662 -3.10512,6.9815 -7.94764,12.2398 -14.5276,15.7736l-4.76811 -9.18898c3.9189,-1.9004 6.80197,-4.86142 8.72363,-8.97048 1.92284,-4.11024 2.9941,-9.72048 3.17953,-16.924l-10.1658 0zm-797.11 273.803l356.054 0c32.4756,0 61.9784,13.2638 83.3446,34.6299 21.3662,21.3685 34.6299,50.8689 34.6299,83.3446l0 300.529c0,32.4756 -13.2638,61.9784 -34.6299,83.3446 -21.3662,21.3662 -50.8689,34.6299 -83.3446,34.6299l-356.054 0c-32.4756,0 -61.9784,-13.2638 -83.3446,-34.6299 -21.3662,-21.3662 -34.6299,-50.8689 -34.6299,-83.3446l0 -300.529c0,-32.4756 13.2638,-61.976 34.6299,-83.3446 21.3662,-21.3662 50.8689,-34.6299 83.3446,-34.6299z"/>
   <path id="_487857912" class="fil1" d="M1311.67 350.366l0 127.999 127.999 0 0 -127.999 -127.999 0zm-223.827 127.999l127.999 0 0 -127.999 -127.999 0 0 127.999zm448.305 -127.999l0 127.999 127.999 0 0 -127.999 -127.999 0zm-1248.15 -94.3666l1472 0c17.6728,0 32.0008,14.328 32.0008,32.0008l0 288 -1536 0 0 -288c0,-17.6728 14.328,-32.0008 32.0008,-32.0008z"/>
  </g>
  <path class="fil1" d="M928.497 1200.78c0,-17.6728 -14.328,-32.0008 -32.0008,-32.0008 -17.6728,0 -32.0008,14.328 -32.0008,32.0008l0 31.2095c0,17.6728 14.328,32.0008 32.0008,32.0008 17.6728,0 32.0008,-14.328 32.0008,-32.0008l0 -31.2095z"/>
  <path class="fil1" d="M1183.5 1200.78c0,-17.6728 -14.328,-32.0008 -32.0008,-32.0008 -17.6728,0 -32.0008,14.328 -32.0008,32.0008l0 31.2095c0,17.6728 14.328,32.0008 32.0008,32.0008 17.6728,0 32.0008,-14.328 32.0008,-32.0008l0 -31.2095z"/>
  <path class="fil1" d="M1056 1236.97c0,-17.6728 -14.328,-32.0008 -32.0008,-32.0008 -17.6728,0 -32.0008,14.328 -32.0008,32.0008l0 140.206c0,17.6728 14.328,32.0008 32.0008,32.0008 17.6728,0 32.0008,-14.328 32.0008,-32.0008l0 -140.206z"/>
  <path class="fil1" d="M1173.76 1437.76c9.52678,-14.8417 5.21693,-34.5981 -9.62481,-44.1248 -14.8417,-9.52678 -34.5981,-5.21693 -44.1248,9.62481 -5.88189,9.18308 -17.7425,17.328 -33.3579,23.5441 -17.9693,7.15276 -40.2189,11.2382 -64.193,11.2382 -22.7055,0 -43.9087,-3.66496 -61.3737,-10.1622 -15.6118,-5.80867 -27.8492,-13.5496 -34.7126,-22.4788 -10.7693,-13.9441 -30.8055,-16.5189 -44.7496,-5.74961 -13.9441,10.7693 -16.5189,30.8055 -5.74961,44.7496 14.2122,18.489 36.3343,33.3225 62.9623,43.2284 24.7748,9.21733 53.7059,14.4142 83.6233,14.4142 31.6843,0 62.1272,-5.81221 87.6922,-15.9886 27.9177,-11.1142 50.4437,-27.7406 63.6083,-48.2953z"/>
 </g>
 <rect class="fil2" width="2048" height="2048"/>
</svg>
