<?xml version="1.0" encoding="UTF-8"?>
<!DOCTYPE svg PUBLIC "-//W3C//DTD SVG 1.1//EN" "http://www.w3.org/Graphics/SVG/1.1/DTD/svg11.dtd">
<!-- Creator: CorelDRAW -->
<svg xmlns="http://www.w3.org/2000/svg" xml:space="preserve" width="2048px" height="2048px" style="shape-rendering:geometricPrecision; text-rendering:geometricPrecision; image-rendering:optimizeQuality; fill-rule:evenodd; clip-rule:evenodd"
viewBox="0 0 2048 2048"
 xmlns:xlink="http://www.w3.org/1999/xlink">
 <defs>
  <style type="text/css">
   <![CDATA[
    .fil2 {fill:none}
    .fil0 {fill:#424242}
    .fil1 {fill:#424242;fill-rule:nonzero}
   ]]>
  </style>
 </defs>
 <g id="Layer_x0020_1">
  <metadata id="CorelCorpID_0Corel-Layer"/>
  <g id="_487859760">
   <path id="_487859352" class="fil0" d="M1792 608.002l0 1152c0,17.6728 -14.328,32.0008 -32.0008,32.0008l-1472 0c-17.6728,0 -32.0008,-14.328 -32.0008,-32.0008l0 -1152 1536 0zm-401.183 991.997l0 -315.422 64.1953 0 0 261.815 159.637 0 0 53.6067 -223.832 0zm-372.657 0l0 -318.013 96.1076 0 57.6792 216.945 57.013 -216.945 96.3296 0 0 318.013 -59.6044 0 0 -250.338 -63.1583 250.338 -61.826 0 -62.9363 -250.338 0 250.338 -59.6044 0zm-584.81 0l0 -318.013 64.2686 0 0 125.132 125.799 0 0 -125.132 64.1941 0 0 318.013 -64.1941 0 0 -139.052 -125.799 0 0 139.052 -64.2686 0zm385.03 0l0 -264.184 -94.33 0 0 -53.8288 252.708 0 0 53.8288 -94.1079 0 0 264.184 -64.2697 0zm399.357 -524.352l0 -39.2929 286.262 0 0 39.2929 -286.262 0zm-78.7583 -125.736l-233.023 125.736 0 -54.2847 184.534 -96.5776 -184.534 -95.7497 0 -54.1819 233.023 124.185 0 50.8737zm-594.98 0l0 -50.8737 233.023 -124.185 0 54.1819 -184.781 95.7497 184.781 96.5776 0 54.2847 -233.023 -125.736z"/>
   <path id="_487859616" class="fil1" d="M1311.67 350.366l0 127.999 127.999 0 0 -127.999 -127.999 0zm-223.827 127.999l127.999 0 0 -127.999 -127.999 0 0 127.999zm448.305 -127.999l0 127.999 127.999 0 0 -127.999 -127.999 0zm-1248.15 -94.3666l1472 0c17.6728,0 32.0008,14.328 32.0008,32.0008l0 288 -1536 0 0 -288c0,-17.6728 14.328,-32.0008 32.0008,-32.0008z"/>
  </g>
 </g>
 <rect class="fil2" width="2048" height="2048"/>
</svg>
