<?xml version="1.0" encoding="UTF-8"?>
<!DOCTYPE svg PUBLIC "-//W3C//DTD SVG 1.1//EN" "http://www.w3.org/Graphics/SVG/1.1/DTD/svg11.dtd">
<!-- Creator: CorelDRAW -->
<svg xmlns="http://www.w3.org/2000/svg" xml:space="preserve" width="2048px" height="2048px" style="shape-rendering:geometricPrecision; text-rendering:geometricPrecision; image-rendering:optimizeQuality; fill-rule:evenodd; clip-rule:evenodd"
viewBox="0 0 2048 2048"
 xmlns:xlink="http://www.w3.org/1999/xlink">
 <defs>
  <style type="text/css">
   <![CDATA[
    .fil2 {fill:none}
    .fil0 {fill:#424242}
    .fil1 {fill:#424242;fill-rule:nonzero}
   ]]>
  </style>
 </defs>
 <g id="Layer_x0020_1">
  <metadata id="CorelCorpID_0Corel-Layer"/>
  <g id="_487860384">
   <path id="_487861392" class="fil0" d="M280.325 501.563l1127.46 0c13.4339,0 24.326,10.8921 24.326,24.326l0 242.543c-15.6685,-7.95709 -31.9406,-14.6599 -48.652,-20.0445l0 -198.173 -1078.8 0 0 495.493 646.217 0c-0.529134,9.56694 -0.64252,19.1835 -0.33189,28.8248 2.04095,63.3213 21.9059,123.859 56.7981,175.297l-727.009 0c-13.4339,0 -24.326,-10.891 -24.326,-24.326l0 -699.615c0,-13.4339 10.8921,-24.326 24.326,-24.326z"/>
   <path id="_487861368" class="fil1" d="M906.578 1225.5c0,-13.4339 -27.9945,-24.326 -62.5241,-24.326 -34.5296,0 -62.5241,10.8921 -62.5241,24.326l0 164.883c0,13.4339 27.9945,24.326 62.5241,24.326 34.5296,0 62.5241,-10.8921 62.5241,-24.326l0 -164.883z"/>
   <path id="_487860744" class="fil1" d="M601.822 1400.47c0,51.9272 484.464,51.9272 484.464,0 0,-51.9272 -484.464,-51.9272 -484.464,0z"/>
   <polygon id="_487860960" class="fil1" points="953.652,814.721 728.624,936.144 728.624,883.72 906.826,790.457 728.624,697.992 728.624,645.669 953.652,765.594 "/>
   <polygon id="_487861152" class="fil1" points="379.086,814.721 379.086,765.594 604.114,645.669 604.114,697.992 425.673,790.457 604.114,883.72 604.114,936.144 "/>
   <path id="_487860216" class="fil1" d="M1063.39 858.981c56.5252,-60.2894 132.199,-91.9654 208.847,-94.4351 76.5981,-2.46732 154.143,24.2799 214.481,80.8312l0.0507874 -0.0543308c0.240945,0.225591 0.475985,0.455906 0.707481,0.687402l0.0011811 -0.0011811 0.155906 0.16063 0.372048 0.380315 0.0838583 0.0885827 0.334252 0.354331c59.2052,56.3528 90.3225,131.329 92.7698,207.266 2.46851,76.5981 -24.2799,154.143 -80.83,214.48l0.0543308 0.0507874c-0.226772,0.240945 -0.457087,0.477166 -0.687402,0.708662l0 0.0011811 -0.159449 0.155906 -0.380315 0.370866 -0.0897638 0.0838583 -0.354331 0.334252c-56.3528,59.2052 -131.33,90.3249 -207.267,92.7709 -76.6146,2.46851 -154.178,-24.2906 -214.521,-80.8666 -60.2906,-56.5252 -91.9654,-132.199 -94.4351,-208.846 -2.46851,-76.6158 24.2918,-154.18 80.8666,-214.521zm210.76 -33.4914c-60.9662,1.96536 -121.223,27.2256 -166.308,75.3154 -45.0366,48.0367 -66.3402,109.787 -64.3749,170.784 1.96417,60.9662 27.2256,121.223 75.3142,166.308 48.0378,45.0378 109.788,66.3414 170.786,64.3749 60.3508,-1.94528 120.006,-26.7236 164.938,-73.8745l0.13937 -0.165354 0.133465 -0.159449 0.338977 -0.389764 0.184252 -0.210236 0.315355 -0.344882 0.168898 -0.183071 0.0011811 0c0.223229,-0.238583 0.448819,-0.473622 0.682678,-0.707481l0.00236221 0.00236221 0.0011811 -0.0011811 0.034252 0.0354331c44.602,-47.9386 65.7001,-109.393 63.743,-170.102 -1.94528,-60.3508 -26.7236,-120.005 -73.8733,-164.936l-0.165354 -0.13937 -0.16063 -0.133465 -0.389764 -0.337796 -0.209055 -0.185433 -0.344882 -0.315355 -0.184252 -0.167717 0.0011811 -0.0011811c-0.238583,-0.223229 -0.473622,-0.45 -0.707481,-0.683859l0.00236221 -0.0011811 -0.0011811 -0.0011811 0.034252 -0.0354331c-47.9386,-44.6008 -109.393,-65.6989 -170.102,-63.743z"/>
   <path id="_487860120" class="fil1" d="M1500.69 1231.53c-11.0244,-10.3724 -28.3725,-9.84331 -38.7449,1.1811 -10.3724,11.0244 -9.8445,28.3725 1.17992,38.7449l56.9835 59.5595c12.8398,12.0803 33.0449,11.465 45.1252,-1.3748 12.0803,-12.8398 11.465,-33.0449 -1.3748,-45.1252l-63.1689 -52.9855z"/>
   <path id="_487860552" class="fil1" d="M1594.46 1284.91l170.049 132.863c1.40669,0.914174 2.75079,1.96536 4.01811,3.15236l-0.0106299 0.0850394c24.9768,23.4166 28.0299,52.4752 18.4748,77.041 -3.5563,9.14292 -8.90198,17.5181 -15.5114,24.5693 -6.60591,7.04882 -14.6032,12.9118 -23.465,17.0339 -23.2666,10.8224 -51.5918,9.94371 -76.2001,-11.8347 -1.32874,-1.04291 -2.58425,-2.21693 -3.74646,-3.52323l0.0177165 -0.0307087 -145.915 -163.813c-16.7917,-16.7398 -18.6603,-37.2898 -11.8536,-54.7878 2.55945,-6.58229 6.38504,-12.5894 11.1047,-17.6232 4.71733,-5.0315 10.448,-9.22796 16.8189,-12.1913 16.813,-7.82008 37.1811,-7.34056 54.8977,7.89568l0.119291 0.0897638 -0.00590552 0.00708662c0.402756,0.347244 0.805512,0.702756 1.20709,1.06654z"/>
   <path id="_487860576" class="fil1" d="M1187.71 1052.91l188.291 0c13.2543,0 24,10.7457 24,24l0 106.096c0,13.2543 -10.7457,24 -24,24l-188.291 0c-13.2543,0 -24,-10.7457 -24,-24l0 -106.096c0,-13.2543 10.7457,-24 24,-24z"/>
   <path id="_487860456" class="fil1" d="M1309.86 1076.91c0,13.2543 10.7457,24 24,24 13.2543,0 24,-10.7457 24,-24l0 -85.3312c0,-19.5036 -7.963,-37.2177 -20.7874,-50.0433 -12.8256,-12.8244 -30.5398,-20.7874 -50.0433,-20.7874l-10.3429 0c-19.5036,0 -37.2177,7.963 -50.0433,20.7886 -12.8256,12.8244 -20.7886,30.5398 -20.7886,50.0422l0 85.3312c0,13.2543 10.7457,24 24,24 13.2543,0 24,-10.7457 24,-24l0 -85.3312c0,-6.25158 2.57717,-11.9551 6.72638,-16.1043 4.14922,-4.14922 9.85276,-6.72638 16.1055,-6.72638l10.3429 0c6.25276,0 11.9563,2.57717 16.1055,6.7252 4.14803,4.14922 6.7252,9.85276 6.7252,16.1055l0 85.3312z"/>
  </g>
 </g>
 <rect class="fil2" width="2048" height="2048"/>
</svg>
