<?xml version="1.0" encoding="UTF-8"?>
<!DOCTYPE svg PUBLIC "-//W3C//DTD SVG 1.1//EN" "http://www.w3.org/Graphics/SVG/1.1/DTD/svg11.dtd">
<!-- Creator: CorelDRAW -->
<svg xmlns="http://www.w3.org/2000/svg" xml:space="preserve" width="2048px" height="2048px" style="shape-rendering:geometricPrecision; text-rendering:geometricPrecision; image-rendering:optimizeQuality; fill-rule:evenodd; clip-rule:evenodd"
viewBox="0 0 2048 2048"
 xmlns:xlink="http://www.w3.org/1999/xlink">
 <defs>
  <style type="text/css">
   <![CDATA[
    .fil2 {fill:none}
    .fil0 {fill:#424242}
    .fil1 {fill:#424242;fill-rule:nonzero}
   ]]>
  </style>
 </defs>
 <g id="Layer_x0020_1">
  <metadata id="CorelCorpID_0Corel-Layer"/>
  <g id="_487862952">
   <path id="_487862256" class="fil0" d="M282.429 407.136l1483.14 0c17.6728,0 32.0008,14.328 32.0008,32.0008l0 920.326c0,17.6728 -14.328,32.0008 -32.0008,32.0008l-1483.14 0c-17.6728,0 -32.0008,-14.328 -32.0008,-32.0008l0 -920.326c0,-17.6728 14.328,-32.0008 32.0008,-32.0008zm1216.15 815.48l62.8914 0 0 64.0016 -62.8914 0 0 -64.0016zm102.735 0l62.8914 0 0 64.0016 -62.8914 0 0 -64.0016zm132.26 -751.478l-1419.14 0 0 651.808 1419.14 0 0 -651.808z"/>
   <path id="_487862472" class="fil1" d="M1106.25 1359.46c0,-17.6728 -36.8256,-32.0008 -82.2485,-32.0008 -45.4229,0 -82.2485,14.328 -82.2485,32.0008l0 216.9c0,17.6728 36.8256,32.0008 82.2485,32.0008 45.4229,0 82.2485,-14.328 82.2485,-32.0008l0 -216.9z"/>
   <path id="_487862736" class="fil1" d="M705.35 1589.63c0,68.3091 637.301,68.3091 637.301,0 0,-68.3091 -637.301,-68.3091 -637.301,0z"/>
  </g>
  <path class="fil1" d="M395.924 547.169l1256.15 0c8.83583,0 16.0004,7.16457 16.0004,16.0004l0 128.001c0,8.83583 -7.16457,16.0004 -16.0004,16.0004l-1256.15 0c-8.83583,0 -16.0004,-7.16457 -16.0004,-16.0004l0 -128.001c0,-8.83583 7.16457,-16.0004 16.0004,-16.0004z"/>
  <path class="fil1" d="M399.194 754.042l253.223 0c8.83583,0 16.0004,7.16457 16.0004,16.0004l0 157.956c0,8.83583 -7.16457,16.0004 -16.0004,16.0004l-253.223 0c-8.83583,0 -16.0004,-7.16457 -16.0004,-16.0004l0 -157.956c0,-8.83583 7.16457,-16.0004 16.0004,-16.0004z"/>
  <path class="fil1" d="M731.324 754.042l253.223 0c8.83583,0 16.0004,7.16457 16.0004,16.0004l0 157.956c0,8.83583 -7.16457,16.0004 -16.0004,16.0004l-253.223 0c-8.83583,0 -16.0004,-7.16457 -16.0004,-16.0004l0 -157.956c0,-8.83583 7.16457,-16.0004 16.0004,-16.0004z"/>
  <path class="fil1" d="M1063.45 754.042l253.223 0c8.83583,0 16.0004,7.16457 16.0004,16.0004l0 157.956c0,8.83583 -7.16457,16.0004 -16.0004,16.0004l-253.223 0c-8.83583,0 -16.0004,-7.16457 -16.0004,-16.0004l0 -157.956c0,-8.83583 7.16457,-16.0004 16.0004,-16.0004z"/>
  <path class="fil1" d="M1395.58 754.042l253.223 0c8.83583,0 16.0004,7.16457 16.0004,16.0004l0 157.956c0,8.83583 -7.16457,16.0004 -16.0004,16.0004l-253.223 0c-8.83583,0 -16.0004,-7.16457 -16.0004,-16.0004l0 -157.956c0,-8.83583 7.16457,-16.0004 16.0004,-16.0004z"/>
  <path class="fil1" d="M399.194 975.999l253.223 0c8.83583,0 16.0004,7.16457 16.0004,16.0004l0 97.3891 -285.223 0 0 -97.3891c0,-8.83583 7.16457,-16.0004 16.0004,-16.0004z"/>
  <path class="fil1" d="M715.111 1072l949.694 0 0 -32.0008 -949.694 0 0 32.0008zm0 -64.0004l949.694 0 0 -32.0008 -949.694 0 0 32.0008z"/>
 </g>
 <rect class="fil2" width="2048" height="2048"/>
</svg>
