<?xml version="1.0" encoding="UTF-8"?>
<!DOCTYPE svg PUBLIC "-//W3C//DTD SVG 1.1//EN" "http://www.w3.org/Graphics/SVG/1.1/DTD/svg11.dtd">
<!-- Creator: CorelDRAW -->
<svg xmlns="http://www.w3.org/2000/svg" xml:space="preserve" width="2048px" height="2048px" style="shape-rendering:geometricPrecision; text-rendering:geometricPrecision; image-rendering:optimizeQuality; fill-rule:evenodd; clip-rule:evenodd"
viewBox="0 0 2048 2048"
 xmlns:xlink="http://www.w3.org/1999/xlink">
 <defs>
  <style type="text/css">
   <![CDATA[
    .fil2 {fill:none}
    .fil0 {fill:#424242}
    .fil1 {fill:#424242;fill-rule:nonzero}
   ]]>
  </style>
 </defs>
 <g id="Layer_x0020_1">
  <metadata id="CorelCorpID_0Corel-Layer"/>
  <g id="_487863096">
   <path id="_487863768" class="fil0" d="M282.429 407.136l1483.14 0c17.6728,0 32.0008,14.328 32.0008,32.0008l0 920.326c0,17.6728 -14.328,32.0008 -32.0008,32.0008l-1483.14 0c-17.6728,0 -32.0008,-14.328 -32.0008,-32.0008l0 -920.326c0,-17.6728 14.328,-32.0008 32.0008,-32.0008zm1216.15 815.48l62.8914 0 0 64.0016 -62.8914 0 0 -64.0016zm102.735 0l62.8914 0 0 64.0016 -62.8914 0 0 -64.0016zm132.26 -751.478l-1419.14 0 0 651.808 1419.14 0 0 -651.808z"/>
   <path id="_487863144" class="fil1" d="M1106.25 1359.46c0,-17.6728 -36.8256,-32.0008 -82.2485,-32.0008 -45.4229,0 -82.2485,14.328 -82.2485,32.0008l0 216.9c0,17.6728 36.8256,32.0008 82.2485,32.0008 45.4229,0 82.2485,-14.328 82.2485,-32.0008l0 -216.9z"/>
   <path id="_487863288" class="fil1" d="M705.35 1589.63c0,68.3091 637.301,68.3091 637.301,0 0,-68.3091 -637.301,-68.3091 -637.301,0z"/>
  </g>
  <path class="fil1" d="M917.211 714.412l213.579 0c13.2543,0 24,10.7457 24,24l0 120.345c0,13.2543 -10.7457,24 -24,24l-213.579 0c-13.2543,0 -24,-10.7457 -24,-24l0 -120.345c0,-13.2543 10.7457,-24 24,-24z"/>
  <path class="fil1" d="M1058.99 738.412c0,13.2543 10.7457,24 24,24 13.2543,0 24,-10.7457 24,-24l0 -96.7902c0,-21.2315 -8.67048,-40.5201 -22.6347,-54.4855 -13.9654,-13.9654 -33.2528,-22.6358 -54.4855,-22.6358l-11.7319 0c-21.2327,0 -40.5201,8.67048 -54.4855,22.6358 -13.9654,13.9654 -22.6358,33.2528 -22.6358,54.4855l0 96.7902c0,13.2543 10.7457,24 24,24 13.2543,0 24,-10.7457 24,-24l0 -96.7902c0,-7.98071 3.28465,-15.2587 8.57363,-20.5477 5.28898,-5.28898 12.5669,-8.57363 20.5477,-8.57363l11.7319 0c7.98071,0 15.2587,3.28465 20.5477,8.57363 5.2878,5.28898 8.57245,12.5646 8.57245,20.5477l0 96.7902z"/>
  <path class="fil1" d="M648.29 924.499l751.421 0c8.83583,0 16.0004,7.16457 16.0004,16.0004l0 79.069c0,8.83583 -7.16457,16.0004 -16.0004,16.0004l-751.421 0c-8.83583,0 -16.0004,-7.16457 -16.0004,-16.0004l0 -79.069c0,-8.83583 7.16457,-16.0004 16.0004,-16.0004zm585.421 32.0008l-569.421 0 0 47.0681 569.421 0 0 -47.0681z"/>
 </g>
 <rect class="fil2" width="2048" height="2048"/>
</svg>
