<?xml version="1.0" encoding="UTF-8"?>
<!DOCTYPE svg PUBLIC "-//W3C//DTD SVG 1.1//EN" "http://www.w3.org/Graphics/SVG/1.1/DTD/svg11.dtd">
<!-- Creator: CorelDRAW -->
<svg xmlns="http://www.w3.org/2000/svg" xml:space="preserve" width="2048px" height="2048px" style="shape-rendering:geometricPrecision; text-rendering:geometricPrecision; image-rendering:optimizeQuality; fill-rule:evenodd; clip-rule:evenodd"
viewBox="0 0 2048 2048"
 xmlns:xlink="http://www.w3.org/1999/xlink">
 <defs>
  <style type="text/css">
   <![CDATA[
    .fil1 {fill:none}
    .fil0 {fill:#424242}
   ]]>
  </style>
 </defs>
 <g id="Layer_x0020_1">
  <metadata id="CorelCorpID_0Corel-Layer"/>
  <path class="fil0" d="M1614.48 1077.89l-94.8839 -189.757c-8.41536,-16.8437 -11.0256,-36.2788 -7.32993,-54.7512l20.3043 -101.556c0.338977,-1.67953 0.507874,-3.39095 0.507874,-5.12244 0.0011811,-187.599 -110.327,-349.924 -269.502,-425.497 -143.636,-68.1934 -401.257,-61.0441 -542.247,7.70197 -175.324,85.4847 -296.411,265.563 -296.411,473.381 0,145.228 34.8733,265.342 68.5949,381.5 32.3988,111.604 65.8394,226.765 69.9402,367.721 0.243307,8.38701 0.383859,206.777 0.413386,260.492l552.348 0 0 -92.6162c0,-77.5678 63.1146,-140.684 140.704,-140.684l92.2406 0c70.7965,0 130.859,-55.2638 136.748,-125.826l17.9646 -215.508 67.9146 -27.1689c21.1335,-8.45079 37.8957,-25.5106 45.9851,-46.7847 8.09056,-21.2681 6.88701,-45.1512 -3.29173,-65.5252zm-632.195 -629.887c28.95,0 52.4185,23.4673 52.4185,52.4174 0,6.0567 -1.02992,11.8713 -2.91969,17.2831l277.199 208.461c8.56064,-6.08623 19.0276,-9.66615 30.3319,-9.66615 28.95,0 52.4174,23.4673 52.4174,52.4174 0,28.9512 -23.4673,52.4185 -52.4174,52.4185 -5.35394,0 -10.5201,-0.804331 -15.3839,-2.29488l-82.4847 118.623c1.76339,5.24764 2.72008,10.8673 2.72008,16.7091 0,28.95 -23.4673,52.4174 -52.4174,52.4174 -17.7165,0 -33.378,-8.78977 -42.8658,-22.2449l-141.745 17.2252c-4.60748,24.2433 -25.9063,42.5717 -51.4902,42.5717 -28.95,0 -52.4174,-23.4673 -52.4174,-52.4174 0,-5.66221 0.901182,-11.1142 2.56299,-16.2225l-251.636 -180.989c-8.72245,6.48308 -19.5295,10.3181 -31.2319,10.3181 -28.95,0 -52.4185,-23.4673 -52.4185,-52.4174 0,-28.9512 23.4685,-52.4185 52.4185,-52.4185 10.5532,0 20.3764,3.12047 28.6004,8.48623l280.686 -192.716c-1.52362,-4.91221 -2.34331,-10.1327 -2.34331,-15.5445 0,-28.95 23.4673,-52.4174 52.4174,-52.4174zm315.408 352.771c-2.56536,-3.34607 -4.73859,-7.01103 -6.44528,-10.9252l-302.996 -19.0736c-0.248032,0.754725 -0.511418,1.50118 -0.79252,2.23937l174.019 138.561c8.55001,-6.05906 18.9933,-9.62245 30.2705,-9.62245 10.8732,0 20.9729,3.31063 29.3457,8.97757l76.5981 -110.157zm-285.077 -257.603c-6.69686,4.75985 -14.5606,7.9878 -23.0788,9.16654l-26.8536 155.576c12.2421,6.39567 21.6437,17.4827 25.8166,30.8764l299.615 18.8599c0.45,-2.05276 1.02165,-4.05945 1.70433,-6.01418l-277.204 -208.465zm-54.5682 3.73583c-2.64685,-1.38425 -5.16378,-2.98583 -7.52127,-4.78465l-278.77 191.401c0.440552,1.12677 0.843308,2.27244 1.20709,3.43583l215.627 1.22126c6.10985,-18.789 22.5414,-32.9197 42.6036,-35.6977l26.8536 -155.576zm-31.9299 258.451l9.98741 137.914c-4.19292,1.68662 -8.11654,3.89646 -11.6906,6.55276l-251.635 -180.989 0.0011811 -0.00236221 215.626 1.22126c5.45315,17.4532 19.7882,30.9827 37.7114,35.3032zm41.8583 135.606l-9.98741 -137.91c3.37914,-1.35827 6.58347,-3.05906 9.57166,-5.05867l174.691 139.096c-1.79764,5.14961 -2.81575,10.6654 -2.90906,16.4067l-136.056 16.5343c-6.62717,-14.3965 -19.5874,-25.2768 -35.3103,-29.0681z"/>
 </g>
 <rect class="fil1" width="2048" height="2048"/>
</svg>
