<?xml version="1.0" encoding="UTF-8"?>
<!DOCTYPE svg PUBLIC "-//W3C//DTD SVG 1.1//EN" "http://www.w3.org/Graphics/SVG/1.1/DTD/svg11.dtd">
<!-- Creator: CorelDRAW -->
<svg xmlns="http://www.w3.org/2000/svg" xml:space="preserve" width="2048px" height="2048px" style="shape-rendering:geometricPrecision; text-rendering:geometricPrecision; image-rendering:optimizeQuality; fill-rule:evenodd; clip-rule:evenodd"
viewBox="0 0 2048 2048"
 xmlns:xlink="http://www.w3.org/1999/xlink">
 <defs>
  <style type="text/css">
   <![CDATA[
    .fil2 {fill:none}
    .fil1 {fill:#424242}
    .fil0 {fill:#424242;fill-rule:nonzero}
   ]]>
  </style>
 </defs>
 <g id="Layer_x0020_1">
  <metadata id="CorelCorpID_0Corel-Layer"/>
  <g id="_487864536">
   <path id="_487866120" class="fil0" d="M1290.6 564.657c99.2835,0 189.186,40.2555 254.263,105.333 65.0752,65.0752 105.331,154.974 105.331,254.261 0,99.8977 -30.4666,153.508 -62.9977,210.753 -26.7969,47.1544 -55.1871,97.1209 -64.5438,183.359 -0.265748,17.4969 -7.44804,33.2977 -18.9461,44.7957 -11.7201,11.7177 -27.9047,18.9543 -45.8032,18.9543l-334.621 0c-17.8973,0 -34.0831,-7.23662 -45.8032,-18.9543 -11.0823,-11.0823 -18.1559,-26.1626 -18.8894,-42.9071 -0.0519685,-0.584646 -0.0885827,-1.17284 -0.109843,-1.76457 -3.94252,-36.5398 -11.3008,-66.5693 -20.511,-92.6304 10.0878,-24.1051 23.3114,-47.3563 39.0461,-75.0438 4.56733,-8.03623 9.13347,-16.0736 13.5839,-24.176 37.1445,-67.6406 53.5926,-124.369 53.5926,-202.386 0,-97.1528 -35.7048,-189.843 -100.252,-261.64 64.3878,-60.7241 151.181,-97.9536 246.66,-97.9536z"/>
   <path id="_487866192" class="fil0" d="M752.599 564.657c99.2835,0 189.184,40.2544 254.262,105.333 65.0752,65.0752 105.331,154.974 105.331,254.261 0,99.8977 -30.4654,153.509 -62.9977,210.751 -26.7969,47.1555 -55.1871,97.1221 -64.5426,183.36 -0.265748,17.4969 -7.44804,33.2977 -18.9461,44.7957 -11.7201,11.7177 -27.9059,18.9543 -45.8032,18.9543l-334.622 0c-17.8984,0 -34.0831,-7.23662 -45.8032,-18.9543 -11.0823,-11.0823 -18.1559,-26.1626 -18.8894,-42.9071 -0.0519685,-0.584646 -0.0885827,-1.17284 -0.109843,-1.76457 -9.31418,-86.3363 -37.7055,-136.329 -64.5071,-183.509 -32.5122,-57.2351 -62.9658,-110.845 -62.9658,-210.727 0,-99.2894 40.2532,-189.189 105.33,-254.264 65.0752,-65.0764 154.975,-105.33 254.264,-105.33z"/>
   <path id="_487866168" class="fil1" d="M1401.58 1614.94c0,35.3587 -24.8292,63.9969 -55.4871,63.9969l-110.984 0c-30.6567,0 -55.4871,-28.6382 -55.4871,-63.9969l221.958 0z"/>
   <path id="_487865856" class="fil1" d="M1454.4 1516.66c18.1323,0 32.7567,14.2843 32.7567,31.9961 0,17.7106 -14.6244,31.9973 -32.7567,31.9973l-327.593 0c-18.1453,0 -32.7709,-14.2866 -32.7709,-31.9973 0,-17.7118 14.6232,-31.9961 32.7709,-31.9961l327.593 0z"/>
   <path id="_487865736" class="fil1" d="M1454.4 1418.38c18.1323,0 32.7567,14.2854 32.7567,32.0103 0,17.7118 -14.6244,31.9961 -32.7567,31.9961l-327.593 0c-18.1453,0 -32.7709,-14.2843 -32.7709,-31.9961 0,-17.7248 14.6232,-32.0103 32.7709,-32.0103l327.593 0z"/>
   <path id="_487865352" class="fil1" d="M863.57 1614.94c0,35.3575 -24.828,63.9945 -55.4871,63.9945l-110.982 0c-30.6567,0 -55.4871,-28.637 -55.4871,-63.9945l221.956 0z"/>
   <path id="_487865424" class="fil1" d="M916.394 1516.66c18.1335,0 32.7579,14.2854 32.7579,31.9984 0,17.7118 -14.6244,31.9996 -32.7579,31.9996l-327.592 0c-18.1465,0 -32.7721,-14.2878 -32.7721,-31.9996 0,-17.713 14.6244,-31.9984 32.7721,-31.9984l327.592 0z"/>
   <path id="_487865496" class="fil1" d="M916.394 1418.38c18.1335,0 32.7579,14.2854 32.7579,32.0079 0,17.7106 -14.6244,31.9937 -32.7579,31.9937l-327.592 0c-18.1465,0 -32.7721,-14.2831 -32.7721,-31.9937 0,-17.7225 14.6244,-32.0079 32.7721,-32.0079l327.592 0z"/>
   <path id="_487865616" class="fil0" d="M768.601 385.063c0,-8.83583 -7.16457,-16.0004 -16.0004,-16.0004 -8.83583,0 -16.0004,7.16457 -16.0004,16.0004l0 111.082c0,8.83583 7.16457,16.0004 16.0004,16.0004 8.83583,0 16.0004,-7.16457 16.0004,-16.0004l0 -111.082z"/>
   <path id="_487865760" class="fil0" d="M1311.4 385.063c0,-8.83583 -7.16457,-16.0004 -16.0004,-16.0004 -8.83583,0 -16.0004,7.16457 -16.0004,16.0004l0 111.082c0,8.83583 7.16457,16.0004 16.0004,16.0004 8.83583,0 16.0004,-7.16457 16.0004,-16.0004l0 -111.082z"/>
   <path id="_487865472" class="fil0" d="M406.674 500.448c-5.65985,-6.76536 -15.7347,-7.66064 -22.5,-2.00079 -6.76536,5.65985 -7.66064,15.7347 -2.00079,22.5l68.9965 82.5886c5.65985,6.76536 15.7347,7.66064 22.5,2.00079 6.76536,-5.65985 7.66064,-15.7347 2.00079,-22.5l-68.9965 -82.5886z"/>
   <path id="_487865808" class="fil0" d="M1665.83 520.947c5.65985,-6.76536 4.76457,-16.8402 -2.00079,-22.5 -6.76536,-5.65985 -16.8402,-4.76457 -22.5,2.00079l-68.9965 82.5886c-5.65985,6.76536 -4.76457,16.8402 2.00079,22.5 6.76536,5.65985 16.8402,4.76457 22.5,-2.00079l68.9965 -82.5886z"/>
   <path id="_487864920" class="fil0" d="M233.84 955.948c-8.80158,-0.034252 -15.9662,7.07363 -16.0004,15.8752 -0.034252,8.80158 7.07363,15.9662 15.8752,16.0004l101.08 0.77126c8.80158,0.034252 15.9662,-7.07363 16.0004,-15.8752 0.034252,-8.80158 -7.07363,-15.9662 -15.8752,-16.0004l-101.08 -0.77126z"/>
   <path id="_487864872" class="fil0" d="M1814.29 987.824c8.80158,-0.034252 15.9095,-7.19882 15.8752,-16.0004 -0.034252,-8.80158 -7.19882,-15.9095 -16.0004,-15.8752l-101.08 0.77126c-8.80158,0.034252 -15.9095,7.19882 -15.8752,16.0004 0.034252,8.80158 7.19882,15.9095 16.0004,15.8752l101.08 -0.77126z"/>
   <path id="_487864608" class="fil1" d="M600.598 1331.13l304.002 0 0 269.053c0,10.4221 -8.5252,18.9473 -18.9473,18.9473l-266.107 0c-10.4221,0 -18.9473,-8.5252 -18.9473,-18.9473l0 -269.053z"/>
   <path id="_487864560" class="fil1" d="M1138.6 1331.13l304.002 0 0 269.053c0,10.4221 -8.5252,18.9473 -18.9473,18.9473l-266.107 0c-10.4221,0 -18.9473,-8.5252 -18.9473,-18.9473l0 -269.053z"/>
  </g>
 </g>
 <rect class="fil2" width="2048" height="2048"/>
</svg>
