<?xml version="1.0" encoding="UTF-8"?>
<!DOCTYPE svg PUBLIC "-//W3C//DTD SVG 1.1//EN" "http://www.w3.org/Graphics/SVG/1.1/DTD/svg11.dtd">
<!-- Creator: CorelDRAW -->
<svg xmlns="http://www.w3.org/2000/svg" xml:space="preserve" width="2048px" height="2048px" style="shape-rendering:geometricPrecision; text-rendering:geometricPrecision; image-rendering:optimizeQuality; fill-rule:evenodd; clip-rule:evenodd"
viewBox="0 0 2048 2048"
 xmlns:xlink="http://www.w3.org/1999/xlink">
 <defs>
  <style type="text/css">
   <![CDATA[
    .fil2 {fill:none}
    .fil1 {fill:#424242}
    .fil0 {fill:#424242;fill-rule:nonzero}
   ]]>
  </style>
 </defs>
 <g id="Layer_x0020_1">
  <metadata id="CorelCorpID_0Corel-Layer"/>
  <path class="fil0" d="M810.416 433.588c-8.83583,0 -16.0004,7.16457 -16.0004,16.0004 0,8.83583 7.16457,16.0004 16.0004,16.0004l133.249 0 0 1054.41 -133.249 0c-8.83583,0 -16.0004,7.16457 -16.0004,16.0004 0,8.83583 7.16457,16.0004 16.0004,16.0004l149.249 0c8.83583,0 16.0004,-7.16457 16.0004,-16.0004l0 -1086.41c0,-8.83583 -7.16457,-16.0004 -16.0004,-16.0004l-149.249 0z"/>
  <path class="fil0" d="M1139.21 1013.11c8.83583,0 16.0004,-7.16457 16.0004,-16.0004 0,-8.83583 -7.16457,-16.0004 -16.0004,-16.0004l-328.794 0c-8.83583,0 -16.0004,7.16457 -16.0004,16.0004 0,8.83583 7.16457,16.0004 16.0004,16.0004l328.794 0z"/>
  <path class="fil0" d="M566.252 627.233c0,-13.2543 -10.7457,-24 -24,-24 -13.2543,0 -24,10.7457 -24,24l0 76.3607c0,13.2543 10.7457,24 24,24 13.2543,0 24,-10.7457 24,-24l0 -76.3607z"/>
  <path class="fil0" d="M1187.07 1172.09c61.5993,103.129 148.845,189.201 252.932,249.441 104.087,-60.2398 191.332,-146.313 252.931,-249.443 62.9138,-105.328 99.0686,-228.667 99.0686,-360.64 0,-33.4618 -2.24055,-65.9351 -6.57402,-97.2934 -3.10984,-22.5142 -7.30158,-44.7296 -12.5162,-66.5918 -59.0658,-1.45158 -116.623,-9.49135 -171.958,-23.4154 -56.3008,-14.1638 -110.2,-34.4445 -160.951,-60.0886 -50.7508,25.6441 -104.652,45.9248 -160.952,60.0886 -55.3347,13.924 -112.891,21.9638 -171.958,23.4154 -5.21457,21.8622 -9.40631,44.0788 -12.5162,66.5918 -4.33347,31.3583 -6.57402,63.8315 -6.57402,97.2934 0,131.973 36.1548,255.312 99.0686,360.643z"/>
  <g id="_487867440">
   <path id="_487867896" class="fil0" d="M567.308 1697.12c0,-13.8378 -11.2181,-25.0559 -25.0559,-25.0559 -13.8378,0 -25.0559,11.2181 -25.0559,25.0559l0 62.8241 -93.0095 14.1532c-2.75433,0 -4.9878,1.84134 -4.9878,4.11142 0,2.27126 2.23347,4.11142 4.9878,4.11142 146.021,22.2213 90.1099,22.2213 236.13,0 2.75433,0 4.9878,-1.84016 4.9878,-4.11142 0,-2.27008 -2.23347,-4.11142 -4.9878,-4.11142l-93.0083 -14.1532 0 -62.8241z"/>
   <path id="_487867632" class="fil1" d="M286.301 1342.98l511.901 0c13.8366,0 25.0559,11.2193 25.0559,25.0559l0 329.079c0,13.8378 -11.2193,25.0559 -25.0559,25.0559l-511.901 0c-13.8366,0 -25.0547,-11.2181 -25.0547,-25.0559l0 -329.079c0,-13.8366 11.2181,-25.0559 25.0547,-25.0559zm11.3244 309.358l489.252 0 0 -274.664 -489.252 0 0 274.664z"/>
  </g>
  <g id="_487866984">
   <path id="_487867512" class="fil0" d="M567.308 1175.05c0,-13.8378 -11.2181,-25.0559 -25.0559,-25.0559 -13.8378,0 -25.0559,11.2181 -25.0559,25.0559l0 62.8241 -93.0095 14.1532c-2.75433,0 -4.9878,1.84134 -4.9878,4.11142 0,2.27126 2.23347,4.11142 4.9878,4.11142 146.021,22.2213 90.1099,22.2213 236.13,0 2.75433,0 4.9878,-1.84016 4.9878,-4.11142 0,-2.27008 -2.23347,-4.11142 -4.9878,-4.11142l-93.0083 -14.1532 0 -62.8241z"/>
   <path id="_487867224" class="fil1" d="M286.301 820.912l511.901 0c13.8366,0 25.0559,11.2193 25.0559,25.0559l0 329.079c0,13.8378 -11.2193,25.0559 -25.0559,25.0559l-511.901 0c-13.8366,0 -25.0547,-11.2181 -25.0547,-25.0559l0 -329.079c0,-13.8366 11.2181,-25.0559 25.0547,-25.0559zm11.3244 309.358l489.252 0 0 -274.664 -489.252 0 0 274.664z"/>
  </g>
  <g id="_487867200">
   <path id="_487867272" class="fil0" d="M567.308 633.361c0,-13.8378 -11.2181,-25.0559 -25.0559,-25.0559 -13.8378,0 -25.0559,11.2181 -25.0559,25.0559l0 62.8241 -93.0095 14.1532c-2.75433,0 -4.9878,1.84134 -4.9878,4.11142 0,2.27126 2.23347,4.11142 4.9878,4.11142 146.021,22.2213 90.1099,22.2213 236.13,0 2.75433,0 4.9878,-1.84016 4.9878,-4.11142 0,-2.27008 -2.23347,-4.11142 -4.9878,-4.11142l-93.0083 -14.1532 0 -62.8241z"/>
   <path id="_487866888" class="fil1" d="M286.301 279.226l511.901 0c13.8366,0 25.0559,11.2193 25.0559,25.0559l0 329.079c0,13.8378 -11.2193,25.0559 -25.0559,25.0559l-511.901 0c-13.8366,0 -25.0547,-11.2181 -25.0547,-25.0559l0 -329.079c0,-13.8366 11.2181,-25.0559 25.0547,-25.0559zm11.3244 309.358l489.252 0 0 -274.664 -489.252 0 0 274.664z"/>
  </g>
 </g>
 <rect class="fil2" width="2048" height="2048"/>
</svg>
