<?xml version="1.0" encoding="UTF-8"?>
<!DOCTYPE svg PUBLIC "-//W3C//DTD SVG 1.1//EN" "http://www.w3.org/Graphics/SVG/1.1/DTD/svg11.dtd">
<!-- Creator: CorelDRAW -->
<svg xmlns="http://www.w3.org/2000/svg" xml:space="preserve" width="2048px" height="2048px" style="shape-rendering:geometricPrecision; text-rendering:geometricPrecision; image-rendering:optimizeQuality; fill-rule:evenodd; clip-rule:evenodd"
viewBox="0 0 2048 2048"
 xmlns:xlink="http://www.w3.org/1999/xlink">
 <defs>
  <style type="text/css">
   <![CDATA[
    .fil1 {fill:none}
    .fil0 {fill:#424242}
   ]]>
  </style>
 </defs>
 <g id="Layer_x0020_1">
  <metadata id="CorelCorpID_0Corel-Layer"/>
  <path class="fil0" d="M1024 223.999c220.91,0 420.911,89.5453 565.684,234.318 144.773,144.773 234.318,344.773 234.318,565.684 0,220.91 -89.5453,420.911 -234.318,565.684 -144.773,144.773 -344.773,234.318 -565.684,234.318 -220.91,0 -420.911,-89.5453 -565.684,-234.318 -144.773,-144.773 -234.318,-344.773 -234.318,-565.684 0,-220.91 89.5453,-420.911 234.318,-565.684 144.773,-144.773 344.773,-234.318 565.684,-234.318zm207.833 314.747c-24.3343,-10.3547 -52.4575,0.977954 -62.8123,25.3122 -10.3547,24.3343 0.977954,52.4575 25.3122,62.8123 79.4682,34.0571 144.917,90.0816 190.454,159.143 45.515,69.026 71.2146,151.329 71.2146,237.986 0,119.299 -48.3532,227.301 -126.527,305.475 -78.1737,78.1737 -186.176,126.527 -305.475,126.527 -119.299,0 -227.301,-48.3532 -305.475,-126.527 -78.1737,-78.1737 -126.527,-186.176 -126.527,-305.475 0,-84.4973 24.4512,-164.962 67.9914,-233.012 43.5402,-68.0504 106.305,-123.95 182.925,-159.312 24.0236,-11.0799 34.5177,-39.5386 23.4378,-63.5623 -11.0799,-24.0236 -39.5386,-34.5177 -63.5623,-23.4378 -93.3721,43.0937 -170.039,111.499 -223.425,194.936 -53.3859,83.439 -83.367,181.66 -83.367,284.387 0,145.799 59.1,277.799 154.651,373.35 95.5513,95.5513 227.551,154.651 373.35,154.651 145.799,0 277.799,-59.1 373.35,-154.651 95.5513,-95.5513 154.651,-227.551 154.651,-373.35 0,-105.356 -31.5177,-205.831 -87.339,-290.486 -55.7965,-84.619 -135.812,-153.189 -232.83,-194.767zm-143.832 -58.7469l0 544.001c0,35.3351 -28.6654,64.0004 -64.0004,64.0004 -35.3351,0 -64.0004,-28.6654 -64.0004,-64.0004l0 -544.001c0,-35.3351 28.6654,-64.0004 64.0004,-64.0004 35.3351,0 64.0004,28.6654 64.0004,64.0004z"/>
 </g>
 <rect class="fil1" width="2048" height="2048"/>
</svg>
