<?xml version="1.0" encoding="UTF-8"?>
<!DOCTYPE svg PUBLIC "-//W3C//DTD SVG 1.1//EN" "http://www.w3.org/Graphics/SVG/1.1/DTD/svg11.dtd">
<!-- Creator: CorelDRAW -->
<svg xmlns="http://www.w3.org/2000/svg" xml:space="preserve" width="2048px" height="2048px" style="shape-rendering:geometricPrecision; text-rendering:geometricPrecision; image-rendering:optimizeQuality; fill-rule:evenodd; clip-rule:evenodd"
viewBox="0 0 2048 2048"
 xmlns:xlink="http://www.w3.org/1999/xlink">
 <defs>
  <style type="text/css">
   <![CDATA[
    .fil1 {fill:none}
    .fil0 {fill:#424242}
   ]]>
  </style>
 </defs>
 <g id="Layer_x0020_1">
  <metadata id="CorelCorpID_0Corel-Layer"/>
  <path class="fil0" d="M1386.32 454.432l0 6.04607c-117.23,7.38308 -249.807,5.07638 -348.933,-44.1225 -94.1044,-46.7067 -100.475,-108.276 -75.6237,-190.126 20.3799,-1.71378 41.0811,-2.43543 61.806,-2.17559 49.9914,0.624804 100.002,6.99567 145.797,18.8705 123.63,32.0575 219.176,103.569 216.755,211.507l0.199606 0zm0 52.5886l0 96.2257c0,9.76654 -0.42874,179.307 -1.26142,188.595 -11.5807,129.206 -101.73,213.116 -214.977,251.522 -46.4221,15.7441 -96.4276,23.6185 -146.112,23.6185 -49.6855,0 -99.6875,-7.87442 -146.113,-23.6185 -111.36,-37.767 -200.374,-119.539 -214.321,-245.107 -1.20945,-10.9039 -1.85788,-182.15 -1.90276,-193.722 37.8378,-5.55119 76.8721,-14.2831 113.162,-23.2902 27.5221,-6.83268 55.0607,-14.4024 81.8174,-23.1461 18.1406,-5.92914 39.6626,-13.3264 55.9843,-22.3146 30.0756,-16.5673 57.7205,-37.7386 76.7788,-63.6343l13.5591 -18.424 22.7587 10.0807c107.522,47.6221 238.838,50.7142 360.627,43.2154zm-481.616 -273.168c-6.32008,40.7114 -14.2382,92.0883 0.979135,130.811 7.51064,19.115 20.178,34.9866 36.8469,49.2863l14.1331 12.1252 -9.36615 15.0614c-14.3599,23.0858 -38.9374,41.6422 -64.5119,55.7245 -16.1055,8.87127 -37.2827,15.8362 -55.3205,21.4288 -24.1866,7.49882 -48.9993,14.0055 -73.7918,19.9406 -29.5725,7.0819 -61.1422,14.0858 -92.0516,19.0217l0 -102.82c0,-115.094 94.2485,-185.215 216.117,-214.814 8.83347,-2.14488 17.8323,-4.06418 26.9658,-5.76497zm323.908 403.511l-143.055 0c-1.44685,0 -2.77441,0.603544 -3.74528,1.57441l0.0011811 0.0011811c-0.146457,0.146457 -0.295276,0.287008 -0.446457,0.427559 -0.705119,0.890552 -1.12913,2.04331 -1.12913,3.31536l0 45.3544c0,13.9169 5.70591,26.5831 14.8973,35.7744 9.19016,9.19016 21.8575,14.8973 35.7744,14.8973l81.7442 0c9.77363,0 18.6721,-4.01103 25.1315,-10.4705 6.45945,-6.45945 10.4705,-15.3579 10.4705,-25.1315l0 -46.0996c0,-5.38465 -2.21457,-10.2933 -5.78268,-13.8602 -3.56693,-3.56811 -8.4756,-5.78268 -13.8602,-5.78268zm-409.227 -32.0008l143.055 0c10.2803,0 19.6134,4.19292 26.3705,10.95l0.0011811 -0.0011811c0.392126,0.392126 0.758268,0.798426 1.10079,1.2189 6.10867,6.67087 9.84804,15.5126 9.84804,25.1516l0 45.3544c0,22.7492 -9.29764,43.4221 -24.2729,58.3997 -14.9752,14.9752 -35.6492,24.2729 -58.3997,24.2729l-81.7442 0c-18.6059,0 -35.5122,-7.60158 -47.7567,-19.8461 -12.2445,-12.2445 -19.8461,-29.1508 -19.8461,-47.7567l0 -46.0996c0,-14.2181 5.8063,-27.1358 15.1583,-36.4855 9.34961,-9.35198 22.2673,-15.1583 36.4855,-15.1583zm143.055 32.0008l-143.055 0c-5.38465,0 -10.2933,2.21457 -13.8602,5.78268 -3.56811,3.56693 -5.78268,8.4756 -5.78268,13.8602l0 46.0996c0,9.77363 4.01103,18.6721 10.4705,25.1315 6.45945,6.45945 15.3579,10.4705 25.1315,10.4705l81.7442 0c13.9169,0 26.5843,-5.70709 35.7744,-14.8973 9.19135,-9.19135 14.8973,-21.8575 14.8973,-35.7744l0 -45.3544c0,-1.27205 -0.424016,-2.42481 -1.12913,-3.31536 -0.151181,-0.140551 -0.3,-0.281103 -0.446457,-0.427559l0.0011811 -0.0011811c-0.970867,-0.970867 -2.29843,-1.57441 -3.74528,-1.57441zm123.117 -32.0008l143.055 0c14.2181,0 27.1358,5.8063 36.4855,15.1583 9.35198,9.34961 15.1583,22.2673 15.1583,36.4855l0 46.0996c0,18.6059 -7.60158,35.5122 -19.8461,47.7567 -12.2445,12.2445 -29.1508,19.8461 -47.7567,19.8461l-81.7442 0c-22.7504,0 -43.4244,-9.29764 -58.3997,-24.2729 -14.9752,-14.9776 -24.2729,-35.6504 -24.2729,-58.3997l0 -45.3544c0,-9.63898 3.73937,-18.4807 9.84804,-25.1516 0.34252,-0.420473 0.708662,-0.826772 1.10079,-1.2189l0.0011811 0.0011811c6.75709,-6.75709 16.0902,-10.95 26.3705,-10.95z"/>
  <path class="fil0" d="M1288.54 1073.72c99.6922,48.3662 184.515,107.681 245.116,185.023 62.0008,79.1304 98.0446,175.963 98.0446,297.499l0 149.294c0,16.3063 -12.1973,29.7626 -27.965,31.7481 -188.322,35.9457 -379.179,54.3674 -572.661,54.5918 -193.971,0.225591 -390.16,-17.8701 -588.641,-54.9626l-0.0141732 0.0779528c-15.5303,-2.90197 -26.3268,-16.5685 -26.1225,-31.8449l0 -148.904c0,-121.527 36.039,-218.353 98.0316,-297.48 61.0241,-77.8902 146.613,-137.499 247.221,-186.059 10.5969,-7.48819 29.7083,0.570473 33.3189,3.32717 67.4115,43.1126 148.195,64.6737 229.115,64.6713 81.7418,-0.00236221 163.348,-22.0099 231.169,-66.0178l-0.0437008 -0.0944883c10.4362,-6.77245 23.3457,-6.68623 33.4311,-0.869292zm-428.149 226.999l-7.08544 0c-16.7965,0 -28.1469,3.21378 -34.0512,9.57875 -5.90552,6.36378 -8.85827,19.4858 -8.85827,39.4311l0 46.6489c0,21.5197 -2.75551,36.8729 -8.3315,46.0583 -5.57717,9.25158 -15.4193,15.8776 -29.5252,20.0114 14.1059,3.93662 23.948,10.4976 29.5252,19.748 5.57599,9.18544 8.3315,24.5386 8.3315,46.1244l0 46.3855c0,19.8803 2.8878,33.0024 8.66103,39.3662 5.77323,6.29882 16.6642,9.51379 32.674,9.51379 0.917717,0 2.29606,-0.0661418 4.26378,-0.197244 1.90276,-0.131102 3.34725,-0.196063 4.39607,-0.196063l0 20.4047 -9.05434 0c-25.1941,0 -42.3177,-4.65827 -51.1748,-13.9099 -8.92324,-9.2504 -13.3854,-28.278 -13.3854,-56.8843l0 -46.976c0,-19.7492 -3.67441,-33.6579 -10.9559,-41.7284 -5.59607,-6.20079 -14.2925,-10.0382 -26.028,-11.4839l0 -20.9256c11.7354,-1.44567 20.4319,-5.28189 26.028,-11.4839 7.2815,-8.13544 10.9559,-22.1103 10.9559,-41.8595l0 -46.7138c0,-28.5402 4.46221,-47.6327 13.4504,-57.0804 8.98938,-9.51379 25.9819,-14.2382 51.1099,-14.2382l9.05434 0 0 20.4059zm12.7984 213.786l219.359 0 0 32.0008 -219.359 0 0 -32.0008zm0 -68.5501l315.33 0 0 32.0008 -315.33 0 0 -32.0008zm0 -68.5501l315.33 0 0 32.0008 -315.33 0 0 -32.0008zm314.417 -76.6855l7.08544 0c16.7965,0 28.1469,3.21378 34.0512,9.57875 5.90552,6.36378 8.85827,19.4858 8.85827,39.4311l0 46.6489c0,21.5197 2.75551,36.8729 8.3315,46.0583 5.57717,9.25158 15.4193,15.8776 29.5252,20.0114 -14.1059,3.93662 -23.948,10.4976 -29.5252,19.748 -5.57599,9.18544 -8.3315,24.5386 -8.3315,46.1244l0 46.3855c0,19.8803 -2.8878,33.0024 -8.66103,39.3662 -5.77323,6.29882 -16.6642,9.51379 -32.674,9.51379 -0.917717,0 -2.29606,-0.0661418 -4.26378,-0.197244 -1.90276,-0.131102 -3.34725,-0.196063 -4.39607,-0.196063l0 20.4047 9.05434 0c25.1941,0 42.3177,-4.65827 51.1748,-13.9099 8.92324,-9.2504 13.3854,-28.278 13.3854,-56.8843l0 -46.976c0,-19.7492 3.67323,-33.6579 10.9559,-41.7284 5.59607,-6.20079 14.2925,-10.0382 26.028,-11.4839l0 -20.9256c-11.7354,-1.44567 -20.4319,-5.28189 -26.028,-11.4839 -7.28268,-8.13544 -10.9559,-22.1103 -10.9559,-41.8595l0 -46.7138c0,-28.5402 -4.46221,-47.6327 -13.4504,-57.0804 -8.98938,-9.51379 -25.9819,-14.2382 -51.1099,-14.2382l-9.05434 0 0 20.4059z"/>
 </g>
 <rect class="fil1" width="2048" height="2048"/>
</svg>
