<?xml version="1.0" encoding="UTF-8"?>
<!DOCTYPE svg PUBLIC "-//W3C//DTD SVG 1.1//EN" "http://www.w3.org/Graphics/SVG/1.1/DTD/svg11.dtd">
<!-- Creator: CorelDRAW -->
<svg xmlns="http://www.w3.org/2000/svg" xml:space="preserve" width="2048px" height="2048px" style="shape-rendering:geometricPrecision; text-rendering:geometricPrecision; image-rendering:optimizeQuality; fill-rule:evenodd; clip-rule:evenodd"
viewBox="0 0 2048 2048"
 xmlns:xlink="http://www.w3.org/1999/xlink">
 <defs>
  <style type="text/css">
   <![CDATA[
    .fil1 {fill:none}
    .fil0 {fill:#424242}
   ]]>
  </style>
 </defs>
 <g id="Layer_x0020_1">
  <metadata id="CorelCorpID_0Corel-Layer"/>
  <g id="_486642336">
   <path id="_486642888" class="fil0" d="M377.027 1025.13c20.7484,10.6878 38.928,25.5567 51.4701,46.2886 21.8917,36.1866 25.1232,93.4229 25.1232,134.66l0 127.269c0,24.9142 1.68662,77.7284 19.6689,97.4469 16.8248,18.4488 55.0252,20.9894 78.0674,20.9894 3.51142,0 7.13859,-0.266929 10.6406,-0.50315 4.34528,-0.295276 8.76379,-0.576378 13.1197,-0.576378l15.6732 0 0 87.3296 -40.5142 0c-48.4595,0 -115.965,-5.7815 -151.71,-42.9756 -36.828,-38.3244 -41.0941,-116.986 -41.0941,-166.931l0 -128.888c0,-31.7622 -3.53268,-79.0642 -26.0256,-103.988 -15.3201,-16.9772 -39.7654,-23.752 -61.6902,-26.452l-13.7563 -1.6937 0 -85.1363 13.7563 -1.6937c21.8799,-2.6941 46.4044,-9.44292 61.6701,-26.4284 22.5024,-25.0358 26.0457,-72.5091 26.0457,-104.372l0 -128.167c0,-50.3811 4.38307,-128.56 41.2028,-167.394 35.9599,-37.9288 102.497,-43.9524 151.602,-43.9524l40.5142 0 0 87.3296 -35.1142 0c-23.6988,0 -64.4623,2.43543 -81.9367,21.2693 -18.365,19.7906 -20.1189,72.3756 -20.1189,97.5272l0 127.988c0,41.1992 -3.25394,98.3316 -25.1232,134.482 -12.5433,20.7343 -30.7382,35.7024 -51.4701,46.5733zm1293.95 0c-20.7319,-10.8709 -38.9268,-25.839 -51.4701,-46.5733 -21.8693,-36.15 -25.1232,-93.2824 -25.1232,-134.482l0 -127.988c0,-25.1516 -1.75394,-77.7367 -20.1189,-97.5272 -17.4744,-18.8339 -58.2378,-21.2693 -81.9367,-21.2693l-35.1142 0 0 -87.3296 40.5142 0c49.1044,0 115.642,6.02363 151.602,43.9524 36.8197,38.8347 41.2028,117.013 41.2028,167.394l0 128.167c0,31.8626 3.54331,79.3359 26.0457,104.372 15.2658,16.9854 39.7902,23.7343 61.6701,26.4284l13.7563 1.6937 0 85.1363 -13.7563 1.6937c-21.9248,2.7 -46.3701,9.47481 -61.6902,26.452 -22.4929,24.9236 -26.0256,72.2256 -26.0256,103.988l0 128.888c0,49.9453 -4.26615,128.607 -41.0941,166.931 -35.7449,37.1941 -103.251,42.9756 -151.71,42.9756l-40.5142 0 0 -87.3296 15.6732 0c4.35591,0 8.77442,0.281103 13.1197,0.576378 3.50197,0.236221 7.12914,0.50315 10.6406,0.50315 23.0421,0 61.2426,-2.54055 78.0674,-20.9894 17.9823,-19.7185 19.6689,-72.5327 19.6689,-97.4469l0 -127.269c0,-41.237 3.2315,-98.4733 25.1232,-134.66 12.5421,-20.7319 30.7217,-35.6008 51.4701,-46.2886z"/>
   <polygon id="_486642144" class="fil0" points="1198.11,1224.4 1198.11,1144.79 1509.88,1144.79 1509.88,1224.4 "/>
   <path id="_486642024" class="fil0" d="M1176.12 1023.49l-167.789 -109.159 0 -104.373 259.614 173.476 0 79.1812 -259.614 175.641 0 -104.662 167.789 -110.104zm-617.917 0l168.004 110.098 0 104.668 -259.614 -175.641 0 -79.1812 259.614 -173.476 0 104.379 -168.004 109.153z"/>
   <polygon id="_486642000" class="fil0" points="1015.78,702.932 809.548,1369.33 718.752,1345.07 924.985,678.671 "/>
  </g>
 </g>
 <rect class="fil1" width="2048" height="2048"/>
</svg>
