<?xml version="1.0" encoding="UTF-8"?>
<!DOCTYPE svg PUBLIC "-//W3C//DTD SVG 1.1//EN" "http://www.w3.org/Graphics/SVG/1.1/DTD/svg11.dtd">
<!-- Creator: CorelDRAW -->
<svg xmlns="http://www.w3.org/2000/svg" xml:space="preserve" width="2048px" height="2048px" style="shape-rendering:geometricPrecision; text-rendering:geometricPrecision; image-rendering:optimizeQuality; fill-rule:evenodd; clip-rule:evenodd"
viewBox="0 0 2048 2048"
 xmlns:xlink="http://www.w3.org/1999/xlink">
 <defs>
  <style type="text/css">
   <![CDATA[
    .fil2 {fill:none}
    .fil0 {fill:#424242}
    .fil1 {fill:#424242;fill-rule:nonzero}
   ]]>
  </style>
 </defs>
 <g id="Layer_x0020_1">
  <metadata id="CorelCorpID_0Corel-Layer"/>
  <g id="_486644712">
   <path id="_486645048" class="fil0" d="M1235.51 704.841l0 90.7076c-3.01418,-0.4063 -6.00591,-0.579922 -8.76615,-0.638977 -6.67441,-0.144095 -14.2665,0.294095 -20.8394,1.54843 -15.841,3.02362 -17.6162,12.3921 -23.1567,25.1528 -1.27205,2.93268 -4.15158,10.0217 -6.53741,14.3303 -4.83426,-1.40551 -12.1252,-4.53544 -15.1547,-5.75434 -4.20591,-1.69016 -8.43662,-3.32835 -12.6898,-4.89567 -9.09095,-3.34961 -17.6776,0.675591 -24.5977,6.56103 -2.92796,2.49213 -5.40591,5.19449 -8.10473,7.89449 -3.6189,3.6189 -6.83268,7.59568 -10.239,11.4071 -5.04685,5.64804 -6.90591,13.4788 -4.41378,20.7166l3.98622 11.5713 0.37441 -0.157087c0.246851,0.615355 0.493701,1.22953 0.740552,1.8437 1.2189,3.02953 4.35,10.3217 5.75552,15.1571 -4.30866,2.38465 -11.3976,5.263 -14.3303,6.53623 -4.41733,1.91811 -8.77205,3.96378 -13.1516,5.96339 -6.61654,3.02008 -11.3043,9.12875 -12.163,16.4126l-1.30512 11.0575 0.413386 0.0614174c-0.108662,2.28425 -0.172441,4.57205 -0.172441,6.85749 0,2.84528 0.0992127,5.69174 0.259843,8.53111l-285.929 0c-5.2878,0 -9.5752,-4.2874 -9.5752,-9.5752l0 -241.289 459.596 0zm-188.514 128.881l-83.6694 45.1465 0 -19.4917 66.2587 -34.6772 -66.2587 -34.3796 0 -19.454 83.6694 44.589 0 18.2669zm-213.632 0l0 -18.2669 83.6694 -44.589 0 19.454 -66.3485 34.3796 66.3485 34.6772 0 19.4917 -83.6694 -45.1465z"/>
   <path id="_486644568" class="fil1" d="M1091.79 627.753l0 38.2985 38.2996 0 0 -38.2985 -38.2996 0zm-66.9721 38.2985l38.2985 0 0 -38.2985 -38.2985 0 0 38.2985zm134.139 -38.2985l0 38.2985 38.2996 0 0 -38.2985 -38.2996 0zm-373.465 -28.2366l440.445 0c5.2878,0 9.5752,4.2874 9.5752,9.5752l0 86.1745 -459.596 0 0 -86.1745c0,-5.2878 4.2874,-9.5752 9.5752,-9.5752z"/>
   <path id="_486644400" class="fil1" d="M764.429 609.091c0,-11.6291 9.43465,-21.065 21.065,-21.065l358.101 0 0 -45.9591c0,-6.34607 -5.14489,-11.4898 -11.4898,-11.4898l-436.615 0c-6.34607,0 -11.491,5.1437 -11.491,11.4898l0 332.207c0,6.34607 5.14489,11.4898 11.491,11.4898l68.9386 0c0,-92.2241 0,-184.448 0,-276.672z"/>
   <path id="_486644664" class="fil0" d="M1247.04 813.232c1.94173,3.89646 3.91418,8.4378 5.87481,12.9543 4.42205,10.1858 8.77914,20.2229 12.1347,21.6414 3.42638,1.44921 13.9205,-2.77205 24.3874,-6.9815 6.15945,-2.47795 16.1386,-8.58662 22.0299,-2.78032 3.99331,3.2315 7.64528,6.50315 10.9382,9.79607 3.49725,3.49725 6.96851,7.39725 10.3961,11.6811l0.0354331 -0.0271654c2.09291,2.61614 2.49921,6.03662 1.36772,8.94922 -1.31102,3.76418 -3.04252,8.06812 -4.7752,12.3744 -4.20945,10.4658 -8.43072,20.9599 -6.9815,24.3862 1.41969,3.35551 11.4555,7.71379 21.6425,12.1358 5.97402,2.5937 17.948,5.67048 18.5197,13.6039 0.840946,7.33347 4.64292,35.8973 -5.56536,40.1457 -3.89646,1.94291 -8.43898,3.91418 -12.9543,5.87481 -10.187,4.42205 -20.2229,8.78032 -21.6414,12.1347 -1.44921,3.42638 2.77087,13.9205 6.9815,24.3862 1.78465,4.4374 3.56811,8.87127 4.89213,12.7146l0.00590552 -0.00236221c1.15866,3.36496 0.220866,6.94489 -2.11772,9.3189 -5.68583,7.0252 -21.2941,26.2819 -30.4051,22.7362 -3.763,-1.31102 -8.06457,-3.04252 -12.3697,-4.77284 -10.4658,-4.20945 -20.9599,-8.43072 -24.3862,-6.9815 -3.35551,1.41851 -7.7126,11.4555 -12.1347,21.6414 -2.5937,5.97402 -5.67048,17.9492 -13.6039,18.5197 -9.8445,1.12913 -36.1359,4.07126 -40.1457,-5.56536 -1.94291,-3.89646 -3.91418,-8.4378 -5.87599,-12.9543 -4.42087,-10.1858 -8.77914,-20.2229 -12.1347,-21.6414 -3.42638,-1.44921 -13.9205,2.77205 -24.3862,6.9815 -4.43622,1.78465 -8.87009,3.56811 -12.7134,4.89331l0.0011811 0.00472441c-3.36496,1.15866 -6.94371,0.222047 -9.31772,-2.11772 -3.99331,-3.2315 -7.64528,-6.50315 -10.9394,-9.79725 -4.60276,-4.60158 -14.7319,-13.0606 -11.798,-20.6043 1.31102,-3.76418 3.04252,-8.06812 4.7752,-12.3744 4.20827,-10.4646 8.42953,-20.9587 6.98032,-24.3839 -1.41851,-3.35551 -11.4555,-7.71379 -21.6414,-12.1358 -5.9752,-2.5937 -17.9492,-5.67048 -18.5209,-13.6039 -0.285827,-2.49567 -0.51378,-5.12953 -0.677953,-7.90394 -0.174803,-2.96693 -0.265748,-5.74016 -0.265748,-8.30434 0,-2.56299 0.090945,-5.33622 0.265748,-8.30197 0.173622,-2.9315 0.418111,-5.70473 0.72756,-8.32678l-0.00826772 -0.0011811c0.398032,-3.37087 2.59843,-6.08977 5.5252,-7.30749 3.89646,-1.94173 8.43662,-3.91418 12.9543,-5.87481 10.1858,-4.42205 20.2229,-8.78032 21.6414,-12.1347 1.44921,-3.42756 -2.77205,-13.9205 -6.9815,-24.3862 -1.78465,-4.4374 -3.56811,-8.87127 -4.89331,-12.7146l-0.00472441 0.00236221c-1.15984,-3.36496 -0.222047,-6.94489 2.11772,-9.3189 3.2315,-3.99331 6.50315,-7.64528 9.79607,-10.9394 4.60276,-4.60276 13.0606,-14.7307 20.6055,-11.798 3.76418,1.31221 8.06694,3.04252 12.3732,4.7752 10.4658,4.20945 20.9587,8.42953 24.3851,6.98032 3.35551,-1.41851 7.71379,-11.4555 12.1358,-21.6414 5.07048,-11.6823 5.05394,-16.5862 14.7709,-18.4429 8.80867,-1.68071 35.2016,-3.58583 38.9788,5.48859zm-23.9374 63.3945c19.4799,0 37.1162,7.89686 49.8839,20.6634 12.7665,12.7677 20.6634,30.404 20.6634,49.8839 0,19.4799 -7.89686,37.1162 -20.6634,49.8839 -12.7677,12.7665 -30.404,20.6634 -49.8839,20.6634 -19.4799,0 -37.1174,-7.89686 -49.8839,-20.6634 -12.7677,-12.7677 -20.6634,-30.404 -20.6634,-49.8839 0,-19.4799 7.89568,-37.1162 20.6634,-49.8839 12.7665,-12.7665 30.404,-20.6634 49.8839,-20.6634zm37.0701 33.4772c-9.48662,-9.48662 -22.5933,-15.3543 -37.0701,-15.3543 -14.478,0 -27.5847,5.86772 -37.0701,15.3543 -9.48662,9.48662 -15.3543,22.5921 -15.3543,37.0701 0,14.478 5.86772,27.5835 15.3543,37.0701 9.48544,9.48662 22.5921,15.3543 37.0701,15.3543 14.4768,0 27.5835,-5.86772 37.0701,-15.3543 9.48662,-9.48662 15.3532,-22.5921 15.3532,-37.0701 0,-14.478 -5.86654,-27.5835 -15.3532,-37.0701zm-37.0701 2.97992c9.41103,0 17.9351,3.81614 24.104,9.98623 6.1689,6.1689 9.98505,14.6917 9.98505,24.104 0,9.41221 -3.81614,17.9351 -9.98505,24.104 -6.1689,6.17008 -14.6929,9.98623 -24.104,9.98623 -9.41339,0 -17.9351,-3.81614 -24.1051,-9.98623 -6.1689,-6.1689 -9.98505,-14.6917 -9.98505,-24.104 0,-9.41221 3.81614,-17.9351 9.98505,-24.104 6.17008,-6.17008 14.6917,-9.98623 24.1051,-9.98623zm11.2902 22.8c-2.88898,-2.88898 -6.88111,-4.67599 -11.2902,-4.67599 -4.41024,0 -8.40237,1.78701 -11.2913,4.67599 -2.88898,2.8878 -4.67481,6.88111 -4.67481,11.2902 0,4.41024 1.78583,8.40237 4.67481,11.2902 2.88898,2.88898 6.88111,4.67599 11.2913,4.67599 4.40906,0 8.40119,-1.78701 11.2902,-4.67599 2.88898,-2.8878 4.67599,-6.87993 4.67599,-11.2902 0,-4.40906 -1.78701,-8.40237 -4.67599,-11.2902z"/>
  </g>
  <g id="_486643920">
   <path id="_486644016" class="fil0" d="M282.429 407.136l1483.14 0c17.6728,0 32.0008,14.328 32.0008,32.0008l0 920.326c0,17.6728 -14.328,32.0008 -32.0008,32.0008l-1483.14 0c-17.6728,0 -32.0008,-14.328 -32.0008,-32.0008l0 -920.326c0,-17.6728 14.328,-32.0008 32.0008,-32.0008zm1216.15 815.48l62.8914 0 0 64.0016 -62.8914 0 0 -64.0016zm102.735 0l62.8914 0 0 64.0016 -62.8914 0 0 -64.0016zm132.26 -751.478l-1419.14 0 0 651.808 1419.14 0 0 -651.808z"/>
   <path id="_486644184" class="fil1" d="M1106.25 1359.46c0,-17.6728 -36.8256,-32.0008 -82.2485,-32.0008 -45.4229,0 -82.2485,14.328 -82.2485,32.0008l0 216.9c0,17.6728 36.8256,32.0008 82.2485,32.0008 45.4229,0 82.2485,-14.328 82.2485,-32.0008l0 -216.9z"/>
   <path id="_486644088" class="fil1" d="M705.35 1589.63c0,68.3091 637.301,68.3091 637.301,0 0,-68.3091 -637.301,-68.3091 -637.301,0z"/>
  </g>
 </g>
 <rect class="fil2" width="2048" height="2048"/>
</svg>
