<?xml version="1.0" encoding="UTF-8"?>
<!DOCTYPE svg PUBLIC "-//W3C//DTD SVG 1.1//EN" "http://www.w3.org/Graphics/SVG/1.1/DTD/svg11.dtd">
<!-- Creator: CorelDRAW -->
<svg xmlns="http://www.w3.org/2000/svg" xml:space="preserve" width="2048px" height="2048px" style="shape-rendering:geometricPrecision; text-rendering:geometricPrecision; image-rendering:optimizeQuality; fill-rule:evenodd; clip-rule:evenodd"
viewBox="0 0 2048 2048"
 xmlns:xlink="http://www.w3.org/1999/xlink">
 <defs>
  <style type="text/css">
   <![CDATA[
    .fil2 {fill:none}
    .fil0 {fill:#424242}
    .fil1 {fill:#424242;fill-rule:nonzero}
   ]]>
  </style>
 </defs>
 <g id="Layer_x0020_1">
  <metadata id="CorelCorpID_0Corel-Layer"/>
  <path class="fil0" d="M669.417 381.385l611.908 0 0 361.871 361.871 0 0 1017.4c0,17.3126 -14.0362,31.3477 -31.3477,31.3477l-942.432 0c-17.3126,0 -31.3477,-14.0351 -31.3477,-31.3477l0 -1347.92c0,-17.3114 14.0351,-31.3477 31.3477,-31.3477zm543.24 864.836l-82.0229 -53.3634 0 -57.3768 134.032 89.5607 0 41.8677 -134.032 90.678 0 -57.5434 82.0229 -53.8229zm-73.3902 -161.658l-104.308 337.053 -49.5544 -13.2402 104.308 -337.053 49.5544 13.2402zm86.1745 264.186l0 -44.1071 160.084 0 0 44.1071 -160.084 0zm233.892 -101.728c-9.24331,-5.4189 -17.302,-12.5953 -23.0693,-22.128 -11.1732,-18.4701 -12.8634,-47.2465 -12.8634,-68.3044l0 -63.9378c0,-11.8051 -0.836221,-37.9382 -9.47127,-47.2453 -8.18268,-8.8193 -28.2862,-9.93072 -39.3414,-9.93072l-19.7114 0 0 -47.9658 22.4091 0c25.2366,0 58.8497,3.16418 77.3091,22.6335 18.8835,19.9181 21.1772,59.25 21.1772,85.1162l0 64.0276c0,15.2575 1.66063,38.6788 12.4559,50.6894 7.23898,8.05394 19.1008,11.224 29.4591,12.4984l8.77678 1.08189 0 46.3666 -8.77678 1.08189c-10.3831,1.27795 -22.2047,4.46103 -29.4733,12.515 -10.787,11.9528 -12.4417,35.2878 -12.4417,50.4933l0 64.3878c0,25.6583 -2.23347,65.2276 -21.1347,84.8942 -18.3543,19.0996 -52.4386,22.1351 -77.3516,22.1351l-22.4091 0 0 -47.9658 9.99922 0c2.22638,0 4.48111,0.142913 6.70276,0.292914 1.69961,0.115748 3.46299,0.246851 5.16733,0.246851 10.7303,0 29.5288,-1.15158 37.3961,-9.77835 8.45198,-9.26812 9.25867,-35.5264 9.25867,-47.217l0 -63.5776c0,-21.078 1.67835,-49.9052 12.8634,-68.3941 5.76733,-9.53268 13.8201,-16.6713 23.0693,-22.0158zm-637.401 0c9.24922,5.34449 17.302,12.4831 23.0693,22.0158 11.185,18.4902 12.8646,47.315 12.8646,68.3941l0 63.5776c0,11.6906 0.806694,37.9488 9.25867,47.217 7.86733,8.62678 26.6658,9.77835 37.3961,9.77835 1.70315,0 3.46772,-0.131102 5.16615,-0.246851 2.22166,-0.15 4.47756,-0.292914 6.70394,-0.292914l9.99922 0 0 47.9658 -22.4091 0c-24.913,0 -58.9985,-3.03544 -77.3528,-22.1351 -18.9,-19.6666 -21.1347,-59.2359 -21.1347,-84.8942l0 -64.3878c0,-15.2055 -1.65473,-38.5406 -12.4417,-50.4933 -7.26851,-8.05394 -19.0878,-11.237 -29.4721,-12.515l-8.77678 -1.08189 0 -46.3666 8.77678 -1.08189c10.3583,-1.27441 22.2189,-4.44449 29.4579,-12.4984 10.7953,-12.0106 12.4559,-35.4319 12.4559,-50.6894l0 -64.0276c0,-25.8662 2.29488,-65.1969 21.1784,-85.1162 18.4583,-19.4693 52.0737,-22.6335 77.3091,-22.6335l22.4091 0 0 47.9658 -19.7114 0c-11.0563,0 -31.1587,1.11142 -39.3425,9.93072 -8.63386,9.30591 -9.47009,35.4414 -9.47009,47.2453l0 63.9378c0,21.0579 -1.69134,49.8331 -12.8646,68.3044 -5.76733,9.53268 -13.826,16.7091 -23.0693,22.128zm89.9776 -0.799607l82.1268 53.8193 0 57.5469 -134.032 -90.678 0 -41.8677 134.032 -89.5607 0 57.3804 -82.1268 53.3599z"/>
  <path class="fil1" d="M606.723 412.733c0,-34.6134 28.0795,-62.6941 62.6941,-62.6941 181.813,0 392.124,0.415748 573.734,0.415748l-0.468898 -0.461811 0.62126 -60.7666c0,-21.3307 -14.3658,-33.2268 -52.741,-33.2268l-754.502 0c-17.3126,0 -31.3477,14.0351 -31.3477,31.3477l0 1347.92c0,17.3114 14.0351,31.3477 31.3477,31.3477l171.106 0c0,-417.24 -0.444095,-836.043 -0.444095,-1253.88z"/>
  <polygon class="fil0" points="1312.67,381.297 1643.29,711.91 1312.67,711.91 "/>
 </g>
 <rect class="fil2" width="2048" height="2048"/>
</svg>
