<?xml version="1.0" encoding="UTF-8"?>
<!DOCTYPE svg PUBLIC "-//W3C//DTD SVG 1.1//EN" "http://www.w3.org/Graphics/SVG/1.1/DTD/svg11.dtd">
<!-- Creator: CorelDRAW -->
<svg xmlns="http://www.w3.org/2000/svg" xml:space="preserve" width="2048px" height="2048px" style="shape-rendering:geometricPrecision; text-rendering:geometricPrecision; image-rendering:optimizeQuality; fill-rule:evenodd; clip-rule:evenodd"
viewBox="0 0 2048 2048"
 xmlns:xlink="http://www.w3.org/1999/xlink">
 <defs>
  <style type="text/css">
   <![CDATA[
    .fil2 {fill:none}
    .fil0 {fill:#424242}
    .fil1 {fill:#424242;fill-rule:nonzero}
   ]]>
  </style>
 </defs>
 <g id="Layer_x0020_1">
  <metadata id="CorelCorpID_0Corel-Layer"/>
  <g id="_486631368">
   <path id="_486632208" class="fil0" d="M1788.51 690.468l0 566.568c0,12.4819 -10.1197,22.6016 -22.6016,22.6016l-164.694 0 0 -488.674c0,-30.1429 -24.4583,-54.6012 -54.6012,-54.6012l-170.247 0 0 -45.8941 412.144 0z"/>
   <path id="_486632376" class="fil1" d="M1449.25 508.5l0 90.4052 90.4052 0 0 -90.4052 -90.4052 0zm-175.432 70.0087l-570.186 0 0 -114.058c0,-12.4819 10.1197,-22.6016 22.6016,-22.6016l1039.67 0c12.4819,0 22.6016,10.1197 22.6016,22.6016l0 203.414 -412.144 0 0 -34.7551c0,-58.2237 -64.7977,-54.6012 -102.543,-54.6012zm333.979 -70.0087l0 90.4052 90.4052 0 0 -90.4052 -90.4052 0z"/>
   <path id="_486632280" class="fil0" d="M1569.21 1016.98l0 566.568c0,12.4819 -10.1197,22.6016 -22.6016,22.6016l-1039.67 0c-12.4819,0 -22.6016,-10.1197 -22.6016,-22.6016l0 -566.568 1084.87 0zm-387.56 428.254l0 -53.4378 263.613 0 0 53.4378 -263.613 0zm-500.652 -138.35l145.591 76.0961 0 69.0119 -218.307 -117.795 0 -55.2626 218.307 -116.342 0 68.8501 -145.591 75.4418zm380.722 0l-145.404 -75.4453 0 -68.8465 218.307 116.342 0 55.2626 -218.307 117.795 0 -69.0083 145.404 -76.0997z"/>
   <path id="_486631656" class="fil1" d="M1229.96 835.013l0 90.4052 90.4052 0 0 -90.4052 -90.4052 0zm-158.088 90.4052l90.404 0 0 -90.4052 -90.404 0 0 90.4052zm316.636 -90.4052l0 90.4052 90.4052 0 0 -90.4052 -90.4052 0zm-881.564 -66.6508l1039.67 0c12.4819,0 22.6016,10.1197 22.6016,22.6016l0 203.414 -1084.87 0 0 -203.414c0,-12.4819 10.1197,-22.6016 22.6016,-22.6016z"/>
   <path id="_486631608" class="fil0" d="M452.34 1448.3l-170.247 0c-12.4819,0 -22.6016,-10.1197 -22.6016,-22.6016l0 -566.568 192.848 0 0 589.17z"/>
   <path id="_486631296" class="fil1" d="M282.094 610.509l1039.67 0c12.4819,0 22.6016,10.1197 22.6016,22.6016l0 103.252 -837.423 0c-30.1429,0 -54.6012,24.4583 -54.6012,54.6012l0 45.5611 -192.848 0 0 -203.414c0,-12.4819 10.1197,-22.6016 22.6016,-22.6016z"/>
  </g>
 </g>
 <rect class="fil2" width="2048" height="2048"/>
</svg>
