<?xml version="1.0" encoding="UTF-8"?>
<!DOCTYPE svg PUBLIC "-//W3C//DTD SVG 1.1//EN" "http://www.w3.org/Graphics/SVG/1.1/DTD/svg11.dtd">
<!-- Creator: CorelDRAW -->
<svg xmlns="http://www.w3.org/2000/svg" xml:space="preserve" width="2048px" height="2048px" style="shape-rendering:geometricPrecision; text-rendering:geometricPrecision; image-rendering:optimizeQuality; fill-rule:evenodd; clip-rule:evenodd"
viewBox="0 0 2048 2048"
 xmlns:xlink="http://www.w3.org/1999/xlink">
 <defs>
  <style type="text/css">
   <![CDATA[
    .fil1 {fill:none}
    .fil0 {fill:#424242}
   ]]>
  </style>
 </defs>
 <g id="Layer_x0020_1">
  <metadata id="CorelCorpID_0Corel-Layer"/>
  <path class="fil0" d="M1565.8 1170.07c0.0625985,-49.1729 0.18189,-108.876 0.351969,-196.845l0.0732284 -37.65 -183.186 -0.682678 0 0.0956694 -17.5205 0 23.5748 82.5142c15.3602,53.765 -4.58859,93.0284 -40.4268,117.625 -26.6504,18.2917 -62.3445,27.4358 -97.6241,27.4358 -35.2796,0 -70.9737,-9.14528 -97.6253,-27.437 -35.8394,-24.5965 -55.7871,-63.8599 -40.4268,-117.624l23.576 -82.5142 -17.5217 0 0 -0.0956694 -183.14 0.682678 0 197.387 80.569 -23.0173c53.765,-15.3614 93.0261,4.58622 117.624,40.4244 18.2917,26.6516 27.437,62.3469 27.437,97.6253 0,35.2796 -9.14528,70.9749 -27.437,97.6253 -24.5988,35.8406 -63.8611,55.7882 -117.624,40.4268l-80.569 -23.0209 0 202.24 231.2 -0.862205c2.98819,-0.282284 6.07796,-0.0259843 9.13701,0.848032 13.1539,3.75827 20.7709,17.4709 17.0138,30.6248l-0.022441 -0.00590552 -32.6339 114.222c-8.38111,29.3374 1.9252,50.3646 20.6858,63.2398 18.1902,12.4854 43.767,18.7288 69.756,18.7288 25.989,0 51.5658,-6.24331 69.756,-18.7288 18.7606,-12.8764 29.0681,-33.9036 20.6858,-63.2398l-32.3091 -113.085c-0.851575,-2.52047 -1.31102,-5.22048 -1.30039,-8.02914 0.0496063,-13.6807 11.1839,-24.7299 24.8646,-24.6803l0 0.0968505 233.488 0.870473 -0.112205 -58.2166c-0.140551,-73.6749 -0.244488,-126.488 -0.304725,-170.581 -0.272835,-2.96575 -0.011811,-6.03071 0.855119,-9.06615 3.75709,-13.1539 17.4697,-20.7709 30.6248,-17.0138l-0.00708662 0.022441 112.649 32.1827c29.3374,8.38229 50.3658,-1.92402 63.241,-20.6858 12.4854,-18.1902 18.7288,-43.767 18.7288,-69.756l0.0968505 0c0,-25.9016 -6.27756,-51.4701 -18.8268,-69.7548 -12.8752,-18.7606 -33.9036,-29.067 -63.2398,-20.6847l-111.495 31.8555c-2.50866,0.850394 -5.19567,1.31102 -7.99134,1.3063 -13.6807,-0.0165354 -24.7583,-11.1224 -24.7406,-24.8043l0.0956694 0z"/>
  <path class="fil0" d="M885.846 1330.03c0.0625985,49.1729 0.18189,108.876 0.351969,196.845l0.0732284 37.65 -183.186 0.682678 0 -0.0956694 -17.5205 0 23.5748 -82.5142c15.3602,-53.765 -4.58859,-93.0284 -40.4268,-117.625 -26.6504,-18.2917 -62.3445,-27.4358 -97.6241,-27.4358 -35.2796,0 -70.9737,9.14528 -97.6253,27.437 -35.8394,24.5965 -55.7871,63.8599 -40.4268,117.624l23.576 82.5142 -17.5217 0 0 0.0956694 -183.14 -0.682678 0 -197.387 80.569 23.0173c53.765,15.3614 93.0261,-4.58622 117.624,-40.4244 18.2917,-26.6516 27.437,-62.3469 27.437,-97.6253 0,-35.2796 -9.14528,-70.9749 -27.437,-97.6253 -24.5988,-35.8406 -63.8611,-55.7882 -117.624,-40.4268l-80.569 23.0209 0 -202.24 231.2 0.862205c2.98819,0.282284 6.07796,0.0259843 9.13701,-0.848032 13.1539,-3.75827 20.7709,-17.4709 17.0138,-30.6248l-0.022441 0.00590552 -32.6339 -114.222c-8.38111,-29.3374 1.9252,-50.3646 20.6858,-63.2398 18.1902,-12.4854 43.767,-18.7288 69.756,-18.7288 25.989,0 51.5658,6.24331 69.756,18.7288 18.7606,12.8764 29.0681,33.9036 20.6858,63.2398l-32.3091 113.085c-0.851575,2.52047 -1.31102,5.22048 -1.30039,8.02914 0.0496063,13.6807 11.1839,24.7299 24.8646,24.6803l0 -0.0968505 233.488 -0.870473 -0.112205 58.2166c-0.140551,73.6749 -0.244488,126.488 -0.304725,170.581 -0.272835,2.96575 -0.011811,6.03071 0.855119,9.06615 3.75709,13.1539 17.4697,20.7709 30.6248,17.0138l-0.00708662 -0.022441 112.649 -32.1827c29.3374,-8.38229 50.3658,1.92402 63.241,20.6858 12.4854,18.1902 18.7288,43.767 18.7288,69.756l0.0968505 0c0,25.9016 -6.27756,51.4701 -18.8268,69.7548 -12.8752,18.7606 -33.9036,29.067 -63.2398,20.6847l-111.495 -31.8555c-2.50866,-0.850394 -5.19567,-1.31102 -7.99134,-1.3063 -13.6807,0.0165354 -24.7583,11.1224 -24.7406,24.8043l0.0956694 0z"/>
  <path class="fil0" d="M936.336 491.072c-0.0625985,-49.1729 -0.18189,-108.876 -0.351969,-196.845l-0.0732284 -37.65 183.186 -0.682678 0 0.0956694 17.5205 0 -23.5748 82.5142c-15.3602,53.765 4.58859,93.0284 40.4268,117.625 26.6504,18.2917 62.3445,27.4358 97.6241,27.4358 35.2796,0 70.9737,-9.14528 97.6253,-27.437 35.8394,-24.5965 55.7871,-63.8599 40.4268,-117.624l-23.576 -82.5142 17.5217 0 0 -0.0956694 183.14 0.682678 0 197.387 -80.569 -23.0173c-53.765,-15.3614 -93.0261,4.58622 -117.624,40.4244 -18.2917,26.6516 -27.437,62.3469 -27.437,97.6253 0,35.2796 9.14528,70.9749 27.437,97.6253 24.5988,35.8406 63.8611,55.7882 117.624,40.4268l80.569 -23.0209 0 202.24 -231.2 -0.862205c-2.98819,-0.282284 -6.07796,-0.0259843 -9.13701,0.848032 -13.1539,3.75827 -20.7709,17.4709 -17.0138,30.6248l0.022441 -0.00590552 32.6339 114.222c8.38111,29.3374 -1.9252,50.3646 -20.6858,63.2398 -18.1902,12.4854 -43.767,18.7288 -69.756,18.7288 -25.989,0 -51.5658,-6.24331 -69.756,-18.7288 -18.7606,-12.8764 -29.0681,-33.9036 -20.6858,-63.2398l32.3091 -113.085c0.851575,-2.52047 1.31102,-5.22048 1.30039,-8.02914 -0.0496063,-13.6807 -11.1839,-24.7299 -24.8646,-24.6803l0 0.0968505 -233.488 0.870473 0.112205 -58.2166c0.140551,-73.6749 0.244488,-126.488 0.304725,-170.581 0.272835,-2.96575 0.011811,-6.03071 -0.855119,-9.06615 -3.75709,-13.1539 -17.4697,-20.7709 -30.6248,-17.0138l0.00708662 0.022441 -112.649 32.1827c-29.3374,8.38229 -50.3658,-1.92402 -63.241,-20.6858 -12.4854,-18.1902 -18.7288,-43.767 -18.7288,-69.756l-0.0968505 0c0,-25.9016 6.27756,-51.4701 18.8268,-69.7548 12.8752,-18.7606 33.9036,-29.067 63.2398,-20.6847l111.495 31.8555c2.50866,0.850394 5.19567,1.31102 7.99134,1.3063 13.6807,-0.0165354 24.7583,-11.1224 24.7406,-24.8043l-0.0956694 0z"/>
 </g>
 <rect class="fil1" width="2048" height="2048"/>
</svg>
