<?xml version="1.0" encoding="UTF-8"?>
<!DOCTYPE svg PUBLIC "-//W3C//DTD SVG 1.1//EN" "http://www.w3.org/Graphics/SVG/1.1/DTD/svg11.dtd">
<!-- Creator: CorelDRAW -->
<svg xmlns="http://www.w3.org/2000/svg" xml:space="preserve" width="2048px" height="2048px" style="shape-rendering:geometricPrecision; text-rendering:geometricPrecision; image-rendering:optimizeQuality; fill-rule:evenodd; clip-rule:evenodd"
viewBox="0 0 2048 2048"
 xmlns:xlink="http://www.w3.org/1999/xlink">
 <defs>
  <style type="text/css">
   <![CDATA[
    .fil2 {fill:none}
    .fil0 {fill:#424242}
    .fil1 {fill:#424242;fill-rule:nonzero}
   ]]>
  </style>
 </defs>
 <g id="Layer_x0020_1">
  <metadata id="CorelCorpID_0Corel-Layer"/>
  <path class="fil0" d="M1024 236.738c44.1296,0 71.5359,40.2532 98.5891,79.9867 16.0087,23.5122 31.839,46.7622 42.0638,49.5744 10.4787,2.88189 36.3236,-9.74765 62.0363,-22.3134 42.0886,-20.5689 83.9493,-41.0244 120.346,-19.7032 36.4961,21.378 38.9244,68.3079 41.3457,115.139 1.44331,27.9366 2.88662,55.826 9.99804,62.9374 7.11378,7.11378 35.0008,8.55591 62.9386,9.99922 46.8307,2.42126 93.7607,4.84961 115.139,41.3457 21.3213,36.3969 0.865749,78.2575 -19.7032,120.346 -12.5658,25.7138 -25.1953,51.5563 -22.3122,62.0363 2.81221,10.2284 26.0634,26.0575 49.5756,42.0662 39.7335,27.0532 79.9855,54.4583 79.9855,98.5879 0,44.1296 -40.2532,71.5359 -79.9867,98.5891 -23.5122,16.0087 -46.7622,31.839 -49.5744,42.0638 -2.88189,10.4787 9.74765,36.3236 22.3134,62.0363 20.5689,42.0886 41.0244,83.9493 19.7032,120.346 -21.378,36.4961 -68.3079,38.9244 -115.139,41.3457 -27.9366,1.44331 -55.826,2.88662 -62.9374,9.99804 -7.11378,7.11378 -8.55591,35.0008 -9.99922,62.9386 -2.42126,46.8307 -4.84961,93.7607 -41.3457,115.139 -36.3969,21.3213 -78.2575,0.865749 -120.346,-19.7032 -25.7138,-12.5658 -51.5563,-25.1953 -62.0363,-22.3122 -10.2284,2.81221 -26.0575,26.0634 -42.0662,49.5756 -27.0532,39.7335 -54.4583,79.9855 -98.5879,79.9855 -44.1296,0 -71.5359,-40.2532 -98.5891,-79.9867 -16.0087,-23.5122 -31.839,-46.7622 -42.0638,-49.5744 -10.4787,-2.88189 -36.3236,9.74765 -62.0363,22.3134 -42.0886,20.5689 -83.9493,41.0244 -120.346,19.7032 -36.4961,-21.378 -38.9244,-68.3079 -41.3457,-115.139 -1.44331,-27.9366 -2.88662,-55.826 -9.99804,-62.9374 -7.11378,-7.11378 -35.0008,-8.55591 -62.9386,-9.99922 -46.8307,-2.42126 -93.7607,-4.84961 -115.139,-41.3457 -21.3213,-36.3969 -0.865749,-78.2575 19.7032,-120.346 12.5658,-25.7138 25.1953,-51.5563 22.3122,-62.0363 -2.81221,-10.2284 -26.0646,-26.0599 -49.5756,-42.0674 -39.7335,-27.0508 -79.9855,-54.4607 -79.9855,-98.5867 0,-44.1296 40.2532,-71.5359 79.9867,-98.5891 23.5122,-16.0087 46.7622,-31.839 49.5744,-42.0638 2.88189,-10.4787 -9.74765,-36.3236 -22.3134,-62.0363 -20.5689,-42.0886 -41.0244,-83.9493 -19.7032,-120.346 21.378,-36.4961 68.3079,-38.9244 115.139,-41.3457 27.9366,-1.44331 55.826,-2.88662 62.9374,-9.99804 7.11378,-7.11378 8.55591,-35.0008 9.99922,-62.9386 2.42126,-46.8307 4.84961,-93.7607 41.3457,-115.139 36.3969,-21.3213 78.2575,-0.865749 120.346,19.7032 25.7138,12.5658 51.5563,25.1953 62.0363,22.3122 10.2284,-2.81221 26.0575,-26.0634 42.0662,-49.5756 27.0532,-39.7335 54.4583,-79.9855 98.5879,-79.9855zm0 200.727c121.298,0 231.117,49.1693 310.611,128.663 79.4942,79.4942 128.663,189.313 128.663,310.611 0,121.297 -49.1693,231.117 -128.663,310.611 -79.4942,79.4942 -189.313,128.663 -310.611,128.663 -121.298,0 -231.117,-49.1693 -310.611,-128.663 -79.4942,-79.4942 -128.663,-189.314 -128.663,-310.611 0,-121.298 49.1693,-231.117 128.663,-310.611 79.4942,-79.4942 189.313,-128.663 310.611,-128.663zm265.361 173.914c-67.9087,-67.9087 -161.728,-109.912 -265.361,-109.912 -103.632,0 -197.452,42.0036 -265.361,109.912 -67.9087,67.9087 -109.912,161.728 -109.912,265.361 0,103.631 42.0036,197.452 109.912,265.361 67.9087,67.9087 161.728,109.912 265.361,109.912 103.632,0 197.452,-42.0036 265.361,-109.912 67.9087,-67.9087 109.912,-161.73 109.912,-265.361 0,-103.632 -42.0036,-197.452 -109.912,-265.361zm-21.5929 164.13c12.4949,-12.4949 12.4949,-32.7555 0,-45.2504 -12.4949,-12.4949 -32.7555,-12.4949 -45.2504,0l-267.625 267.625 -129.411 -129.411c-12.4949,-12.4949 -32.7555,-12.4949 -45.2504,0 -12.4949,12.4949 -12.4949,32.7555 0,45.2504l151.857 151.857 0.177165 0.18189c12.4961,12.4961 32.7591,12.4961 45.2552,0l-0.00236221 -0.00236221 290.25 -290.25z"/>
  <path class="fil1" d="M593.971 1273.48l-184.719 314.495 -0.105118 -0.0614174c-8.9504,15.2386 -3.85276,34.8496 11.3858,43.8 6.24804,3.66969 13.2307,4.97717 19.9134,4.19292l185.961 -15.5091 79.5178 172.238 28.9996 -13.3748 -29.054 13.4126c7.4067,16.0453 26.4213,23.048 42.4666,15.6414 7.0689,-3.26339 12.3815,-8.78032 15.4819,-15.3036l170.678 -290.588c-13.0488,-14.7957 -24.5528,-31.526 -35.537,-47.6587 -4.83544,-7.10197 -16.389,-24.9484 -24.6236,-34.3512 -11.9315,4.07717 -31.2047,14.0339 -38.9752,17.8311 -47.1579,23.0457 -99.9957,48.1902 -150.571,18.5634 -50.7496,-29.7272 -54.4134,-88.5662 -57.1288,-141.098 -0.424016,-8.20749 -0.961418,-27.587 -2.85827,-39.7725 -8.82993,-1.3748 -21.437,-2.03622 -30.8327,-2.45669z"/>
  <path class="fil1" d="M1113.5 1502.42l170.678 290.588c3.1004,6.52323 8.413,12.0402 15.4819,15.3036 16.0453,7.4067 35.0599,0.403937 42.4666,-15.6414l-29.054 -13.4126 28.9996 13.3748 79.5178 -172.238 185.961 15.5091c6.68268,0.784253 13.6654,-0.523229 19.9134,-4.19292 15.2386,-8.9504 20.3362,-28.5614 11.3858,-43.8l-0.105118 0.0614174 -184.719 -314.496c-9.39568,0.421654 -22.0028,1.08189 -30.8327,2.45669 -1.89803,12.1854 -2.43425,31.5662 -2.85827,39.7725 -2.71536,52.5319 -6.37914,111.371 -57.1288,141.098 -50.5748,29.6268 -103.413,4.48229 -150.571,-18.5634 -7.7693,-3.79725 -27.0449,-13.7551 -38.9764,-17.8311 -8.23347,9.40158 -19.7894,27.2516 -24.6248,34.3536 -10.9831,16.1315 -22.487,32.863 -35.5347,47.6575z"/>
 </g>
 <rect class="fil2" width="2048" height="2048"/>
</svg>
