<?xml version="1.0" encoding="UTF-8"?>
<!DOCTYPE svg PUBLIC "-//W3C//DTD SVG 1.1//EN" "http://www.w3.org/Graphics/SVG/1.1/DTD/svg11.dtd">
<!-- Creator: CorelDRAW -->
<svg xmlns="http://www.w3.org/2000/svg" xml:space="preserve" width="2048px" height="2048px" style="shape-rendering:geometricPrecision; text-rendering:geometricPrecision; image-rendering:optimizeQuality; fill-rule:evenodd; clip-rule:evenodd"
viewBox="0 0 2048 2048"
 xmlns:xlink="http://www.w3.org/1999/xlink">
 <defs>
  <style type="text/css">
   <![CDATA[
    .fil2 {fill:none}
    .fil0 {fill:#424242}
    .fil1 {fill:#424242;fill-rule:nonzero}
   ]]>
  </style>
 </defs>
 <g id="Layer_x0020_1">
  <metadata id="CorelCorpID_0Corel-Layer"/>
  <g id="_486635304">
   <path id="_486636168" class="fil0" d="M313.376 839.017l370.968 0c31.5709,0 57.3756,25.8225 57.3756,57.3756l0 92.269 -61.7575 35.6646 0 -81.3343 -362.204 0 0 500.028 362.204 0 0 -311.809 61.7575 -35.6646 0 472.474c0,11.4709 -3.42874,22.1858 -9.31064,31.1752 -2.76851,4.23189 -6.38977,8.54292 -10.2555,11.9362 -10.1008,8.8689 -23.3469,14.2654 -37.8095,14.2654l-370.968 0c-31.5591,0 -57.3768,-25.8284 -57.3768,-57.3768l0 -671.628c0,-31.5709 25.7894,-57.3756 57.3768,-57.3756zm136 57.6083c0,-6.39449 5.18504,-11.5795 11.5795,-11.5795l75.8068 0c6.39449,0 11.5795,5.18504 11.5795,11.5795 0,6.39449 -5.18504,11.5795 -11.5795,11.5795l-75.8068 0c-6.39449,0 -11.5795,-5.18504 -11.5795,-11.5795zm49.4847 589.066c18.854,0 34.1386,15.2847 34.1386,34.1386 0,18.8563 -15.2847,34.141 -34.1386,34.141 -18.8551,0 -34.1398,-15.2847 -34.1398,-34.141 0,-18.854 15.2847,-34.1386 34.1398,-34.1386z"/>
   <path id="_486636336" class="fil1" d="M575.601 808.138l3.57048 -298.92c0.0755906,-6.7878 2.96221,-13.0618 7.58977,-17.6882 4.42559,-4.42559 10.4787,-7.17048 17.1484,-7.17048l931.882 0c6.73938,0 12.8882,2.77914 17.3646,7.25552 4.4752,4.4752 7.25552,10.624 7.25552,17.3622l0 776.991c0,6.39567 -3.34488,12.7453 -8.46615,17.6906 -5.59134,5.4 -12.8823,8.85591 -20.1118,8.85591l-759.236 0 0 61.7587 929.066 0c23.5595,0 46.2508,-10.2331 62.8111,-26.2276 16.65,-16.0807 27.5244,-38.2146 27.5244,-62.0776l0 -776.991c0,-23.7851 -9.70867,-45.3863 -25.3488,-61.0276 -15.6414,-15.6402 -37.2437,-25.3488 -61.03,-25.3488l-1163.47 0c-23.7662,0 -45.2221,9.67324 -60.8138,25.265 -15.502,15.5008 -25.1752,37.0536 -25.441,60.8693l-3.57638 299.403 123.279 0zm1045.51 90.2989c0,-17.3232 14.0433,-31.3666 31.3654,-31.3666 17.3244,0 31.3677,14.0433 31.3677,31.3666 0,17.3232 -14.0433,31.3666 -31.3677,31.3666 -17.3221,0 -31.3654,-14.0433 -31.3654,-31.3666z"/>
   <path id="_486636144" class="fil1" d="M1393.31 683.605c7.36064,-4.2626 9.87166,-13.6866 5.60906,-21.0473 -4.2626,-7.36064 -13.6866,-9.87048 -21.0473,-5.60906l-861.18 497.32c-7.35945,4.2626 -9.87048,13.6866 -5.60788,21.0473 4.2626,7.35945 13.6866,9.87048 21.0473,5.60788l861.179 -497.319z"/>
   <path id="_486635568" class="fil2" d="M272.83 1608.57l0 0zm176.547 -711.942c0,-6.39449 5.18504,-11.5795 11.5795,-11.5795l75.8068 0c6.39449,0 11.5795,5.18504 11.5795,11.5795 0,6.39449 -5.18504,11.5795 -11.5795,11.5795l-75.8068 0c-6.39449,0 -11.5795,-5.18504 -11.5795,-11.5795z"/>
   <polygon id="_486635496" class="fil0" points="1284.28,630.129 1404.58,658.144 1376.56,778.438 "/>
   <polygon id="_486635376" class="fil0" points="616.503,1215.52 496.209,1187.5 524.222,1067.21 "/>
  </g>
 </g>
 <rect class="fil2" width="2048" height="2048"/>
</svg>
