<?xml version="1.0" encoding="UTF-8"?>
<!DOCTYPE svg PUBLIC "-//W3C//DTD SVG 1.1//EN" "http://www.w3.org/Graphics/SVG/1.1/DTD/svg11.dtd">
<!-- Creator: CorelDRAW -->
<svg xmlns="http://www.w3.org/2000/svg" xml:space="preserve" width="2048px" height="2048px" style="shape-rendering:geometricPrecision; text-rendering:geometricPrecision; image-rendering:optimizeQuality; fill-rule:evenodd; clip-rule:evenodd"
viewBox="0 0 2048 2048"
 xmlns:xlink="http://www.w3.org/1999/xlink">
 <defs>
  <style type="text/css">
   <![CDATA[
    .fil2 {fill:none}
    .fil0 {fill:#424242}
    .fil1 {fill:#424242;fill-rule:nonzero}
   ]]>
  </style>
 </defs>
 <g id="Layer_x0020_1">
  <metadata id="CorelCorpID_0Corel-Layer"/>
  <path class="fil0" d="M1024 255.998c91.6194,0 174.569,37.141 234.613,97.1835 60.0449,60.0449 97.1835,142.995 97.1835,234.614 0,29.6044 -3.92835,58.415 -11.2913,85.9335 -7.55906,28.2414 -18.8032,55.0737 -33.1925,79.9512l0.0661418 0.0377953c-6.00119,10.3736 -16.9347,16.1138 -28.1221,15.9768l-518.937 0c-12.7039,0 -23.6788,-7.40316 -28.8461,-18.1299 -13.8095,-24.2799 -24.6343,-50.393 -31.9796,-77.8359 -7.363,-27.5185 -11.2913,-56.3292 -11.2913,-85.9335 0,-91.6194 37.1386,-174.569 97.1835,-234.614 60.0437,-60.0426 142.994,-97.1835 234.613,-97.1835zm-118.909 220.531c0,17.6728 14.328,32.0008 32.0008,32.0008 17.6728,0 32.0008,-14.328 32.0008,-32.0008l0 -23.5642c0,-17.6728 -14.328,-32.0008 -32.0008,-32.0008 -17.6728,0 -32.0008,14.328 -32.0008,32.0008l0 23.5642zm239.009 131.47c-27.1146,36.8882 -70.8083,60.8351 -120.1,60.8351 -49.2922,0 -92.9859,-23.9469 -120.1,-60.8351l240.201 0zm-65.1934 -131.47c0,17.6728 14.328,32.0008 32.0008,32.0008 17.6728,0 32.0008,-14.328 32.0008,-32.0008l0 -23.5642c0,-17.6728 -14.328,-32.0008 -32.0008,-32.0008 -17.6728,0 -32.0008,14.328 -32.0008,32.0008l0 23.5642z"/>
  <path class="fil1" d="M1338.11 1381.58c-80.3883,80.3894 -191.445,130.113 -314.109,130.113 -122.663,0 -233.72,-49.7233 -314.109,-130.113 -80.3894,-80.3894 -130.113,-191.445 -130.113,-314.109 0,-39.678 5.25355,-78.2552 15.1051,-115.062 9.913,-37.0418 24.5481,-72.2481 43.2201,-104.939 5.17205,-10.7161 16.141,-18.1099 28.8366,-18.1099l713.749 0c11.1685,-0.11811 22.0772,5.61969 28.0689,15.978l-0.0649607 0.0377953c19.2473,33.2788 34.2969,69.1985 44.4225,107.033 9.85158,36.8067 15.1051,75.3839 15.1051,115.062 0,122.663 -49.7233,233.719 -130.113,314.109zm-494.509 -265.358c0,19.7599 14.328,35.7792 32.0008,35.7792 17.6728,0 32.0008,-16.0193 32.0008,-35.7792l0 -113.583c0,-19.7599 -14.328,-35.7792 -32.0008,-35.7792 -17.6728,0 -32.0008,16.0193 -32.0008,35.7792l0 113.583zm296.798 0c0,19.7599 14.328,35.7792 32.0008,35.7792 17.6728,0 32.0008,-16.0193 32.0008,-35.7792l0 -113.583c0,-19.7599 -14.328,-35.7792 -32.0008,-35.7792 -17.6728,0 -32.0008,16.0193 -32.0008,35.7792l0 113.583zm-197.866 0c0,19.7599 14.328,35.7792 32.0008,35.7792 17.6728,0 32.0008,-16.0193 32.0008,-35.7792l0 -113.583c0,-19.7599 -14.328,-35.7792 -32.0008,-35.7792 -17.6728,0 -32.0008,16.0193 -32.0008,35.7792l0 113.583zm98.9328 0c0,19.7599 14.328,35.7792 32.0008,35.7792 17.6728,0 32.0008,-16.0193 32.0008,-35.7792l0 -113.583c0,-19.7599 -14.328,-35.7792 -32.0008,-35.7792 -17.6728,0 -32.0008,16.0193 -32.0008,35.7792l0 113.583z"/>
  <path class="fil1" d="M1152 752.484c0,-17.6728 -57.3107,-32.0008 -128.001,-32.0008 -70.6902,0 -128.001,14.328 -128.001,32.0008l0 108.876c0,17.6728 57.3107,32.0008 128.001,32.0008 70.6902,0 128.001,-14.328 128.001,-32.0008l0 -108.876z"/>
  <g id="_486637080">
   <path id="_486637008" class="fil1" d="M903.858 1364.27c0,-17.6728 -14.328,-32.0008 -32.0008,-32.0008 -17.6728,0 -64.0004,14.328 -64.0004,32.0008l0 331.733 -102.147 39.528c-15.5929,0 -28.2355,12.6425 -28.2355,28.2355 0,15.5929 12.6425,28.2355 28.2355,28.2355l134.147 0.0011811c17.6728,0 32.0008,-14.328 32.0008,-32.0008l31.9996 -395.732z"/>
   <path id="_486636864" class="fil1" d="M1144.14 1364.27c0,-17.6728 14.328,-32.0008 32.0008,-32.0008 17.6728,0 64.0004,14.328 64.0004,32.0008l0 331.733 102.147 39.528c15.5929,0 28.2355,12.6425 28.2355,28.2355 0,15.5929 -12.6425,28.2355 -28.2355,28.2355l-134.147 0.0011811c-17.6728,0 -32.0008,-14.328 -32.0008,-32.0008l-31.9996 -395.732z"/>
  </g>
  <g id="_486636984">
   <path id="_486636576" class="fil1" d="M436.272 1322c-8.33268,62.0032 85.9465,74.6717 94.2768,12.6673 6.83504,-101.858 11.2287,-206.491 11.2287,-306.979 0,-93.1572 -14.9788,-81.1926 73.2532,-81.1926 17.6728,0 32.0008,-14.328 32.0008,-32.0008 0,-17.6728 1.8189,-50.1662 -15.8539,-50.1662 -136.162,0 -155.241,5.74607 -154.305,89.1969 1.80591,161.201 -6.57638,210.571 -40.6004,368.475z"/>
   <path id="_486636768" class="fil1" d="M1611.73 1322c8.33268,62.0032 -85.9465,74.6717 -94.2768,12.6673 -6.83504,-101.858 -11.2287,-206.491 -11.2287,-306.979 0,-93.1572 14.9788,-81.1926 -73.2532,-81.1926 -17.6728,0 -32.0008,-14.328 -32.0008,-32.0008 0,-17.6728 -1.8189,-50.1662 15.8539,-50.1662 136.162,0 155.241,5.74607 154.305,89.1969 -1.80591,161.201 6.57638,210.571 40.6004,368.475z"/>
  </g>
 </g>
 <rect class="fil2" width="2048" height="2048"/>
</svg>
