<?xml version="1.0" encoding="UTF-8"?>
<!DOCTYPE svg PUBLIC "-//W3C//DTD SVG 1.1//EN" "http://www.w3.org/Graphics/SVG/1.1/DTD/svg11.dtd">
<!-- Creator: CorelDRAW -->
<svg xmlns="http://www.w3.org/2000/svg" xml:space="preserve" width="2048px" height="2048px" style="shape-rendering:geometricPrecision; text-rendering:geometricPrecision; image-rendering:optimizeQuality; fill-rule:evenodd; clip-rule:evenodd"
viewBox="0 0 2048 2048"
 xmlns:xlink="http://www.w3.org/1999/xlink">
 <defs>
  <style type="text/css">
   <![CDATA[
    .fil1 {fill:none}
    .fil0 {fill:#424242;fill-rule:nonzero}
   ]]>
  </style>
 </defs>
 <g id="Layer_x0020_1">
  <metadata id="CorelCorpID_0Corel-Layer"/>
  <path class="fil0" d="M287.347 303.02l249.866 0 0 376.162c0,8.66221 7.01339,15.6756 15.6744,15.6756l753.237 0c8.66103,0 15.6744,-7.01339 15.6744,-15.6756l0 -376.162 112.651 0c8.75552,0 16.6689,3.58937 22.3571,9.37678l326.009 326.01 0.00236221 -0.00236221c6.12048,6.12048 9.18072,14.1425 9.18072,22.1658l0.0011811 0 0 1053.06c0,17.3126 -14.0351,31.3477 -31.3477,31.3477l-1473.31 0c-17.3126,0 -31.3477,-14.0351 -31.3477,-31.3477l0 -1379.26c0,-17.3126 14.0351,-31.3477 31.3477,-31.3477zm381.129 1191.18l0 -63.7087 626.94 0 0 63.7087 -626.94 0zm0 -124.373l0 -63.7087 626.94 0 0 63.7087 -626.94 0zm716.569 225.38l0 -602.558 -816.836 0 0 602.558 816.836 0zm31.3465 31.3465l0 -665.251 -879.529 0 0 665.251 879.529 0zm-245.521 -1229.5l-62.6953 0 0 188.081 62.6953 0 0 -188.081zm-602.308 -94.0406l721.886 0 0 360.488 -721.886 0 0 -360.488z"/>
 </g>
 <rect class="fil1" width="2048" height="2048"/>
</svg>
