<?xml version="1.0" encoding="UTF-8"?>
<!DOCTYPE svg PUBLIC "-//W3C//DTD SVG 1.1//EN" "http://www.w3.org/Graphics/SVG/1.1/DTD/svg11.dtd">
<!-- Creator: CorelDRAW -->
<svg xmlns="http://www.w3.org/2000/svg" xml:space="preserve" width="2048px" height="2048px" style="shape-rendering:geometricPrecision; text-rendering:geometricPrecision; image-rendering:optimizeQuality; fill-rule:evenodd; clip-rule:evenodd"
viewBox="0 0 2048 2048"
 xmlns:xlink="http://www.w3.org/1999/xlink">
 <defs>
  <style type="text/css">
   <![CDATA[
    .fil2 {fill:none}
    .fil1 {fill:#424242}
    .fil0 {fill:#424242;fill-rule:nonzero}
   ]]>
  </style>
 </defs>
 <g id="Layer_x0020_1">
  <metadata id="CorelCorpID_0Corel-Layer"/>
  <path class="fil0" d="M1382.82 1262.24l356.436 278.489c1.56378,1.01693 3.06024,2.18622 4.46929,3.5067l-21.887 23.3445 21.8752 -23.25c42.3225,39.6792 47.6091,88.6442 31.552,129.918 -6.06733,15.5941 -15.228,29.928 -26.5866,42.0437 -11.3587,12.1134 -25.0512,22.1681 -40.1859,29.2087 -39.5185,18.3851 -87.8505,16.5626 -129.812,-21.4713 -1.39725,-1.11614 -2.72126,-2.36339 -3.95079,-3.7441l23.8949 -21.2847 -23.8748 21.2504 -303.408 -340.622c-26.6906,-26.0587 -29.8158,-58.03 -19.2744,-85.1292 3.99803,-10.278 10.0051,-19.6914 17.4354,-27.6154 7.42678,-7.92284 16.415,-14.5134 26.3752,-19.1469 26.5559,-12.3543 58.9855,-11.1319 86.941,14.5028z"/>
  <path class="fil1" d="M1163.38 413.47l0.219685 -0.233858 11.6717 10.9606c0.846851,0.794883 0.270473,0.22441 1.18347,1.15039l0.204331 0.209055 0.518504 0.529134 0.531496 0.568111c98.2324,104.602 166.414,236.086 171.095,381.332 2.28307,70.8438 -9.08977,141.713 -33.5965,208.231 -23.6221,64.1162 -58.9619,122.936 -104.153,174.006l0.233858 0.219685 -10.9606 11.6717c-0.794883,0.846851 -0.22441,0.270473 -1.15039,1.18347l-0.209055 0.204331 -0.529134 0.518504 -0.568111 0.531496c-104.601,98.2312 -236.087,166.414 -381.332,171.095 -70.8532,2.28307 -141.734,-9.09331 -208.259,-33.6059 -69.1347,-25.4752 -132.111,-64.5733 -185.851,-114.957 -106.817,-100.146 -168.838,-237.395 -173.551,-383.703 -2.28307,-70.8532 9.09331,-141.734 33.6059,-208.259 25.4752,-69.1347 64.5721,-132.11 114.957,-185.85 100.147,-106.817 237.396,-168.838 383.704,-173.551 70.8438,-2.28307 141.715,9.09095 208.232,33.5977 64.1162,23.6209 122.936,58.9607 174.005,104.152zm-31.3359 721.216c40.9134,-44.1 72.678,-95.6068 93.4312,-152.097 20.139,-54.8185 29.4768,-113.209 27.5953,-171.573 -3.83268,-118.905 -48.2197,-237.209 -141.256,-314.848l-0.451181 -0.375591 -0.955513 -0.833859 -0.729922 -0.670867c-0.936615,-0.868111 -0.376772,-0.322441 -1.29095,-1.25433l-0.543308 -0.553937c-44.0989,-40.9146 -95.6068,-72.678 -152.097,-93.43 -54.8185,-20.139 -113.209,-29.4768 -171.573,-27.5965 -120.888,3.89528 -234.16,55.213 -316.891,143.454 -41.6067,44.3776 -73.8898,96.3603 -94.9265,153.451 -20.2429,54.939 -29.6315,113.478 -27.7465,171.991 3.89528,120.887 55.213,234.16 143.454,316.89 44.3776,41.6067 96.3615,73.8898 153.452,94.9265 54.939,20.2429 113.478,29.6327 171.991,27.7465 118.905,-3.83268 237.209,-48.2197 314.848,-141.256l0.375591 -0.451181 0.833859 -0.955513 0.670867 -0.729922c0.868111,-0.936615 0.322441,-0.376772 1.25433,-1.29095l0.553937 -0.543308z"/>
  <path class="fil0" d="M1187.19 1146.03c-12.8398,-12.0803 -33.0449,-11.465 -45.1252,1.3748 -12.0803,12.8398 -11.465,33.0449 1.3748,45.1252l119.301 111.852c12.8398,12.0803 33.0449,11.465 45.1252,-1.3748 12.0803,-12.8398 11.465,-33.0449 -1.3748,-45.1252l-119.301 -111.852z"/>
  <path class="fil1" d="M537.44 826.277c10.2591,5.73071 19.2036,13.4776 25.5378,23.9492 11.902,19.6725 13.6795,50.4756 13.6795,72.9001l0 68.1095c0,12.7736 0.875198,40.9429 10.1055,51.065 8.60434,9.43583 28.8343,10.7067 40.5874,10.7067 1.84134,0 3.74646,-0.140551 5.58426,-0.265748 2.36221,-0.159449 4.76339,-0.311811 7.1315,-0.311811l9.99922 0 0 49.9595 -23.2937 0c-26.4579,0 -62.8524,-3.20315 -82.3512,-23.4945 -20.0835,-20.8996 -22.4421,-63.1961 -22.4421,-90.4524l0 -68.9764c0,-16.5083 -1.80945,-41.6008 -13.513,-54.5705 -7.91457,-8.76969 -20.7036,-12.2445 -32.015,-13.6382l-8.77678 -1.08071 0 -48.4111 8.77678 -1.08071c11.2854,-1.39016 24.1181,-4.85197 32.002,-13.6217 11.7106,-13.0299 13.526,-38.217 13.526,-54.7796l0 -68.5914c0,-27.4807 2.42244,-69.5233 22.4917,-90.6922 19.6134,-20.6858 55.4977,-24.0248 82.3016,-24.0248l23.2937 0 0 49.9595 -20.4036 0c-12.1028,0 -33.7217,1.22362 -42.6685,10.8662 -9.42757,10.161 -10.3358,38.2016 -10.3358,51.0981l0 68.4945c0,22.4032 -1.78937,53.152 -13.6784,72.8044 -6.33662,10.4728 -15.287,18.2622 -25.539,24.0792zm522.793 0c-10.2508,-5.81575 -19.2024,-13.6051 -25.539,-24.0792 -11.8878,-19.6512 -13.6772,-50.4024 -13.6772,-72.8044l0 -68.4945c0,-12.8976 -0.908268,-40.9359 -10.337,-51.0981 -8.94686,-9.64253 -30.567,-10.8662 -42.6685,-10.8662l-20.4036 0 0 -49.9595 23.2937 0c26.804,0 62.6894,3.33898 82.3028,24.0248 20.0693,21.1689 22.4917,63.2115 22.4917,90.6922l0 68.5914c0,16.5614 1.81536,41.7496 13.526,54.7796 7.88268,8.77087 20.7177,12.2315 32.002,13.6217l8.77678 1.08071 0 48.4111 -8.77678 1.08071c-11.3114,1.3937 -24.1028,4.86851 -32.0162,13.6382 -11.7024,12.9685 -13.5118,38.0634 -13.5118,54.5705l0 68.9764c0,27.2563 -2.35866,69.5528 -22.4421,90.4524 -19.4988,20.2914 -55.8945,23.4945 -82.3524,23.4945l-23.2937 0 0 -49.9595 9.99922 0c2.36929,0 4.7693,0.151181 7.13268,0.311811 1.8378,0.125197 3.74292,0.265748 5.58426,0.265748 11.7532,0 31.9819,-1.27087 40.5863,-10.7067 9.2315,-10.1232 10.1067,-38.2902 10.1067,-51.065l0 -68.1095c0,-22.4232 1.77638,-53.2288 13.6784,-72.9001 6.33544,-10.4728 15.2799,-18.2185 25.5378,-23.9492zm-101.477 -0.864568l-88.4599 -57.5504 0 -59.7461 142.16 94.9926 0 44.0929 -142.16 96.1772 0 -59.9186 88.4599 -58.0477zm-324.793 0l88.5721 58.0441 0 59.9221 -142.161 -96.1772 0 -44.0929 142.161 -94.9926 0 59.7497 -88.5721 57.5469zm243.968 -172.68l-111.324 359.716 -51.7063 -13.8177 111.323 -359.714 51.7075 13.8165z"/>
 </g>
 <rect class="fil2" width="2048" height="2048"/>
</svg>
