<?xml version="1.0" encoding="UTF-8"?>
<!DOCTYPE svg PUBLIC "-//W3C//DTD SVG 1.1//EN" "http://www.w3.org/Graphics/SVG/1.1/DTD/svg11.dtd">
<!-- Creator: CorelDRAW -->
<svg xmlns="http://www.w3.org/2000/svg" xml:space="preserve" width="2048px" height="2048px" style="shape-rendering:geometricPrecision; text-rendering:geometricPrecision; image-rendering:optimizeQuality; fill-rule:evenodd; clip-rule:evenodd"
viewBox="0 0 2048 2048"
 xmlns:xlink="http://www.w3.org/1999/xlink">
 <defs>
  <style type="text/css">
   <![CDATA[
    .fil2 {fill:none}
    .fil0 {fill:#424242}
    .fil1 {fill:#424242;fill-rule:nonzero}
   ]]>
  </style>
 </defs>
 <g id="Layer_x0020_1">
  <metadata id="CorelCorpID_0Corel-Layer"/>
  <g id="_486640032">
   <path id="_486640944" class="fil0" d="M530.612 682.28l666.902 0c17.7142,0 32.0764,14.328 32.0764,32.0008l0 848.86c0,17.6728 -14.3622,32.0008 -32.0764,32.0008l-666.902 0c-17.7154,0 -32.0776,-14.328 -32.0776,-32.0008l0 -848.86c0,-17.6728 14.3622,-32.0008 32.0776,-32.0008zm81.1548 304.493l504.591 0 0 32.0008 -504.591 0 0 -32.0008zm0 362.498l504.591 0 0 32.0008 -504.591 0 0 -32.0008zm0 -90.6237l504.591 0 0 32.0008 -504.591 0 0 -32.0008zm0 -90.6249l504.591 0 0 32.0008 -504.591 0 0 -32.0008zm0 -90.6249l504.591 0 0 32.0008 -504.591 0 0 -32.0008zm-0.0011811 -181.25l289.657 0 0 32.0008 -289.657 0 0 -32.0008z"/>
   <path id="_486640656" class="fil1" d="M466.459 1416.43l0 -702.148c0,-35.3351 28.7339,-64.0004 64.1528,-64.0004l519.843 0 64.154 0 0 -50.7107c0,-17.6728 -14.3622,-32.0008 -32.0776,-32.0008l-666.903 0c-17.7142,0 -32.0764,14.328 -32.0764,32.0008l0 848.86c0,17.6728 14.3622,32.0008 32.0764,32.0008l50.8311 0 0 -64.0016z"/>
   <path id="_486640872" class="fil1" d="M351.475 1301.72l0 -702.148c0,-35.3351 28.7339,-64.0004 64.1528,-64.0004l507.273 0 64.154 0 0 -50.7107c0,-17.6728 -14.3622,-32.0008 -32.0764,-32.0008l-666.903 0c-17.7142,0 -32.0764,14.328 -32.0764,32.0008l0 848.86c0,17.6728 14.3622,32.0008 32.0764,32.0008l63.3993 0 0 -64.0016z"/>
   <g>
    <g>
     <path id="_486640704" class="fil1" d="M1501.62 1318.23l-17.1307 216.586c-0.147638,0.884646 -0.219685,1.7941 -0.210236,2.72126l15.4063 -0.172441 -15.3685 0.198425c0.312992,27.8634 15.9697,45.6284 35.8418,53.3386 7.50827,2.91378 15.5752,4.32284 23.5713,4.23307 7.99371,-0.0897638 16.0169,-1.67362 23.4402,-4.74685 19.3819,-8.02442 34.4587,-25.728 34.6122,-52.9288 0.0590552,-0.857481 0.0472441,-1.7315 -0.0425197,-2.61496l-15.3284 1.55197 15.3095 -1.55551 -22.1729 -217.979c-0.564567,-17.9079 -10.8933,-29.3918 -23.941,-34.4551 -4.94764,-1.92047 -10.2437,-2.84882 -15.4725,-2.78977 -5.22874,0.0578741 -10.4917,1.10079 -15.3768,3.12402 -13.024,5.39174 -23.1402,17.2701 -23.1378,35.4886z"/>
     <path id="_486640632" class="fil1" d="M1510.31 1211.25c-0.205512,-8.46733 12.476,-15.4217 28.3217,-15.5303 15.8457,-0.109843 28.8603,6.66615 29.0646,15.1323l1.64646 78.5434c0.205512,8.46615 -12.476,15.4205 -28.3217,15.5303 -15.8457,0.109843 -28.8603,-6.66615 -29.0658,-15.1335l-1.64528 -78.5422z"/>
    </g>
    <path id="_486639816" class="fil1" d="M1544.48 805.632c-50.6823,-0.970867 -97.154,18.3059 -131.526,50.4556 -34.9819,32.7201 -57.4524,78.704 -59.1166,130.189 -1.66299,51.5221 17.7614,98.8394 50.5122,133.689 32.7969,34.8992 78.8906,57.3166 130.498,58.976 51.6437,1.65945 99.0745,-17.7201 134.007,-50.393 34.7575,-32.5087 57.1571,-78.1099 59.0764,-129.189l-0.0862205 0 0 -0.00236221c0,-0.344882 0.00708662,-0.686221 0.0177165,-1.02874l0.00354331 -0.0744095 0.0330709 -0.73819 0.00236221 -0.0472441c0.0307087,-0.532678 0.0767717,-1.06063 0.133465,-1.58622 0.973229,-50.5595 -18.3508,-96.9225 -50.576,-131.212 -32.5855,-34.6736 -78.2942,-57.0189 -129.493,-58.9359l0 0.0862205 -0.00236221 0c-0.346063,0 -0.688583,-0.00708662 -1.0311,-0.0177165l-0.0755906 -0.00354331 -0.739371 -0.0330709 -0.0472441 -0.00236221c-0.533859,-0.0307087 -1.06299,-0.0755906 -1.58977,-0.132284zm-175.381 3.95551c46.252,-43.2615 108.824,-69.1583 177.041,-67.7162l0.317717 -0.0165354 0.315355 -0.011811 0.467717 -0.0141732 0.387402 -0.00472441 0.334252 -0.00472441 0.00236221 0 0 0.00236221c0.341339,-0.0011811 0.687402,0.00472441 1.03347,0.0153543l-0.00354331 0.108662c69.3378,2.23701 131.165,32.2524 175.074,78.9745 43.363,46.141 69.3225,108.565 67.8768,176.62l0.0165354 0.316536 0.011811 0.315355 0.0141732 0.466536 0.00472441 0.386221 0.00472441 0.333071 0 0.00236221 -0.00236221 0c0,0.341339 -0.00472441,0.686221 -0.0153543,1.0311l-0.108662 -0.00354331c-2.24173,69.1737 -32.3292,130.857 -79.1634,174.662 -46.8898,43.8579 -110.552,69.8717 -179.867,67.6441 -69.3485,-2.22992 -131.19,-32.2488 -175.103,-78.9768 -43.9618,-46.7788 -70.0359,-110.291 -67.8036,-179.44 2.23583,-69.1855 32.3256,-130.879 79.1646,-174.689z"/>
   </g>
  </g>
 </g>
 <rect class="fil2" width="2048" height="2048"/>
</svg>
