<?xml version="1.0" encoding="UTF-8"?>
<!DOCTYPE svg PUBLIC "-//W3C//DTD SVG 1.1//EN" "http://www.w3.org/Graphics/SVG/1.1/DTD/svg11.dtd">
<!-- Creator: CorelDRAW -->
<svg xmlns="http://www.w3.org/2000/svg" xml:space="preserve" width="2048px" height="2048px" style="shape-rendering:geometricPrecision; text-rendering:geometricPrecision; image-rendering:optimizeQuality; fill-rule:evenodd; clip-rule:evenodd"
viewBox="0 0 2048 2048"
 xmlns:xlink="http://www.w3.org/1999/xlink">
 <defs>
  <style type="text/css">
   <![CDATA[
    .fil2 {fill:none}
    .fil0 {fill:#424242}
    .fil1 {fill:#424242;fill-rule:nonzero}
   ]]>
  </style>
 </defs>
 <g id="Layer_x0020_1">
  <metadata id="CorelCorpID_0Corel-Layer"/>
  <path class="fil0" d="M1245.93 729.961l0.452363 78.8209c-1.55551,-0.0649607 -3.11221,-0.0980316 -4.6689,-0.0980316l-11.0776 0c-22.9252,0 -46.0217,7.00512 -64.3725,20.9114 -20.6776,15.6709 -33.7807,38.9055 -33.7807,65.0977l0 21.3425c-25.1646,1.48465 -45.1335,22.3819 -45.1335,47.9162l0 16.8721 -5.51103 0.0011811 -285.929 0c-5.2878,0 -9.5752,-4.2874 -9.5752,-9.5752l0 -241.289 459.596 0zm-188.514 128.881l-83.6694 45.1465 0 -19.4917 66.2587 -34.6772 -66.2587 -34.3796 0 -19.454 83.6694 44.589 0 18.2669zm-213.632 0l0 -18.2669 83.6694 -44.589 0 19.454 -66.3485 34.3796 66.3485 34.6772 0 19.4917 -83.6694 -45.1465z"/>
  <path class="fil1" d="M1102.21 652.873l0 38.2985 38.2996 0 0 -38.2985 -38.2996 0zm-66.9721 38.2985l38.2985 0 0 -38.2985 -38.2985 0 0 38.2985zm134.139 -38.2985l0 38.2985 38.2996 0 0 -38.2985 -38.2996 0zm-373.465 -28.2366l440.445 0c5.2878,0 9.5752,4.2874 9.5752,9.5752l0 86.1745 -459.596 0 0 -86.1745c0,-5.2878 4.2874,-9.5752 9.5752,-9.5752z"/>
  <path class="fil1" d="M774.846 634.211c0,-11.6291 9.43465,-21.065 21.065,-21.065l358.101 0 0 -45.9591c0,-6.34607 -5.14489,-11.4898 -11.4898,-11.4898l-436.615 0c-6.34607,0 -11.491,5.1437 -11.491,11.4898l0 332.207c0,6.34607 5.14489,11.4898 11.491,11.4898l68.9386 0c0,-92.2241 0,-184.448 0,-276.672z"/>
  <g id="_489067664">
   <path id="_489068024" class="fil0" d="M282.429 407.136l1483.14 0c17.6728,0 32.0008,14.328 32.0008,32.0008l0 920.326c0,17.6728 -14.328,32.0008 -32.0008,32.0008l-1483.14 0c-17.6728,0 -32.0008,-14.328 -32.0008,-32.0008l0 -920.326c0,-17.6728 14.328,-32.0008 32.0008,-32.0008zm1216.15 815.48l62.8914 0 0 64.0016 -62.8914 0 0 -64.0016zm102.735 0l62.8914 0 0 64.0016 -62.8914 0 0 -64.0016zm132.26 -751.478l-1419.14 0 0 651.808 1419.14 0 0 -651.808z"/>
   <path id="_489068072" class="fil1" d="M1106.25 1359.46c0,-17.6728 -36.8256,-32.0008 -82.2485,-32.0008 -45.4229,0 -82.2485,14.328 -82.2485,32.0008l0 216.9c0,17.6728 36.8256,32.0008 82.2485,32.0008 45.4229,0 82.2485,-14.328 82.2485,-32.0008l0 -216.9z"/>
   <path id="_489067832" class="fil1" d="M705.35 1589.63c0,68.3091 637.301,68.3091 637.301,0 0,-68.3091 -637.301,-68.3091 -637.301,0z"/>
  </g>
  <path class="fil1" d="M1307.87 947.951l0 -53.2583c0,-15.7311 -8.08583,-29.7248 -21.1075,-39.5941 -11.7366,-8.89489 -27.6992,-14.4154 -45.0461,-14.4154l-11.0776 0c-17.3469,0 -33.3095,5.52048 -45.0449,14.4154 -13.024,9.8693 -21.1087,23.8618 -21.1087,39.5941l0 53.2583 -29.1331 0c-8.83583,0 -16.0004,7.16457 -16.0004,16.0004l0 113.622c0,8.83583 7.16457,16.0004 16.0004,16.0004l201.65 0c8.83583,0 16.0004,-7.16457 16.0004,-16.0004l0 -113.622c0,-8.83583 -7.16457,-16.0004 -16.0004,-16.0004l-29.1319 0zm-111.384 0l0 -53.2583c0,-5.17323 3.20197,-10.187 8.35749,-14.0941 6.44292,-4.88268 15.561,-7.91457 25.7953,-7.91457l11.0776 0c10.2343,0 19.3524,3.03189 25.7965,7.91457 5.15433,3.90709 8.35631,8.92087 8.35631,14.0941l0 53.2583 -79.3831 0z"/>
 </g>
 <rect class="fil2" width="2048" height="2048"/>
</svg>
