<?xml version="1.0" encoding="UTF-8"?>
<!DOCTYPE svg PUBLIC "-//W3C//DTD SVG 1.1//EN" "http://www.w3.org/Graphics/SVG/1.1/DTD/svg11.dtd">
<!-- Creator: CorelDRAW -->
<svg xmlns="http://www.w3.org/2000/svg" xml:space="preserve" width="2048px" height="2048px" style="shape-rendering:geometricPrecision; text-rendering:geometricPrecision; image-rendering:optimizeQuality; fill-rule:evenodd; clip-rule:evenodd"
viewBox="0 0 2048 2048"
 xmlns:xlink="http://www.w3.org/1999/xlink">
 <defs>
  <style type="text/css">
   <![CDATA[
    .fil1 {fill:none}
    .fil0 {fill:#424242;fill-rule:nonzero}
   ]]>
  </style>
 </defs>
 <g id="Layer_x0020_1">
  <metadata id="CorelCorpID_0Corel-Layer"/>
  <path class="fil0" d="M847.859 380.777l395.851 0c17.6728,0 32.0008,14.328 32.0008,32.0008l0 277.095c0,17.6728 -14.328,32.0008 -32.0008,32.0008l-395.851 0c-17.6728,0 -32.0008,-14.328 -32.0008,-32.0008l0 -277.095c0,-17.6728 14.328,-32.0008 32.0008,-32.0008z"/>
  <path class="fil0" d="M911.891 912.271l267.788 0c17.6728,0 32.0008,14.328 32.0008,32.0008l0 187.452c0,17.6728 -14.328,32.0008 -32.0008,32.0008l-267.788 0c-17.6728,0 -32.0008,-14.328 -32.0008,-32.0008l0 -187.452c0,-17.6728 14.328,-32.0008 32.0008,-32.0008z"/>
  <path class="fil0" d="M468.45 912.271l267.788 0c17.6728,0 32.0008,14.328 32.0008,32.0008l0 187.452c0,17.6728 -14.328,32.0008 -32.0008,32.0008l-267.788 0c-17.6728,0 -32.0008,-14.328 -32.0008,-32.0008l0 -187.452c0,-17.6728 14.328,-32.0008 32.0008,-32.0008z"/>
  <path class="fil0" d="M1355.33 912.271l267.788 0c17.6728,0 32.0008,14.328 32.0008,32.0008l0 187.452c0,17.6728 -14.328,32.0008 -32.0008,32.0008l-267.788 0c-17.6728,0 -32.0008,-14.328 -32.0008,-32.0008l0 -187.452c0,-17.6728 14.328,-32.0008 32.0008,-32.0008z"/>
  <path class="fil0" d="M1472.38 944.144c0,8.83583 7.16457,16.0004 16.0004,16.0004 8.83583,0 16.0004,-7.16457 16.0004,-16.0004l0 -130.093c0,-8.83583 -7.16457,-16.0004 -16.0004,-16.0004l-885.188 0c-8.83583,0 -16.0004,7.16457 -16.0004,16.0004l0 130.093c0,8.83583 7.16457,16.0004 16.0004,16.0004 8.83583,0 16.0004,-7.16457 16.0004,-16.0004l0 -114.092 853.188 0 0 114.092z"/>
  <path class="fil0" d="M1061.78 689.874c0,-8.83583 -7.16457,-16.0004 -16.0004,-16.0004 -8.83583,0 -16.0004,7.16457 -16.0004,16.0004l0 232.158c0,8.83583 7.16457,16.0004 16.0004,16.0004 8.83583,0 16.0004,-7.16457 16.0004,-16.0004l0 -232.158z"/>
  <path class="fil0" d="M696.977 1347.57l245.072 0c17.6728,0 32.0008,14.328 32.0008,32.0008l0 171.549c0,17.6728 -14.328,32.0008 -32.0008,32.0008l-245.072 0c-17.6728,0 -32.0008,-14.328 -32.0008,-32.0008l0 -171.549c0,-17.6728 14.328,-32.0008 32.0008,-32.0008z"/>
  <path class="fil0" d="M288 1347.57l245.072 0c17.6728,0 32.0008,14.328 32.0008,32.0008l0 171.549c0,17.6728 -14.328,32.0008 -32.0008,32.0008l-245.072 0c-17.6728,0 -32.0008,-14.328 -32.0008,-32.0008l0 -171.549c0,-17.6728 14.328,-32.0008 32.0008,-32.0008z"/>
  <path class="fil0" d="M1514.93 1347.57l245.072 0c17.6728,0 32.0008,14.328 32.0008,32.0008l0 171.549c0,17.6728 -14.328,32.0008 -32.0008,32.0008l-245.072 0c-17.6728,0 -32.0008,-14.328 -32.0008,-32.0008l0 -171.549c0,-17.6728 14.328,-32.0008 32.0008,-32.0008z"/>
  <path class="fil0" d="M1105.95 1347.57l245.072 0c17.6728,0 32.0008,14.328 32.0008,32.0008l0 171.549c0,17.6728 -14.328,32.0008 -32.0008,32.0008l-245.072 0c-17.6728,0 -32.0008,-14.328 -32.0008,-32.0008l0 -171.549c0,-17.6728 14.328,-32.0008 32.0008,-32.0008z"/>
  <path class="fil0" d="M791.008 1375.6c0,8.83583 7.16457,16.0004 16.0004,16.0004 8.83583,0 16.0004,-7.16457 16.0004,-16.0004l0 -102.333c0,-8.83583 -7.16457,-16.0004 -16.0004,-16.0004l-409.329 0c-8.83583,0 -16.0004,7.16457 -16.0004,16.0004l0 102.333c0,8.83583 7.16457,16.0004 16.0004,16.0004 8.83583,0 16.0004,-7.16457 16.0004,-16.0004l0 -86.3327 377.328 0 0 86.3327z"/>
  <path class="fil0" d="M618.344 1151.99c0,-8.83583 -7.16457,-16.0004 -16.0004,-16.0004 -8.83583,0 -16.0004,7.16457 -16.0004,16.0004l0 121.276c0,8.83583 7.16457,16.0004 16.0004,16.0004 8.83583,0 16.0004,-7.16457 16.0004,-16.0004l0 -121.276z"/>
  <path class="fil0" d="M1673.9 1375.6c0,8.83583 7.16457,16.0004 16.0004,16.0004 8.83583,0 16.0004,-7.16457 16.0004,-16.0004l0 -102.333c0,-8.83583 -7.16457,-16.0004 -16.0004,-16.0004l-409.33 0c-8.83583,0 -16.0004,7.16457 -16.0004,16.0004l0 102.333c0,8.83583 7.16457,16.0004 16.0004,16.0004 8.83583,0 16.0004,-7.16457 16.0004,-16.0004l0 -86.3327 377.329 0 0 86.3327z"/>
  <path class="fil0" d="M1501.23 1151.99c0,-8.83583 -7.16457,-16.0004 -16.0004,-16.0004 -8.83583,0 -16.0004,7.16457 -16.0004,16.0004l0 121.276c0,8.83583 7.16457,16.0004 16.0004,16.0004 8.83583,0 16.0004,-7.16457 16.0004,-16.0004l0 -121.276z"/>
 </g>
 <rect class="fil1" width="2048" height="2048"/>
</svg>
