<?xml version="1.0" encoding="UTF-8"?>
<!DOCTYPE svg PUBLIC "-//W3C//DTD SVG 1.1//EN" "http://www.w3.org/Graphics/SVG/1.1/DTD/svg11.dtd">
<!-- Creator: CorelDRAW -->
<svg xmlns="http://www.w3.org/2000/svg" xml:space="preserve" width="2048px" height="2048px" style="shape-rendering:geometricPrecision; text-rendering:geometricPrecision; image-rendering:optimizeQuality; fill-rule:evenodd; clip-rule:evenodd"
viewBox="0 0 2048 2048"
 xmlns:xlink="http://www.w3.org/1999/xlink">
 <defs>
  <style type="text/css">
   <![CDATA[
    .fil2 {fill:none}
    .fil0 {fill:#424242}
    .fil1 {fill:#424242;fill-rule:nonzero}
   ]]>
  </style>
 </defs>
 <g id="Layer_x0020_1">
  <metadata id="CorelCorpID_0Corel-Layer"/>
  <g id="_489073112">
   <path id="_489073664" class="fil0" d="M1501.77 788.072l0 204.892c-6.80906,-0.917717 -13.5673,-1.30866 -19.8024,-1.44449 -15.0744,-0.324803 -32.224,0.66378 -47.0717,3.49843 -35.7827,6.8315 -39.7914,27.991 -52.3052,56.8158 -2.87599,6.62363 -9.37796,22.6382 -14.7673,32.3705 -10.9217,-3.17481 -27.3898,-10.2461 -34.2331,-12.998 -9.49843,-3.81969 -19.0559,-7.5189 -28.6618,-11.0587 -20.5358,-7.56733 -39.9319,1.52599 -55.5626,14.8205 -6.61536,5.62678 -12.2102,11.7331 -18.3071,17.8299 -8.17442,8.17678 -15.4358,17.1579 -23.1295,25.7693 -11.4,12.7571 -15.5988,30.4441 -9.96851,46.7929l9.00237 26.1366 0.84567 -0.351969c0.558662,1.38898 1.11732,2.77559 1.6748,4.16221 2.75315,6.84331 9.82442,23.315 12.9992,34.2378 -9.73111,5.38819 -25.7457,11.889 -32.3681,14.765 -9.97796,4.33229 -19.8154,8.95158 -29.7071,13.4693 -14.9457,6.82323 -25.5343,20.6209 -27.4748,37.0737l-2.94803 24.9768 0.933072 0.13937c-0.244488,5.16024 -0.388583,10.3264 -0.388583,15.489 0,6.42638 0.22441,12.8563 0.587008,19.2697l-645.862 0c-11.9445,0 -21.6295,-9.68268 -21.6295,-21.6272l0 -545.028 1038.14 0zm-741.602 73.6961l132.207 0c5.90315,0 10.6878,4.78583 10.6878,10.6878l0 92.5453c0,5.90197 -4.78465,10.6878 -10.6878,10.6878l-60.7595 0 0 25.4421 142.475 0c2.95158,0 5.34449,2.39292 5.34449,5.34449l0 32.8028 39.6567 0c5.90315,0 10.6878,4.78583 10.6878,10.6878l0 62.6056c0,5.90315 -4.78465,10.6878 -10.6878,10.6878l-40.7079 0 0 31.2414 63.0107 0c2.95158,0 5.34449,2.39292 5.34449,5.34331l0 24.8185 18.0697 0c5.90197,0 10.6878,4.78465 10.6878,10.6866l0 57.2953c0,5.90197 -4.78583,10.6878 -10.6878,10.6878l-81.8505 0c-5.90315,0 -10.6878,-4.78583 -10.6878,-10.6878l0 -57.2953c0,-5.90197 4.78465,-10.6866 10.6878,-10.6866l53.093 0 0 -19.4752 -63.0107 0 -63.0119 0 0 19.4752 18.1878 0c5.90315,0 10.6878,4.78465 10.6878,10.6866l0 57.2953c0,5.90197 -4.78465,10.6878 -10.6878,10.6878l-81.8505 0c-5.90197,0 -10.6878,-4.78583 -10.6878,-10.6878l0 -57.2953c0,-5.90197 4.78583,-10.6866 10.6878,-10.6866l52.9748 0 0 -24.8185c0,-2.9504 2.39292,-5.34331 5.34449,-5.34331l63.0107 0 0 -31.2414 -38.041 0c-5.90197,0 -10.6878,-4.78465 -10.6878,-10.6878l0 -62.6056c0,-5.90197 4.78583,-10.6878 10.6878,-10.6878l39.0922 0 0 -27.4595 -137.132 0 0 27.4595 39.3744 0c5.90315,0 10.6878,4.78583 10.6878,10.6878l0 62.6056c0,5.90315 -4.78465,10.6878 -10.6878,10.6878l-89.4367 0c-5.90315,0 -10.6878,-4.78465 -10.6878,-10.6878l0 -62.6056c0,-5.90197 4.78465,-10.6878 10.6878,-10.6878l39.3744 0 0 -27.4595 -137.131 0 0 27.4595 39.091 0c5.90315,0 10.6878,4.78583 10.6878,10.6878l0 62.6056c0,5.90315 -4.78465,10.6878 -10.6878,10.6878l-39.3744 0 0 31.2414 63.0107 0c2.95158,0 5.34331,2.39292 5.34331,5.34331l0 24.8185 39.7583 0c5.90197,0 10.6878,4.78465 10.6878,10.6866l0 57.2953c0,5.90197 -4.78583,10.6878 -10.6878,10.6878l-81.8505 0c-5.90315,0 -10.6878,-4.78583 -10.6878,-10.6878l0 -57.2953c0,-5.90197 4.78465,-10.6866 10.6878,-10.6866l31.4055 0 0 -19.4752 -63.0119 0 -63.0107 0 0 19.4752 39.8752 0c5.90315,0 10.6878,4.78465 10.6878,10.6866l0 57.2953c0,5.90197 -4.78465,10.6878 -10.6878,10.6878l-81.8505 0c-5.90197,0 -10.6866,-4.78583 -10.6866,-10.6878l0 -57.2953c0,-5.90197 4.78465,-10.6866 10.6866,-10.6866l31.2874 0 0 -24.8185c0,-2.9504 2.3941,-5.34331 5.34449,-5.34331l63.0107 0 0 -31.2414 -39.3744 0c-5.90315,0 -10.6878,-4.78465 -10.6878,-10.6878l0 -62.6056c0,-5.90197 4.78465,-10.6878 10.6878,-10.6878l39.6579 0 0 -32.8028c0,-2.95158 2.39173,-5.34449 5.34331,-5.34449l142.475 0 0 -25.4421 -60.7595 0c-5.90315,0 -10.689,-4.78583 -10.689,-10.6878l0 -92.5453c0,-5.90197 4.78583,-10.6878 10.689,-10.6878z"/>
   <path id="_489073880" class="fil1" d="M1177.13 613.942l0 86.5111 86.5111 0 0 -86.5111 -86.5111 0zm-151.279 86.5111l86.5111 0 0 -86.5111 -86.5111 0 0 86.5111zm302.998 -86.5111l0 86.5111 86.5111 0 0 -86.5111 -86.5111 0zm-843.591 -63.7808l994.887 0c11.9445,0 21.6284,9.68387 21.6284,21.6295l0 194.652 -1038.14 0 0 -194.652c0,-11.9457 9.68387,-21.6295 21.6295,-21.6295z"/>
   <path id="_489074096" class="fil1" d="M437.674 571.79c0,-26.2689 21.313,-47.5807 47.5819,-47.5807l808.888 0 0 -103.814c0,-14.3339 -11.6209,-25.9536 -25.9547,-25.9536l-986.234 0c-14.3339,0 -25.9547,11.6197 -25.9547,25.9536l0 750.396c0,14.3327 11.6209,25.9536 25.9547,25.9536l155.719 0c0,-208.318 0,-416.637 0,-624.955z"/>
   <path id="_489074072" class="fil0" d="M1527.81 1032.91c4.38662,8.80158 8.84174,19.0595 13.2697,29.2618 9.98859,23.0079 19.8319,45.678 27.411,48.8835 7.73977,3.27402 31.4445,-6.26103 55.0855,-15.7701 13.9146,-5.59725 36.4559,-19.3949 49.7622,-6.27993 9.02127,7.3004 17.2689,14.6882 24.7087,22.128 7.89804,7.89804 15.7406,16.7091 23.4827,26.3858l0.0791339 -0.0625985c4.72678,5.90906 5.64685,13.6347 3.09095,20.2146 -2.96339,8.50276 -6.87402,18.2244 -10.7858,27.9508 -9.50906,23.6421 -19.0441,47.3469 -15.7713,55.0867 3.20551,7.57914 25.8768,17.4225 48.8847,27.411 13.4965,5.85945 40.5437,12.8079 41.8347,30.7276 1.89921,16.5662 10.4858,81.0875 -12.5728,90.6839 -8.80158,4.3878 -19.0595,8.84174 -29.2618,13.2697 -23.0079,9.98977 -45.678,19.8331 -48.8835,27.411 -3.27284,7.73977 6.26103,31.4445 15.7701,55.0843 4.03111,10.0228 8.05985,20.0374 11.0516,28.7197l0.0129921 -0.00472441c2.61732,7.6004 0.500788,15.6862 -4.78465,21.0484 -12.8421,15.8693 -48.0981,59.367 -68.6788,51.3567 -8.49922,-2.96221 -18.2162,-6.87048 -27.939,-10.7811 -23.641,-9.50788 -47.3457,-19.0429 -55.0855,-15.7701 -7.57914,3.20551 -17.4225,25.8756 -27.411,48.8847 -5.85827,13.4953 -12.8079,40.5437 -30.7276,41.8335 -22.239,2.55 -81.626,9.19607 -90.6827,-12.5717 -4.3878,-8.80158 -8.84174,-19.0595 -13.2721,-29.263 -9.98741,-23.0079 -19.8307,-45.678 -27.4099,-48.8835 -7.73977,-3.27284 -31.4433,6.26221 -55.0843,15.7713 -10.0217,4.03111 -20.0374,8.05867 -28.7185,11.0516l0.00472441 0.011811c-7.60158,2.61732 -15.6874,0.500788 -21.0484,-4.78347 -9.02127,-7.3004 -17.2701,-14.6894 -24.711,-22.1292 -10.3961,-10.3973 -33.2752,-29.5016 -26.6492,-46.5426 2.96221,-8.50394 6.87284,-18.2232 10.7858,-27.9508 9.50788,-23.6398 19.0417,-47.3422 15.7689,-55.0808 -3.20551,-7.57914 -25.8768,-17.4225 -48.8847,-27.4122 -13.4953,-5.85827 -40.5437,-12.8079 -41.8347,-30.7276 -0.646063,-5.63859 -1.16102,-11.5866 -1.53189,-17.8536 -0.39567,-6.70158 -0.6,-12.9673 -0.6,-18.7595 0,-5.78977 0.204331,-12.0532 0.6,-18.7536 0.392126,-6.62008 0.943702,-12.8847 1.64291,-18.8079l-0.0188977 -0.00236221c0.89882,-7.61457 5.87126,-13.7563 12.4795,-16.5059 8.80158,-4.38662 19.0595,-8.84174 29.263,-13.2709 23.0079,-9.98859 45.6792,-19.8319 48.8835,-27.4099 3.27402,-7.74095 -6.26103,-31.4445 -15.7701,-55.0855 -4.03111,-10.0217 -8.05985,-20.0374 -11.0516,-28.7185l-0.011811 0.00472441c-2.61851,-7.60158 -0.500788,-15.6862 4.78347,-21.0484 7.29922,-9.02127 14.6894,-17.2701 22.1292,-24.7099 10.3961,-10.3973 29.5016,-33.2752 46.5426,-26.6504 8.50276,2.96339 18.2232,6.87284 27.9508,10.7858 23.6386,9.50788 47.341,19.0417 55.0808,15.7689 7.57914,-3.20551 17.4225,-25.8768 27.411,-48.8847 11.4543,-26.3882 11.4177,-37.467 33.3662,-41.6587 19.898,-3.79725 79.5142,-8.10119 88.0453,12.3969zm-54.0709 143.197c44.0008,0 83.8406,17.837 112.678,46.6748 28.8378,28.839 46.676,68.6776 46.676,112.678 0,44.002 -17.8382,83.8406 -46.676,112.678 -28.8378,28.839 -68.6776,46.676 -112.678,46.676 -44.0008,0 -83.8394,-17.837 -112.678,-46.676 -28.8378,-28.8378 -46.676,-68.6764 -46.676,-112.678 0,-44.0008 17.8382,-83.8394 46.676,-112.678 28.839,-28.8378 68.6776,-46.6748 112.678,-46.6748zm83.7355 75.619c-21.4288,-21.4288 -51.0331,-34.6819 -83.7355,-34.6819 -32.7012,0 -62.3067,13.2532 -83.7343,34.6819 -21.4288,21.4276 -34.6819,51.0331 -34.6819,83.7343 0,32.7024 13.2532,62.3079 34.6819,83.7355 21.4276,21.4276 51.0331,34.6819 83.7343,34.6819 32.7024,0 62.3067,-13.2543 83.7355,-34.6819 21.4276,-21.4276 34.6819,-51.0331 34.6819,-83.7355 0,-32.7012 -13.2543,-62.3067 -34.6819,-83.7343zm-83.7355 6.73229c21.2599,0 40.5118,8.61969 54.4477,22.5555 13.9347,13.9347 22.5543,33.1878 22.5543,54.4465 0,21.261 -8.61969,40.5118 -22.5543,54.4477 -13.9358,13.9347 -33.1878,22.5555 -54.4477,22.5555 -21.261,0 -40.5118,-8.62087 -54.4465,-22.5555 -13.9358,-13.9358 -22.5555,-33.1866 -22.5555,-54.4477 0,-21.2587 8.61969,-40.5118 22.5555,-54.4465 13.9347,-13.9358 33.1855,-22.5555 54.4465,-22.5555zm25.5036 51.4985c-6.52441,-6.52441 -15.5433,-10.5614 -25.5036,-10.5614 -9.96142,0 -18.9791,4.03701 -25.5036,10.5614 -6.5256,6.5256 -10.5614,15.5433 -10.5614,25.5036 0,9.96142 4.03583,18.9791 10.5614,25.5036 6.52441,6.5256 15.5421,10.5614 25.5036,10.5614 9.96024,0 18.9791,-4.03583 25.5036,-10.5614 6.5256,-6.52441 10.5614,-15.5421 10.5614,-25.5036 0,-9.96024 -4.03583,-18.978 -10.5614,-25.5036z"/>
  </g>
 </g>
 <rect class="fil2" width="2048" height="2048"/>
</svg>
