<?xml version="1.0" encoding="UTF-8"?>
<!DOCTYPE svg PUBLIC "-//W3C//DTD SVG 1.1//EN" "http://www.w3.org/Graphics/SVG/1.1/DTD/svg11.dtd">
<!-- Creator: CorelDRAW -->
<svg xmlns="http://www.w3.org/2000/svg" xml:space="preserve" width="2048px" height="2048px" style="shape-rendering:geometricPrecision; text-rendering:geometricPrecision; image-rendering:optimizeQuality; fill-rule:evenodd; clip-rule:evenodd"
viewBox="0 0 2048 2048"
 xmlns:xlink="http://www.w3.org/1999/xlink">
 <defs>
  <style type="text/css">
   <![CDATA[
    .fil2 {fill:none}
    .fil0 {fill:#424242}
    .fil1 {fill:#424242;fill-rule:nonzero}
   ]]>
  </style>
 </defs>
 <g id="Layer_x0020_1">
  <metadata id="CorelCorpID_0Corel-Layer"/>
  <g id="_489074480">
   <g>
    <path id="_489075824" class="fil0" d="M1290.19 425.351l0 4.44213c-86.1261,5.42363 -183.527,3.72992 -256.354,-32.4154 -69.1359,-34.3158 -73.8154,-79.5485 -55.5579,-139.681 14.9728,-1.25906 30.1807,-1.78937 45.4075,-1.59803 36.7276,0.459449 73.4682,5.13898 107.112,13.8638 90.8292,23.5512 161.025,76.0879 159.245,155.388l0.147638 0zm0 38.6363l0 70.6949c0,7.17402 -0.315355,131.732 -0.927166,138.554 -8.50749,94.9253 -74.7379,156.571 -157.939,184.787 -34.1044,11.5665 -70.8414,17.3528 -107.343,17.3528 -36.5032,0 -73.2379,-5.78622 -107.346,-17.3528 -81.8138,-27.7453 -147.21,-87.8221 -157.455,-180.073 -0.889371,-8.01024 -1.36536,-133.82 -1.39843,-142.323 27.7984,-4.07835 56.4756,-10.4929 83.1367,-17.1106 20.2193,-5.01969 40.4516,-10.5815 60.1087,-17.0055 13.3288,-4.35473 29.139,-9.79017 41.1296,-16.3925 22.0973,-12.1725 42.4075,-27.7264 56.4095,-46.7516l9.96024 -13.5366 16.7209 7.4067c78.9934,34.9878 175.467,37.2591 264.944,31.7504zm-353.831 -200.69c-4.6441,29.9091 -10.4599,67.6548 0.719292,96.1028 5.51811,14.0433 14.8252,25.7032 27.0697,36.2091l10.3831 8.90788 -6.87993 11.0669c-10.5508,16.9595 -28.6075,30.5918 -47.3953,40.9382 -11.8335,6.51733 -27.391,11.6339 -40.6429,15.7429 -17.7685,5.50985 -35.9988,10.2898 -54.2126,14.6504 -21.7264,5.20158 -44.9209,10.3476 -67.6276,13.9748l0 -75.5398c0,-84.5564 69.2422,-136.071 158.775,-157.818 6.49016,-1.57677 13.102,-2.98701 19.8118,-4.23544zm237.966 296.447l-105.099 0c-1.06181,0 -2.03858,0.444095 -2.75079,1.15748l0 0c-0.10748,0.108662 -0.216142,0.212599 -0.327166,0.315355 -0.517323,0.654331 -0.830316,1.50118 -0.830316,2.43543l0 33.3213c0,10.2236 4.19292,19.5295 10.9453,26.2819 6.75119,6.75237 16.0583,10.9441 26.2819,10.9441l60.0567 0c7.18111,0 13.7173,-2.94685 18.463,-7.69253 4.74567,-4.74449 7.69253,-11.2819 7.69253,-18.463l0 -33.8681c0,-3.95433 -1.62756,-7.5626 -4.24725,-10.1823 -2.62205,-2.62087 -6.22796,-4.24961 -10.1847,-4.24961zm-300.649 -23.5087l105.099 0c7.55197,0 14.4095,3.08032 19.3748,8.04449l0 0c0.28937,0.287008 0.557481,0.584646 0.807875,0.895276 4.48819,4.9004 7.23544,11.3965 7.23544,18.4772l0 33.3213c0,16.7138 -6.83032,31.9004 -17.8323,42.9048 -11.002,11.002 -26.191,17.8323 -42.9048,17.8323l-60.0544 0c-13.6701,0 -26.0918,-5.58426 -35.0859,-14.5807 -8.99646,-8.99646 -14.5807,-21.4158 -14.5807,-35.0859l0 -33.8681c0,-10.4445 4.26496,-19.9358 11.1354,-26.8051 6.8693,-6.87048 16.3606,-11.1354 26.8051,-11.1354zm105.099 23.5087l-105.099 0c-3.95433,0 -7.5626,1.62874 -10.1823,4.24961 -2.62087,2.61969 -4.24961,6.22796 -4.24961,10.1823l0 33.8681c0,7.18111 2.94921,13.7185 7.69489,18.463 4.74449,4.74567 11.2819,7.69253 18.463,7.69253l60.0544 0c10.2236,0 19.5307,-4.19174 26.2819,-10.9441 6.75355,-6.75237 10.9441,-16.0583 10.9441,-26.2819l0 -33.3213c0,-0.934253 -0.309449,-1.7811 -0.829134,-2.43543 -0.111024,-0.102756 -0.219685,-0.206693 -0.327166,-0.315355l0.0011811 0c-0.713386,-0.713386 -1.6878,-1.15748 -2.75197,-1.15748zm90.4501 -23.5087l105.099 0c10.4469,0 19.937,4.26496 26.8051,11.1354 6.87048,6.8693 11.1378,16.3606 11.1378,26.8051l0 33.8681c0,13.6701 -5.58544,26.0894 -14.5819,35.0859 -8.99528,8.99646 -21.4158,14.5807 -35.0847,14.5807l-60.0567 0c-16.7138,0 -31.9028,-6.83032 -42.9036,-17.8323 -11.002,-11.0043 -17.8323,-26.191 -17.8323,-42.9048l0 -33.3213c0,-7.08071 2.74725,-13.5768 7.23426,-18.4772 0.252756,-0.31063 0.520867,-0.608268 0.807875,-0.895276l0.00236221 0c4.96418,-4.96418 11.8205,-8.04449 19.3725,-8.04449z"/>
    <path id="_489075728" class="fil0" d="M1218.35 880.324c73.2414,35.5347 135.56,79.1115 180.08,135.933 18.228,23.263 33.3969,48.6118 45.0426,76.3701l-838.948 0c11.6433,-27.7536 26.8099,-53.0977 45.0331,-76.3571 44.8323,-57.2245 107.711,-101.016 181.627,-136.691 7.78583,-5.50276 21.8256,0.418111 24.4784,2.44252 49.5248,31.6748 108.875,47.5146 168.326,47.5122 60.052,-0.0011811 120.006,-16.1681 169.833,-48.5008l-0.0318898 -0.068504c7.66654,-4.97599 17.1508,-4.91339 24.5599,-0.640158z"/>
   </g>
   <path id="_489075248" class="fil1" d="M301.961 1124.63l1444.64 0c17.6728,0 32.0008,13.9075 32.0008,31.063 0,4.8815 -1.16102,9.50079 -3.22914,13.611l-195.856 489.91 -29.7496 -11.1638 29.8323 11.2382c-4.99961,12.5067 -17.4284,20.0835 -30.4878,19.826l-1050.87 0c-14.5299,0 -26.7957,-9.40158 -30.7004,-22.2792l-195.868 -489.941 -0.0980316 0.0366142c-6.39331,-15.9921 1.77992,-33.9898 18.2551,-40.1965 3.98977,-1.50354 8.10001,-2.17441 12.1311,-2.10473z"/>
   <path id="_489074960" class="fil1" d="M493.828 1697.62c-17.6728,0 -32.0008,13.9075 -32.0008,31.063 0,17.1543 5.63622,63.2528 23.3091,63.2528l1060.35 0c17.6728,0 40.6926,-46.0985 40.6926,-63.2528 0,-17.1555 -14.328,-31.063 -32.0008,-31.063l-1060.35 0zm72.5764 25.2827l16.1469 0 0 43.7504 -16.1469 0 0 -43.7504zm187.505 0l16.1469 0 0 43.7504 -16.1469 0 0 -43.7504zm-31.2508 0l16.1469 0 0 43.7504 -16.1469 0 0 -43.7504zm-31.2508 0l16.1469 0 0 43.7504 -16.1469 0 0 -43.7504zm-31.2508 0l16.1469 0 0 43.7504 -16.1469 0 0 -43.7504zm-31.2508 0l16.1469 0 0 43.7504 -16.1469 0 0 -43.7504zm-31.2508 0l16.1469 0 0 43.7504 -16.1469 0 0 -43.7504zm578.155 -1.92756c13.1457,0 23.8028,10.6571 23.8028,23.8028 0,13.1469 -10.6571,23.804 -23.8028,23.804 -13.1469,0 -23.804,-10.6571 -23.804,-23.804 0,-13.1457 10.6571,-23.8028 23.804,-23.8028zm-0.0011811 15.6059c4.52717,0 8.19686,3.66969 8.19686,8.19686 0,4.52717 -3.66969,8.19686 -8.19686,8.19686 -4.52717,0 -8.19686,-3.66969 -8.19686,-8.19686 0,-4.52717 3.66969,-8.19686 8.19686,-8.19686zm213.379 -19.6677l20.8323 0c3.43819,0 6.2504,2.81221 6.2504,6.2504l0 43.2284c0,3.43819 -2.81221,6.2504 -6.2504,6.2504l-20.8323 0c-3.43819,0 -6.2504,-2.81221 -6.2504,-6.2504l0 -43.2284c0,-3.43819 2.81221,-6.2504 6.2504,-6.2504zm43.7504 0l20.8323 0c3.43819,0 6.2504,2.81221 6.2504,6.2504l0 43.2284c0,3.43819 -2.81221,6.2504 -6.2504,6.2504l-20.8323 0c-3.43819,0 -6.2504,-2.81221 -6.2504,-6.2504l0 -43.2284c0,-3.43819 2.81221,-6.2504 6.2504,-6.2504zm-131.772 0l20.8323 0c3.43819,0 6.2504,2.81221 6.2504,6.2504l0 43.2284c0,3.43819 -2.81221,6.2504 -6.2504,6.2504l-20.8323 0c-3.43819,0 -6.2504,-2.81221 -6.2504,-6.2504l0 -43.2284c0,-3.43819 2.81221,-6.2504 6.2504,-6.2504zm43.7504 0l20.8323 0c3.43819,0 6.2504,2.81221 6.2504,6.2504l0 43.2284c0,3.43819 -2.81221,6.2504 -6.2504,6.2504l-20.8323 0c-3.43819,0 -6.2504,-2.81221 -6.2504,-6.2504l0 -43.2284c0,-3.43819 2.81221,-6.2504 6.2504,-6.2504z"/>
   <rect id="_489074744" class="fil0" x="556.51" y="1669.56" width="291.072" height="40.4058"/>
   <rect id="_489074624" class="fil0" x="1184" y="1669.56" width="291.072" height="39.8837"/>
  </g>
 </g>
 <rect class="fil2" width="2048" height="2048"/>
</svg>
