<?xml version="1.0" encoding="UTF-8"?>
<!DOCTYPE svg PUBLIC "-//W3C//DTD SVG 1.1//EN" "http://www.w3.org/Graphics/SVG/1.1/DTD/svg11.dtd">
<!-- Creator: CorelDRAW -->
<svg xmlns="http://www.w3.org/2000/svg" xml:space="preserve" width="2048px" height="2048px" style="shape-rendering:geometricPrecision; text-rendering:geometricPrecision; image-rendering:optimizeQuality; fill-rule:evenodd; clip-rule:evenodd"
viewBox="0 0 2048 2048"
 xmlns:xlink="http://www.w3.org/1999/xlink">
 <defs>
  <style type="text/css">
   <![CDATA[
    .fil3 {fill:none}
    .fil1 {fill:#424242}
    .fil2 {fill:#212121;fill-rule:nonzero}
    .fil0 {fill:#424242;fill-rule:nonzero}
   ]]>
  </style>
 </defs>
 <g id="Layer_x0020_1">
  <metadata id="CorelCorpID_0Corel-Layer"/>
  <g id="_489076160">
   <path id="_489061016" class="fil0" d="M713.686 433.232c0,36.6095 -14.8417,69.7642 -38.8382,93.7654l0.00236221 0.00236221c-0.598819,0.598819 -1.2189,1.16457 -1.85551,1.69961 -23.8984,22.9996 -56.2914,37.1445 -91.9016,37.1445 -36.6189,0 -69.7678,-14.8453 -93.7631,-38.8418 -24,-24 -38.8429,-57.1571 -38.8429,-93.7702 0,-36.6189 14.8406,-69.7737 38.8382,-93.7725 23.9965,-23.9965 57.1489,-38.8394 93.7678,-38.8394 36.5126,0 69.6426,14.863 93.7016,38.8985l0.056693 -0.056693 0.00236221 0.00236221 0.0011811 -0.00236221 0.303544 0.311811c23.8122,23.9717 38.5276,56.9977 38.5276,93.4583z"/>
   <path id="_489061208" class="fil1" d="M1405.2 599.914c102.804,7.92166 195.23,52.904 263.936,121.609 75.9119,75.9107 122.867,180.784 122.867,296.615 0,115.832 -46.9548,220.703 -122.867,296.614 -75.9107,75.9119 -180.782,122.867 -296.614,122.867 -115.831,0 -220.703,-46.9548 -296.614,-122.867 -75.9119,-75.9119 -122.865,-180.782 -122.865,-296.614 0,-115.831 46.9536,-220.705 122.865,-296.615 68.706,-68.7048 161.133,-113.687 263.938,-121.609l0 -84.8918c0,-18.0461 14.6303,-32.6764 32.6764,-32.6764 18.0473,0 32.6776,14.6303 32.6776,32.6764l0 84.8918zm-65.054 448.512c-0.196063,1.44685 -0.298819,2.92441 -0.298819,4.42678 0,18.0461 14.6303,32.6764 32.6764,32.6764l269.903 -12.6496c11.061,0 20.028,-8.96694 20.028,-20.0268 0,-11.061 -8.96694,-20.028 -20.028,-20.028l-238.282 -11.1673 -7.77166 -262.508c0.0484252,-12.3319 -9.90828,-22.3689 -22.2402,-22.4162 -12.3331,-0.0484252 -22.3689,9.90946 -22.4173,22.2414l-11.5701 289.452zm277.008 -274.921c-62.6008,-62.602 -149.094,-101.324 -244.631,-101.324 -46.9134,0 -91.6087,9.30946 -132.331,26.178 -42.28,17.511 -80.3705,43.2177 -112.3,75.1465 -31.9288,31.9288 -57.6343,70.0193 -75.1465,112.3 -16.8685,40.7244 -26.178,85.4186 -26.178,132.332 0,46.9134 9.30946,91.6087 26.178,132.332 17.5099,42.2788 43.2177,80.3705 75.1465,112.299 31.9276,31.9288 70.0182,57.6343 112.299,75.1477 40.7244,16.8685 85.4198,26.178 132.332,26.178 46.9122,0 91.6076,-9.30946 132.333,-26.178 42.2811,-17.5134 80.3717,-43.2189 112.298,-75.1477 31.9288,-31.9264 57.6343,-70.017 75.1477,-112.298 16.8685,-40.7256 26.178,-85.4209 26.178,-132.333 0,-46.9134 -9.30946,-91.6076 -26.178,-132.332 -17.5134,-42.2811 -43.2177,-80.3717 -75.1477,-112.3zm-244.631 -117.664c100.047,0 190.624,40.5532 256.184,106.113 33.3673,33.365 60.2717,73.2745 78.6568,117.659 17.6917,42.7146 27.4559,89.5028 27.4559,138.525 0,49.0205 -9.76418,95.8111 -27.4559,138.525 -18.3851,44.3859 -45.2894,84.293 -78.6568,117.659 -33.3662,33.3662 -73.2733,60.2717 -117.659,78.6568 -42.7134,17.6917 -89.504,27.4559 -138.525,27.4559 -49.0205,0 -95.8099,-9.76418 -138.525,-27.4559 -44.3847,-18.3851 -84.293,-45.2906 -117.658,-78.6568 -33.3673,-33.3673 -60.2729,-73.2745 -78.6568,-117.66 -17.6917,-42.7122 -27.4559,-89.5016 -27.4559,-138.523 0,-49.0217 9.76418,-95.8099 27.4559,-138.525 18.3851,-44.3847 45.2894,-84.2942 78.6568,-117.659 33.3662,-33.3673 73.2745,-60.2729 117.659,-78.6568 42.7134,-17.6917 89.5016,-27.4559 138.523,-27.4559z"/>
   <path id="_489060872" class="fil0" d="M1273.65 470.79c-18.0461,0 -32.6776,14.6315 -32.6776,32.6776 0,18.0461 14.6315,32.6776 32.6776,32.6776l197.753 0c18.0461,0 32.6764,-14.6315 32.6764,-32.6776 0,-18.0461 -14.6303,-32.6776 -32.6764,-32.6776l-197.753 0z"/>
   <polygon id="_489060704" class="fil2" points="743.252,713.61 743.252,713.607 743.218,713.611 743.214,713.613 "/>
   <polygon id="_489076712" class="fil2" points="742.782,713.664 742.782,713.66 723.999,715.804 724.003,715.811 "/>
   <polygon id="_489076664" class="fil2" points="743.252,713.607 743.252,713.61 755.441,712.215 "/>
   <polygon id="_489076568" class="fil2" points="742.782,713.66 742.782,713.664 742.87,713.653 742.868,713.651 "/>
   <polygon id="_489076400" class="fil2" points="742.868,713.651 742.87,713.653 743.062,713.631 743.038,713.631 "/>
   <polygon id="_489076280" class="fil2" points="743.038,713.631 743.062,713.631 743.214,713.613 743.218,713.611 "/>
   <path id="_489076208" class="fil1" d="M737.421 702.635c-3.32717,12.828 -4.95237,38.1449 -5.74489,48.691 -2.83347,37.7445 -3.99095,75.893 -4.87678,113.731 -2.4874,106.095 -2.0315,212.557 -1.18819,318.678 0.774804,97.4705 2.18386,194.934 3.70512,292.396 0.977954,62.693 2.89488,127.195 2.89488,189.884 0,113.421 -135.995,100.902 -136.021,7.86615l-0.549213 -459.279c-0.00236221,-10.9843 -2.11417,-20.9398 -14.5465,-20.9398 -7.93465,0 -14.6658,6.73938 -14.6658,14.6728l0 470.366c0,93.58 -136.075,88.7859 -136.077,1.90512l-0.0212599 -944.666c0,-7.64528 2.45906,-25.0571 -3.47126,-30.9874 -2.25945,-2.25945 -5.20158,-3.52441 -8.38229,-3.59882 -4.60158,1.14331 -12.1323,10.7776 -12.8421,15.0732l-37.7339 284.518c-2.6752,20.1638 -11.2843,39.6154 -28.5544,51.3603 -16.0004,10.8827 -36.5209,12.5433 -53.902,3.913 -21.1465,-10.4965 -32.0693,-32.9929 -28.9063,-56.1567l35.5807 -260.549c2.20866,-16.1669 2.23701,-31.1693 5.93504,-47.4839 5.75315,-25.3784 17.6835,-46.5674 36.1441,-64.9371 25.1658,-25.0418 59.0162,-39.0544 94.5296,-39.0544l304.718 0c30.0272,0 62.3327,4.56496 85.4906,25.4386 17.948,16.1799 27.4583,39.3461 36.0461,61.3749 4.31221,11.061 8.35158,22.2721 12.4382,33.4193 25.8981,70.6536 53.25,143.287 115.811,190.09l17.0256 12.737 -4.7504 20.726c-4.5815,19.9914 -7.55079,40.3477 -8.92796,60.8103l-3.77481 56.0776 -46.865 -31.0264c-17.1024,-11.3221 -32.5925,-24.9366 -46.5863,-39.9036 -34.9441,-37.3748 -62.3197,-78.3071 -80.6729,-126.287l-52.3028 -136.739c-0.784253,-2.04803 -3.36142,-8.70473 -5.02441,-10.1906 -3.98977,-3.56221 -9.45473,-4.19528 -13.9311,-1.92992z"/>
  </g>
 </g>
 <rect class="fil3" width="2048" height="2048"/>
</svg>
