<?xml version="1.0" encoding="UTF-8"?>
<!DOCTYPE svg PUBLIC "-//W3C//DTD SVG 1.1//EN" "http://www.w3.org/Graphics/SVG/1.1/DTD/svg11.dtd">
<!-- Creator: CorelDRAW -->
<svg xmlns="http://www.w3.org/2000/svg" xml:space="preserve" width="2048px" height="2048px" style="shape-rendering:geometricPrecision; text-rendering:geometricPrecision; image-rendering:optimizeQuality; fill-rule:evenodd; clip-rule:evenodd"
viewBox="0 0 2048 2048"
 xmlns:xlink="http://www.w3.org/1999/xlink">
 <defs>
  <style type="text/css">
   <![CDATA[
    .fil1 {fill:none}
    .fil0 {fill:#424242}
   ]]>
  </style>
 </defs>
 <g id="Layer_x0020_1">
  <metadata id="CorelCorpID_0Corel-Layer"/>
  <g id="_489062024">
   <path id="_489061592" class="fil0" d="M1456.45 1127.25l66.8292 -67.004 0.8563 -0.748819c12.0295,-10.5319 13.4823,-28.552 4.36418,-41.1792l-66.476 -74.1993c-6.61654,-7.38544 -15.2362,-13.2685 -25.5154,-13.2685l-48.489 0 0 -68.4225 -62.7508 0 0 68.4225 -42.8681 0 0 -80.5879 -62.7508 0 0 80.5879 -36.4855 0 0 -68.4225 -62.7508 0 0 68.4225 -186.155 0 -2.99173 -5.83347c-16.076,-31.3382 -39.6402,-58.3737 -68.3835,-78.7064 -36.8126,-26.0398 -80.3434,-40.0288 -125.458,-40.0288 -57.9485,0 -112.98,22.8036 -153.949,63.7725 -40.9689,40.9689 -63.7725,96.0001 -63.7725,153.949 0,57.9485 22.8036,112.98 63.7725,153.949 40.9689,40.9689 96.0013,63.7725 153.949,63.7725 41.3658,0 81.5386,-11.6291 116.466,-33.7925 27.4465,-17.4142 50.7142,-40.8508 67.9796,-68.3918l3.15591 -5.0315 511.481 -0.00236221c7.35827,0 14.3681,-2.5689 19.9417,-7.25552zm-729.668 -162.607c16.3878,0 31.2272,6.64607 41.9705,17.3894l0.0011811 -0.0011811c1.39252,1.38898 2.65984,2.85473 3.80906,4.37953 8.48623,10.3051 13.5803,23.4059 13.5803,37.5922 0,16.3878 -6.64725,31.226 -17.3906,41.9717 -10.7433,10.7433 -25.5827,17.3894 -41.9705,17.3894 -16.2402,0 -31.0583,-6.67441 -41.889,-17.4709l-0.0826772 0.0814961 -0.00708662 -0.00826772 -0.00236221 0.00354331 -0.434646 -0.446457 -0.132284 -0.137008 -0.225591 -0.23504c-10.2697,-10.6713 -16.5874,-25.1729 -16.5874,-41.1485 0,-16.4658 8.27481,-35.5996 21.7642,-45.7784 10.3063,-8.48859 23.4095,-13.5815 37.5969,-13.5815z"/>
   <path id="_489061736" class="fil0" d="M376.546 1025.13c20.6669,10.6453 38.7733,25.4563 51.2658,46.1044 21.8055,36.0437 25.024,93.052 25.024,134.126l0 126.763c0,24.8162 1.67953,77.4201 19.591,97.0595 16.7575,18.3756 54.8067,20.9067 77.7568,20.9067 3.49725,0 7.11024,-0.265748 10.598,-0.501969 4.32874,-0.294095 8.72953,-0.574016 13.0689,-0.574016l15.6106 0 0 86.9824 -40.3548 0c-48.2658,0 -115.504,-5.7567 -151.107,-42.8044 -36.6815,-38.1709 -40.9311,-116.521 -40.9311,-166.269l0 -128.375c0,-31.6359 -3.51969,-78.7512 -25.9217,-103.574 -15.261,-16.911 -39.6083,-23.6587 -61.4457,-26.3481l-13.702 -1.68662 0 -84.7973 13.702 -1.6878c21.7937,-2.68347 46.2201,-9.40631 61.4245,-26.3232 22.4138,-24.9366 25.9429,-72.2209 25.9429,-103.957l0 -127.66c0,-50.1804 4.36536,-128.048 41.0386,-166.728 35.8181,-37.7788 102.091,-43.7776 150.999,-43.7776l40.3548 0 0 86.9824 -34.9748 0c-23.6043,0 -64.206,2.42481 -81.6119,21.1843 -18.2917,19.7114 -20.0386,72.0875 -20.0386,97.1398l0 127.48c0,41.0351 -3.24213,97.9406 -25.024,133.948 -12.4937,20.6516 -30.6166,35.5607 -51.2658,46.3878z"/>
   <path id="_489061640" class="fil0" d="M1671.45 1025.13c-20.6492,-10.8272 -38.7721,-25.7362 -51.2658,-46.3878 -21.7819,-36.0071 -25.024,-92.9127 -25.024,-133.948l0 -127.48c0,-25.0524 -1.74685,-77.4284 -20.0386,-97.1398 -17.4059,-18.7595 -58.0075,-21.1843 -81.6119,-21.1843l-34.9748 0 0 -86.9824 40.3548 0c48.9083,0 115.181,5.99882 150.999,43.7776 36.6733,38.68 41.0386,116.548 41.0386,166.728l0 127.66c0,31.7362 3.52914,79.0205 25.9429,103.957 15.2043,16.9169 39.6307,23.6398 61.4245,26.3232l13.702 1.6878 0 84.7973 -13.702 1.68662c-21.8374,2.68937 -46.1847,9.43702 -61.4457,26.3481 -22.402,24.8232 -25.9217,71.9386 -25.9217,103.574l0 128.375c0,49.7481 -4.24961,128.098 -40.9311,166.269 -35.6032,37.0477 -102.841,42.8044 -151.107,42.8044l-40.3548 0 0 -86.9824 15.6106 0c4.33937,0 8.74016,0.279921 13.0689,0.574016 3.4878,0.236221 7.10079,0.501969 10.598,0.501969 22.95,0 60.9993,-2.5311 77.7568,-20.9067 17.9114,-19.6394 19.591,-72.2434 19.591,-97.0595l0 -126.763c0,-41.074 3.21851,-98.0824 25.024,-134.126 12.4925,-20.648 30.5988,-35.4591 51.2658,-46.1044z"/>
  </g>
 </g>
 <rect class="fil1" width="2048" height="2048"/>
</svg>
