<?xml version="1.0" encoding="UTF-8"?>
<!DOCTYPE svg PUBLIC "-//W3C//DTD SVG 1.1//EN" "http://www.w3.org/Graphics/SVG/1.1/DTD/svg11.dtd">
<!-- Creator: CorelDRAW -->
<svg xmlns="http://www.w3.org/2000/svg" xml:space="preserve" width="2048px" height="2048px" style="shape-rendering:geometricPrecision; text-rendering:geometricPrecision; image-rendering:optimizeQuality; fill-rule:evenodd; clip-rule:evenodd"
viewBox="0 0 2048 2048"
 xmlns:xlink="http://www.w3.org/1999/xlink">
 <defs>
  <style type="text/css">
   <![CDATA[
    .fil0 {fill:none}
    .fil1 {fill:#424242;fill-rule:nonzero}
   ]]>
  </style>
 </defs>
 <g id="Layer_x0020_1">
  <metadata id="CorelCorpID_0Corel-Layer"/>
  <path class="fil0" d="M575.377 755.027l263.288 0 0 81.3355c0,34.1268 29.2984,59.6363 62.667,59.6363l245.338 0c33.3685,0 62.667,-25.5095 62.667,-59.6363l0 -81.3355 263.287 0c21.952,0 41.8878,8.95867 56.3185,23.3894 14.4319,14.4295 23.3906,34.3666 23.3906,56.3185l0 164.962c0,21.952 -8.95867,41.889 -23.3894,56.3197 -14.4319,14.4319 -34.3677,23.3906 -56.3197,23.3906l-897.246 0c-21.952,0 -41.8878,-8.95867 -56.3197,-23.3906 -14.4307,-14.4307 -23.3894,-34.3677 -23.3894,-56.3197l0 -164.962c0,-21.952 8.95867,-41.889 23.3906,-56.3185 14.4307,-14.4307 34.3666,-23.3894 56.3185,-23.3894z"/>
  <path class="fil1" d="M1177.34 587.638l0 248.725c0,15.2622 -13.7303,27.6366 -30.6673,27.6366l-245.338 0c-16.937,0 -30.6673,-12.3744 -30.6673,-27.6366l0 -248.725 -91.9985 0 0 -0.00236221c-6.7252,0.00354331 -13.4976,-1.97362 -19.1563,-6.05434 -13.226,-9.53387 -15.3709,-26.9268 -4.79055,-38.8453l0.119291 0.0874016 243.381 -274.165c1.7504,-2.44606 3.96142,-4.68307 6.62245,-6.60237 13.2248,-9.53387 32.524,-7.60158 43.1044,4.31575l-23.9469 17.2642 23.8382 -17.165 243.425 274.213c5.40591,4.98189 8.73898,11.798 8.73898,19.3158 0,15.2634 -13.7315,27.6378 -30.6673,27.6378l-91.9973 0z"/>
  <path class="fil1" d="M575.377 1467.62l897.246 0c21.952,0 41.8878,8.95867 56.3185,23.3894 14.4319,14.4295 23.3906,34.3666 23.3906,56.3185l0 164.962c0,21.952 -8.95867,41.889 -23.3894,56.3197 -14.4319,14.4319 -34.3677,23.3906 -56.3197,23.3906l-897.246 0c-21.952,0 -41.8878,-8.95867 -56.3197,-23.3906 -14.4307,-14.4307 -23.3894,-34.3677 -23.3894,-56.3197l0 -164.962c0,-21.952 8.95867,-41.889 23.3906,-56.3185 14.4307,-14.4307 34.3666,-23.3894 56.3185,-23.3894zm712.372 125.293c-20.3764,0 -36.8977,16.5201 -36.8977,36.8977 0,20.3776 16.5213,36.8977 36.8977,36.8977l93.1052 0c20.3776,0 36.8977,-16.5201 36.8977,-36.8977 0,-20.3776 -16.5201,-36.8977 -36.8977,-36.8977l-93.1052 0z"/>
  <path class="fil1" d="M575.377 1111.32l897.246 0c21.952,0 41.8878,8.95867 56.3185,23.3894 14.4319,14.4295 23.3906,34.3666 23.3906,56.3185l0 164.962c0,21.952 -8.95867,41.889 -23.3894,56.3197 -14.4319,14.4319 -34.3677,23.3906 -56.3197,23.3906l-897.246 0c-21.952,0 -41.8878,-8.95867 -56.3197,-23.3906 -14.4307,-14.4307 -23.3894,-34.3677 -23.3894,-56.3197l0 -164.962c0,-21.952 8.95867,-41.889 23.3906,-56.3185 14.4307,-14.4307 34.3666,-23.3894 56.3185,-23.3894zm712.372 125.293c-20.3764,0 -36.8977,16.5201 -36.8977,36.8977 0,20.3776 16.5213,36.8977 36.8977,36.8977l93.1052 0c20.3776,0 36.8977,-16.5201 36.8977,-36.8977 0,-20.3776 -16.5201,-36.8977 -36.8977,-36.8977l-93.1052 0z"/>
  <path class="fil1" d="M575.377 755.027l263.288 0 0 81.3355c0,34.1268 29.2984,59.6363 62.667,59.6363l245.338 0c33.3685,0 62.667,-25.5095 62.667,-59.6363l0 -81.3355 263.287 0c21.952,0 41.8878,8.95867 56.3185,23.3894 14.4319,14.4295 23.3906,34.3666 23.3906,56.3185l0 164.962c0,21.952 -8.95867,41.889 -23.3894,56.3197 -14.4319,14.4319 -34.3677,23.3906 -56.3197,23.3906l-897.246 0c-21.952,0 -41.8878,-8.95867 -56.3197,-23.3906 -14.4307,-14.4307 -23.3894,-34.3677 -23.3894,-56.3197l0 -164.962c0,-21.952 8.95867,-41.889 23.3906,-56.3185 14.4307,-14.4307 34.3666,-23.3894 56.3185,-23.3894zm712.372 125.293c-20.3764,0 -36.8977,16.5201 -36.8977,36.8977 0,20.3776 16.5213,36.8977 36.8977,36.8977l93.1052 0c20.3776,0 36.8977,-16.5201 36.8977,-36.8977 0,-20.3776 -16.5201,-36.8977 -36.8977,-36.8977l-93.1052 0z"/>
 </g>
 <rect class="fil0" width="2048" height="2048"/>
</svg>
